{
.appVersion = "1352";
DisplayStrings = (

glyphs = (
{
glyphname = .notdef;
lastChange = "2021-11-16 05:43:23 +0000";
layers = (
{
layerId = "F2190ACF-0345-4BD7-9FAD-2D95E96981D2";
paths = (
{
closed = 1;
nodes = (
"51 621 LINE",
"50 621 LINE",
"50 9 LINE",
"58 0 LINE",
"378 0 LINE",
"387 8 LINE",
"387 621 LINE",
"378 630 LINE",
"58 630 LINE"
);
},
{
closed = 1;
nodes = (
"71 611 LINE",
"366 611 LINE",
"219 330 LINE"
);
},
{
closed = 1;
nodes = (
"69 45 LINE",
"69 585 LINE",
"210 315 LINE"
);
},
{
closed = 1;
nodes = (
"368 585 LINE",
"368 45 LINE",
"227 315 LINE"
);
},
{
closed = 1;
nodes = (
"72 18 LINE",
"219 299 LINE",
"365 18 LINE"
);
}
);
width = 437;
}
);
note = .notdef;
},
{
glyphname = A;
lastChange = "2021-11-16 05:32:14 +0000";
layers = (
{
hints = (
{
horizontal = 1;
place = "{-47, 17}";
type = Stem;
},
{
horizontal = 1;
place = "{235, 93}";
type = Stem;
},
{
horizontal = 1;
place = "{656, 19}";
type = Stem;
},
{
place = "{-27, 79}";
type = Stem;
},
{
place = "{885, 59}";
type = Stem;
}
);
layerId = "F2190ACF-0345-4BD7-9FAD-2D95E96981D2";
paths = (
{
closed = 1;
nodes = (
"1222 584 OFFCURVE",
"1224 594 OFFCURVE",
"1224 603 CURVE SMOOTH",
"1224 614 OFFCURVE",
"1221 624 OFFCURVE",
"1216 624 CURVE SMOOTH",
"1214 624 OFFCURVE",
"1211 621 OFFCURVE",
"1207 616 CURVE SMOOTH",
"1191 592 OFFCURVE",
"963 358 OFFCURVE",
"903 182 CURVE SMOOTH",
"891 147 OFFCURVE",
"885 112 OFFCURVE",
"885 78 CURVE SMOOTH",
"885 9 OFFCURVE",
"912 -54 OFFCURVE",
"972 -96 CURVE SMOOTH",
"976 -99 OFFCURVE",
"979 -95 OFFCURVE",
"979 -92 CURVE SMOOTH",
"979 -91 OFFCURVE",
"979 -90 OFFCURVE",
"978 -89 CURVE",
"954 -64 OFFCURVE",
"944 -30 OFFCURVE",
"944 10 CURVE SMOOTH",
"944 184 OFFCURVE",
"1131 471 OFFCURVE",
"1219 580 CURVE SMOOTH"
);
},
{
closed = 1;
nodes = (
"1352 653 OFFCURVE",
"1315 675 OFFCURVE",
"1261 675 CURVE SMOOTH",
"1214 675 OFFCURVE",
"1153 659 OFFCURVE",
"1084 604 CURVE SMOOTH",
"985 526 OFFCURVE",
"879 406 OFFCURVE",
"769 293 CURVE",
"744 301 OFFCURVE",
"719 307 OFFCURVE",
"700 311 CURVE SMOOTH",
"643 323 OFFCURVE",
"583 328 OFFCURVE",
"524 328 CURVE SMOOTH",
"455 328 OFFCURVE",
"385 321 OFFCURVE",
"319 309 CURVE SMOOTH",
"84 267 OFFCURVE",
"-27 170 OFFCURVE",
"-27 85 CURVE SMOOTH",
"-27 52 OFFCURVE",
"-10 21 OFFCURVE",
"23 -5 CURVE SMOOTH",
"50 -26 OFFCURVE",
"116 -47 OFFCURVE",
"199 -47 CURVE SMOOTH",
"252 -47 OFFCURVE",
"312 -38 OFFCURVE",
"375 -17 CURVE SMOOTH",
"507 28 OFFCURVE",
"623 125 OFFCURVE",
"734 232 CURVE",
"745 231 LINE SMOOTH",
"775 229 OFFCURVE",
"877 217 OFFCURVE",
"889 187 CURVE SMOOTH",
"891 183 OFFCURVE",
"893 181 OFFCURVE",
"895 181 CURVE SMOOTH",
"896 181 OFFCURVE",
"897 182 OFFCURVE",
"897 185 CURVE SMOOTH",
"897 186 OFFCURVE",
"897 188 OFFCURVE",
"897 189 CURVE SMOOTH",
"890 236 OFFCURVE",
"840 267 OFFCURVE",
"788 286 CURVE",
"889 389 OFFCURVE",
"986 496 OFFCURVE",
"1086 575 CURVE SMOOTH",
"1167 638 OFFCURVE",
"1235 656 OFFCURVE",
"1284 656 CURVE SMOOTH",
"1324 656 OFFCURVE",
"1350 644 OFFCURVE",
"1357 636 CURVE SMOOTH",
"1361 632 OFFCURVE",
"1367 638 OFFCURVE",
"1363 642 CURVE SMOOTH"
);
},
{
closed = 1;
nodes = (
"600 127 OFFCURVE",
"486 33 OFFCURVE",
"371 -3 CURVE SMOOTH",
"310 -22 OFFCURVE",
"251 -30 OFFCURVE",
"202 -30 CURVE SMOOTH",
"143 -30 OFFCURVE",
"98 -19 OFFCURVE",
"80 -5 CURVE SMOOTH",
"62 8 OFFCURVE",
"53 25 OFFCURVE",
"53 42 CURVE SMOOTH",
"53 98 OFFCURVE",
"146 169 OFFCURVE",
"367 208 CURVE SMOOTH",
"458 225 OFFCURVE",
"562 235 OFFCURVE",
"656 235 CURVE SMOOTH",
"674 235 OFFCURVE",
"692 235 OFFCURVE",
"709 234 CURVE"
);
}
);
width = 1030;
}
);
note = A;
unicode = 0041;
},
{
glyphname = AE;
lastChange = "2021-11-16 05:32:14 +0000";
layers = (
{
hints = (
{
horizontal = 1;
place = "{-91, 44}";
type = Stem;
},
{
horizontal = 1;
place = "{277, 77}";
type = Stem;
},
{
horizontal = 1;
place = "{537, 96}";
type = Stem;
},
{
horizontal = 1;
place = "{656, 21}";
target = up;
type = BottomGhost;
},
{
place = "{-54, 84}";
type = Stem;
},
{
place = "{1460, 38}";
type = Stem;
},
{
place = "{1712, 19}";
type = Stem;
}
);
layerId = "F2190ACF-0345-4BD7-9FAD-2D95E96981D2";
paths = (
{
closed = 1;
nodes = (
"1787 244 OFFCURVE",
"1787 247 OFFCURVE",
"1787 249 CURVE SMOOTH",
"1787 251 OFFCURVE",
"1787 252 OFFCURVE",
"1786 252 CURVE SMOOTH",
"1784 252 OFFCURVE",
"1780 248 OFFCURVE",
"1774 240 CURVE SMOOTH",
"1681 105 OFFCURVE",
"1464 -3 OFFCURVE",
"1275 -36 CURVE SMOOTH",
"1235 -43 OFFCURVE",
"1197 -47 OFFCURVE",
"1163 -47 CURVE SMOOTH",
"1031 -47 OFFCURVE",
"947 4 OFFCURVE",
"947 88 CURVE SMOOTH",
"947 140 OFFCURVE",
"979 204 OFFCURVE",
"1053 278 CURVE",
"1103 278 OFFCURVE",
"1154 277 OFFCURVE",
"1205 275 CURVE SMOOTH",
"1258 273 OFFCURVE",
"1479 245 OFFCURVE",
"1460 213 CURVE SMOOTH",
"1455 205 OFFCURVE",
"1466 203 OFFCURVE",
"1479 216 CURVE SMOOTH",
"1493 229 OFFCURVE",
"1499 241 OFFCURVE",
"1499 252 CURVE SMOOTH",
"1499 305 OFFCURVE",
"1354 329 OFFCURVE",
"1268 339 CURVE SMOOTH",
"1227 344 OFFCURVE",
"1184 348 OFFCURVE",
"1140 350 CURVE",
"1286 452 OFFCURVE",
"1514 537 OFFCURVE",
"1633 537 CURVE SMOOTH",
"1682 537 OFFCURVE",
"1713 523 OFFCURVE",
"1713 490 CURVE SMOOTH",
"1713 480 OFFCURVE",
"1710 468 OFFCURVE",
"1704 455 CURVE SMOOTH",
"1701 449 OFFCURVE",
"1703 443 OFFCURVE",
"1706 443 CURVE SMOOTH",
"1708 443 OFFCURVE",
"1710 445 OFFCURVE",
"1712 450 CURVE SMOOTH",
"1719 464 OFFCURVE",
"1732 495 OFFCURVE",
"1732 525 CURVE SMOOTH",
"1732 602 OFFCURVE",
"1660 633 OFFCURVE",
"1574 633 CURVE SMOOTH",
"1540 633 OFFCURVE",
"1504 628 OFFCURVE",
"1469 620 CURVE SMOOTH",
"1447 615 OFFCURVE",
"1422 607 OFFCURVE",
"1397 598 CURVE",
"1387 634 OFFCURVE",
"1359 660 OFFCURVE",
"1323 670 CURVE SMOOTH",
"1309 674 OFFCURVE",
"1291 677 OFFCURVE",
"1271 677 CURVE SMOOTH",
"1221 677 OFFCURVE",
"1154 660 OFFCURVE",
"1084 604 CURVE SMOOTH",
"1001 539 OFFCURVE",
"914 445 OFFCURVE",
"823 350 CURVE",
"729 346 OFFCURVE",
"631 339 OFFCURVE",
"534 330 CURVE SMOOTH",
"74 286 OFFCURVE",
"-53 195 OFFCURVE",
"-53 112 CURVE SMOOTH",
"-53 68 OFFCURVE",
"-18 27 OFFCURVE",
"23 -5 CURVE SMOOTH",
"50 -26 OFFCURVE",
"116 -47 OFFCURVE",
"199 -47 CURVE SMOOTH",
"252 -47 OFFCURVE",
"312 -38 OFFCURVE",
"375 -17 CURVE SMOOTH",
"520 33 OFFCURVE",
"647 145 OFFCURVE",
"768 266 CURVE",
"839 271 OFFCURVE",
"906 275 OFFCURVE",
"971 277 CURVE",
"933 217 OFFCURVE",
"916 160 OFFCURVE",
"916 109 CURVE SMOOTH",
"916 -7 OFFCURVE",
"1007 -90 OFFCURVE",
"1167 -90 CURVE SMOOTH",
"1204 -90 OFFCURVE",
"1243 -86 OFFCURVE",
"1286 -77 CURVE SMOOTH",
"1509 -30 OFFCURVE",
"1751 142 OFFCURVE",
"1785 238 CURVE SMOOTH"
);
},
{
closed = 1;
nodes = (
"1265 544 OFFCURVE",
"1129 460 OFFCURVE",
"1035 358 CURVE SMOOTH",
"1031 354 LINE",
"973 354 OFFCURVE",
"913 354 OFFCURVE",
"851 351 CURVE",
"930 433 OFFCURVE",
"1007 512 OFFCURVE",
"1086 575 CURVE SMOOTH",
"1167 639 OFFCURVE",
"1236 656 OFFCURVE",
"1285 656 CURVE SMOOTH",
"1341 656 OFFCURVE",
"1371 631 OFFCURVE",
"1379 591 CURVE"
);
},
{
closed = 1;
nodes = (
"621 144 OFFCURVE",
"497 36 OFFCURVE",
"371 -3 CURVE SMOOTH",
"310 -22 OFFCURVE",
"251 -30 OFFCURVE",
"202 -30 CURVE SMOOTH",
"143 -30 OFFCURVE",
"98 -19 OFFCURVE",
"80 -5 CURVE SMOOTH",
"56 13 OFFCURVE",
"31 40 OFFCURVE",
"31 70 CURVE SMOOTH",
"31 132 OFFCURVE",
"134 207 OFFCURVE",
"556 247 CURVE SMOOTH",
"621 254 OFFCURVE",
"682 259 OFFCURVE",
"739 264 CURVE"
);
}
);
width = 1788;
}
);
note = AE;
unicode = 00C6;
},
{
glyphname = B;
lastChange = "2021-11-16 05:32:14 +0000";
layers = (
{
hints = (
{
horizontal = 1;
place = "{-58, 52}";
type = Stem;
},
{
horizontal = 1;
place = "{327, 202}";
type = Stem;
},
{
horizontal = 1;
place = "{595, 73}";
type = Stem;
},
{
place = "{556, 92}";
type = Stem;
}
);
layerId = "F2190ACF-0345-4BD7-9FAD-2D95E96981D2";
paths = (
{
closed = 1;
nodes = (
"653 461 OFFCURVE",
"704 519 OFFCURVE",
"704 567 CURVE SMOOTH",
"704 626 OFFCURVE",
"626 668 OFFCURVE",
"486 668 CURVE SMOOTH",
"386 668 OFFCURVE",
"102 601 OFFCURVE",
"38 509 CURVE SMOOTH",
"36 505 OFFCURVE",
"34 500 OFFCURVE",
"34 493 CURVE SMOOTH",
"34 476 OFFCURVE",
"44 451 OFFCURVE",
"66 438 CURVE SMOOTH",
"70 435 OFFCURVE",
"75 434 OFFCURVE",
"75 437 CURVE SMOOTH",
"75 438 OFFCURVE",
"75 440 OFFCURVE",
"73 443 CURVE SMOOTH",
"69 450 OFFCURVE",
"74 458 OFFCURVE",
"84 466 CURVE SMOOTH",
"164 534 OFFCURVE",
"408 595 OFFCURVE",
"507 595 CURVE SMOOTH",
"605 595 OFFCURVE",
"647 569 OFFCURVE",
"647 534 CURVE SMOOTH",
"647 500 OFFCURVE",
"607 457 OFFCURVE",
"540 422 CURVE SMOOTH",
"432 366 OFFCURVE",
"310 343 OFFCURVE",
"191 323 CURVE",
"216 355 OFFCURVE",
"341 512 OFFCURVE",
"341 512 CURVE",
"342 519 OFFCURVE",
"336 529 OFFCURVE",
"328 529 CURVE SMOOTH",
"305 529 OFFCURVE",
"42 171 OFFCURVE",
"20 81 CURVE SMOOTH",
"19 78 OFFCURVE",
"19 75 OFFCURVE",
"19 73 CURVE SMOOTH",
"19 67 OFFCURVE",
"21 65 OFFCURVE",
"25 65 CURVE SMOOTH",
"31 65 OFFCURVE",
"39 71 OFFCURVE",
"42 79 CURVE",
"72 132 OFFCURVE",
"87 172 OFFCURVE",
"138 245 CURVE SMOOTH",
"168 289 OFFCURVE",
"276 321 OFFCURVE",
"357 328 CURVE SMOOTH",
"370 329 OFFCURVE",
"382 329 OFFCURVE",
"393 329 CURVE SMOOTH",
"505 329 OFFCURVE",
"555 282 OFFCURVE",
"555 223 CURVE SMOOTH",
"555 168 OFFCURVE",
"511 103 OFFCURVE",
"433 59 CURVE SMOOTH",
"345 9 OFFCURVE",
"224 -6 OFFCURVE",
"159 -6 CURVE SMOOTH",
"123 -6 OFFCURVE",
"93 -9 OFFCURVE",
"46 7 CURVE SMOOTH",
"42 9 OFFCURVE",
"33 12 OFFCURVE",
"28 12 CURVE SMOOTH",
"27 12 OFFCURVE",
"26 12 OFFCURVE",
"26 11 CURVE SMOOTH",
"26 9 OFFCURVE",
"29 5 OFFCURVE",
"38 -3 CURVE SMOOTH",
"59 -20 OFFCURVE",
"102 -58 OFFCURVE",
"222 -58 CURVE SMOOTH",
"270 -58 OFFCURVE",
"364 -52 OFFCURVE",
"451 -10 CURVE SMOOTH",
"572 50 OFFCURVE",
"647 145 OFFCURVE",
"647 222 CURVE SMOOTH",
"647 292 OFFCURVE",
"584 348 OFFCURVE",
"436 348 CURVE SMOOTH",
"415 348 OFFCURVE",
"391 346 OFFCURVE",
"366 344 CURVE",
"427 358 OFFCURVE",
"490 378 OFFCURVE",
"544 406 CURVE SMOOTH"
);
}
);
width = 643;
}
);
note = B;
unicode = 0042;
},
{
glyphname = C;
layers = (
{
hints = (
{
horizontal = 1;
place = "{-46, 45}";
type = Stem;
},
{
horizontal = 1;
place = "{297, 24}";
type = Stem;
},
{
horizontal = 1;
place = "{634, 31}";
type = Stem;
},
{
place = "{24, 28}";
type = Stem;
},
{
place = "{767, 102}";
type = Stem;
}
);
layerId = "F2190ACF-0345-4BD7-9FAD-2D95E96981D2";
paths = (
{
closed = 1;
nodes = (
"868 642 OFFCURVE",
"776 665 OFFCURVE",
"716 665 CURVE SMOOTH",
"531 665 OFFCURVE",
"304 547 OFFCURVE",
"169 425 CURVE SMOOTH",
"96 359 OFFCURVE",
"24 263 OFFCURVE",
"24 160 CURVE SMOOTH",
"24 14 OFFCURVE",
"162 -46 OFFCURVE",
"290 -46 CURVE SMOOTH",
"439 -46 OFFCURVE",
"646 26 OFFCURVE",
"750 138 CURVE",
"752 141 OFFCURVE",
"754 144 OFFCURVE",
"754 147 CURVE SMOOTH",
"754 149 OFFCURVE",
"753 153 OFFCURVE",
"749 153 CURVE SMOOTH",
"747 153 OFFCURVE",
"746 152 OFFCURVE",
"744 151 CURVE",
"638 65 OFFCURVE",
"545 32 OFFCURVE",
"411 8 CURVE SMOOTH",
"377 3 OFFCURVE",
"342 -1 OFFCURVE",
"308 -1 CURVE SMOOTH",
"198 -1 OFFCURVE",
"52 42 OFFCURVE",
"52 176 CURVE SMOOTH",
"52 266 OFFCURVE",
"122 352 OFFCURVE",
"184 410 CURVE SMOOTH",
"303 521 OFFCURVE",
"502 635 OFFCURVE",
"669 635 CURVE SMOOTH",
"703 635 OFFCURVE",
"766 627 OFFCURVE",
"766 580 CURVE SMOOTH",
"766 477 OFFCURVE",
"466 321 OFFCURVE",
"371 321 CURVE SMOOTH",
"359 321 OFFCURVE",
"351 325 OFFCURVE",
"346 325 CURVE SMOOTH",
"343 325 OFFCURVE",
"340 323 OFFCURVE",
"340 320 CURVE SMOOTH",
"340 300 OFFCURVE",
"405 297 OFFCURVE",
"418 297 CURVE SMOOTH",
"427 297 OFFCURVE",
"436 297 OFFCURVE",
"446 298 CURVE SMOOTH",
"561 308 OFFCURVE",
"868 429 OFFCURVE",
"868 567 CURVE SMOOTH"
);
}
);
width = 719;
}
);
note = C;
unicode = 0043;
},
{
glyphname = D;
lastChange = "2021-11-16 05:32:14 +0000";
layers = (
{
hints = (
{
horizontal = 1;
place = "{-59, 56}";
type = Stem;
},
{
horizontal = 1;
place = "{580, 70}";
type = Stem;
},
{
place = "{15, 21}";
type = Stem;
},
{
place = "{890, 21}";
type = Stem;
}
);
layerId = "F2190ACF-0345-4BD7-9FAD-2D95E96981D2";
paths = (
{
closed = 1;
nodes = (
"590 49 OFFCURVE",
"378 -3 OFFCURVE",
"225 -3 CURVE SMOOTH",
"146 -3 OFFCURVE",
"60 4 OFFCURVE",
"10 39 CURVE SMOOTH",
"3 44 OFFCURVE",
"-1 46 OFFCURVE",
"-4 46 CURVE SMOOTH",
"-5 46 OFFCURVE",
"-6 46 OFFCURVE",
"-6 44 CURVE SMOOTH",
"-6 42 OFFCURVE",
"-4 37 OFFCURVE",
"-1 31 CURVE SMOOTH",
"31 -32 OFFCURVE",
"131 -59 OFFCURVE",
"250 -59 CURVE SMOOTH",
"382 -59 OFFCURVE",
"537 -25 OFFCURVE",
"647 30 CURVE SMOOTH",
"818 117 OFFCURVE",
"911 263 OFFCURVE",
"911 392 CURVE SMOOTH",
"911 531 OFFCURVE",
"802 650 OFFCURVE",
"565 650 CURVE SMOOTH",
"382 650 OFFCURVE",
"174 586 OFFCURVE",
"72 505 CURVE SMOOTH",
"29 471 OFFCURVE",
"15 430 OFFCURVE",
"15 394 CURVE SMOOTH",
"15 358 OFFCURVE",
"28 327 OFFCURVE",
"40 314 CURVE SMOOTH",
"46 308 OFFCURVE",
"51 312 OFFCURVE",
"51 317 CURVE SMOOTH",
"51 320 OFFCURVE",
"50 323 OFFCURVE",
"48 325 CURVE SMOOTH",
"40 336 OFFCURVE",
"36 347 OFFCURVE",
"36 359 CURVE SMOOTH",
"36 449 OFFCURVE",
"271 561 OFFCURVE",
"483 580 CURVE SMOOTH",
"508 582 OFFCURVE",
"533 583 OFFCURVE",
"557 583 CURVE SMOOTH",
"756 583 OFFCURVE",
"890 503 OFFCURVE",
"890 389 CURVE SMOOTH",
"890 320 OFFCURVE",
"842 240 OFFCURVE",
"731 156 CURVE SMOOTH"
);
},
{
closed = 1;
nodes = (
"470 538 OFFCURVE",
"472 542 OFFCURVE",
"472 545 CURVE SMOOTH",
"472 549 OFFCURVE",
"467 550 OFFCURVE",
"461 550 CURVE SMOOTH",
"457 550 OFFCURVE",
"454 550 OFFCURVE",
"452 550 CURVE SMOOTH",
"428 550 OFFCURVE",
"142 156 OFFCURVE",
"142 90 CURVE SMOOTH",
"142 81 OFFCURVE",
"145 76 OFFCURVE",
"149 76 CURVE SMOOTH",
"152 76 OFFCURVE",
"155 78 OFFCURVE",
"157 83 CURVE SMOOTH",
"194 181 OFFCURVE",
"352 409 OFFCURVE",
"464 532 CURVE SMOOTH"
);
}
);
width = 843;
}
);
note = D;
unicode = 0044;
},
{
glyphname = Eth;
layers = (
{
layerId = "F2190ACF-0345-4BD7-9FAD-2D95E96981D2";
paths = (
{
closed = 1;
nodes = (
"586 46 OFFCURVE",
"366 -6 OFFCURVE",
"212 -3 CURVE SMOOTH",
"137 -1 OFFCURVE",
"57 6 OFFCURVE",
"10 39 CURVE SMOOTH",
"-5 50 OFFCURVE",
"-11 50 OFFCURVE",
"-1 31 CURVE SMOOTH",
"66 -102 OFFCURVE",
"439 -75 OFFCURVE",
"647 30 CURVE SMOOTH",
"1002 210 OFFCURVE",
"1022 650 OFFCURVE",
"565 650 CURVE SMOOTH",
"382 650 OFFCURVE",
"174 586 OFFCURVE",
"72 505 CURVE SMOOTH",
"-14 438 OFFCURVE",
"16 341 OFFCURVE",
"40 314 CURVE SMOOTH",
"49 305 OFFCURVE",
"54 317 OFFCURVE",
"48 325 CURVE SMOOTH",
"-26 419 OFFCURVE",
"244 558 OFFCURVE",
"483 580 CURVE SMOOTH",
"849 614 OFFCURVE",
"1050 396 OFFCURVE",
"731 156 CURVE SMOOTH"
);
},
{
closed = 1;
nodes = (
"484 554 OFFCURVE",
"460 550 OFFCURVE",
"452 550 CURVE SMOOTH",
"439 550 OFFCURVE",
"364 445 OFFCURVE",
"270 316 CURVE",
"237 310 OFFCURVE",
"160 293 OFFCURVE",
"109 280 CURVE SMOOTH",
"95 276 OFFCURVE",
"81 220 OFFCURVE",
"95 225 CURVE SMOOTH",
"134 237 OFFCURVE",
"204 257 OFFCURVE",
"236 268 CURVE",
"178 186 OFFCURVE",
"151 134 OFFCURVE",
"143 101 CURVE SMOOTH",
"137 76 OFFCURVE",
"151 69 OFFCURVE",
"157 83 CURVE SMOOTH",
"174 129 OFFCURVE",
"204 190 OFFCURVE",
"268 279 CURVE",
"304 291 OFFCURVE",
"407 312 OFFCURVE",
"454 321 CURVE SMOOTH",
"468 324 OFFCURVE",
"468 340 OFFCURVE",
"455 339 CURVE SMOOTH",
"439 339 OFFCURVE",
"347 328 OFFCURVE",
"298 321 CURVE",
"362 407 OFFCURVE",
"413 476 OFFCURVE",
"464 532 CURVE SMOOTH"
);
}
);
width = 843;
}
);
note = Eth;
unicode = 00D0;
},
{
glyphname = E;
lastChange = "2021-11-16 05:32:14 +0000";
layers = (
{
hints = (
{
horizontal = 1;
place = "{-53, 44}";
type = Stem;
},
{
horizontal = 1;
place = "{311, 46}";
type = Stem;
},
{
horizontal = 1;
place = "{575, 96}";
type = Stem;
},
{
place = "{813, 19}";
type = Stem;
}
);
layerId = "F2190ACF-0345-4BD7-9FAD-2D95E96981D2";
paths = (
{
closed = 1;
nodes = (
"887 281 OFFCURVE",
"887 284 OFFCURVE",
"887 287 CURVE SMOOTH",
"887 289 OFFCURVE",
"887 290 OFFCURVE",
"886 290 CURVE SMOOTH",
"884 290 OFFCURVE",
"880 285 OFFCURVE",
"874 277 CURVE SMOOTH",
"781 143 OFFCURVE",
"564 35 OFFCURVE",
"375 1 CURVE SMOOTH",
"335 -6 OFFCURVE",
"297 -10 OFFCURVE",
"263 -10 CURVE SMOOTH",
"131 -10 OFFCURVE",
"46 41 OFFCURVE",
"46 125 CURVE SMOOTH",
"46 181 OFFCURVE",
"85 253 OFFCURVE",
"173 335 CURVE SMOOTH",
"306 459 OFFCURVE",
"593 575 OFFCURVE",
"733 575 CURVE SMOOTH",
"782 575 OFFCURVE",
"813 560 OFFCURVE",
"813 527 CURVE SMOOTH",
"813 517 OFFCURVE",
"810 505 OFFCURVE",
"804 492 CURVE SMOOTH",
"801 486 OFFCURVE",
"803 481 OFFCURVE",
"806 481 CURVE SMOOTH",
"808 481 OFFCURVE",
"810 483 OFFCURVE",
"812 487 CURVE SMOOTH",
"819 502 OFFCURVE",
"832 532 OFFCURVE",
"832 562 CURVE SMOOTH",
"832 640 OFFCURVE",
"759 671 OFFCURVE",
"673 671 CURVE SMOOTH",
"639 671 OFFCURVE",
"603 666 OFFCURVE",
"569 658 CURVE SMOOTH",
"444 628 OFFCURVE",
"256 525 OFFCURVE",
"135 395 CURVE SMOOTH",
"53 307 OFFCURVE",
"16 220 OFFCURVE",
"16 146 CURVE SMOOTH",
"16 30 OFFCURVE",
"107 -53 OFFCURVE",
"267 -53 CURVE SMOOTH",
"304 -53 OFFCURVE",
"343 -49 OFFCURVE",
"386 -40 CURVE SMOOTH",
"609 8 OFFCURVE",
"851 179 OFFCURVE",
"885 275 CURVE SMOOTH"
);
},
{
closed = 1;
nodes = (
"533 341 OFFCURVE",
"434 357 OFFCURVE",
"350 357 CURVE SMOOTH",
"318 357 OFFCURVE",
"288 354 OFFCURVE",
"264 350 CURVE SMOOTH",
"192 337 OFFCURVE",
"175 316 OFFCURVE",
"175 300 CURVE SMOOTH",
"175 289 OFFCURVE",
"182 281 OFFCURVE",
"187 279 CURVE SMOOTH",
"192 276 OFFCURVE",
"198 275 OFFCURVE",
"205 275 CURVE SMOOTH",
"226 275 OFFCURVE",
"257 286 OFFCURVE",
"290 293 CURVE SMOOTH",
"342 304 OFFCURVE",
"393 310 OFFCURVE",
"437 310 CURVE SMOOTH",
"487 310 OFFCURVE",
"528 302 OFFCURVE",
"551 286 CURVE SMOOTH",
"557 282 OFFCURVE",
"561 281 OFFCURVE",
"565 281 CURVE SMOOTH",
"570 281 OFFCURVE",
"573 284 OFFCURVE",
"573 289 CURVE SMOOTH",
"573 293 OFFCURVE",
"571 298 OFFCURVE",
"567 303 CURVE SMOOTH"
);
}
);
width = 834;
}
);
note = E;
unicode = 0045;
},
{
glyphname = F;
lastChange = "2021-11-16 05:32:14 +0000";
layers = (
{
hints = (
{
horizontal = 1;
place = "{315, 46}";
type = Stem;
},
{
horizontal = 1;
place = "{581, 82}";
type = Stem;
},
{
place = "{-2, 21}";
type = Stem;
},
{
place = "{363, 27}";
type = Stem;
},
{
place = "{692, 77}";
type = Stem;
}
);
layerId = "F2190ACF-0345-4BD7-9FAD-2D95E96981D2";
paths = (
{
closed = 1;
nodes = (
"728 422 OFFCURVE",
"769 491 OFFCURVE",
"769 549 CURVE SMOOTH",
"769 613 OFFCURVE",
"721 663 OFFCURVE",
"574 663 CURVE SMOOTH",
"425 663 OFFCURVE",
"213 615 OFFCURVE",
"76 537 CURVE SMOOTH",
"23 507 OFFCURVE",
"-2 462 OFFCURVE",
"-2 425 CURVE SMOOTH",
"-2 401 OFFCURVE",
"8 380 OFFCURVE",
"27 367 CURVE SMOOTH",
"30 365 OFFCURVE",
"35 364 OFFCURVE",
"38 364 CURVE SMOOTH",
"41 364 OFFCURVE",
"43 365 OFFCURVE",
"43 366 CURVE SMOOTH",
"43 367 OFFCURVE",
"42 368 OFFCURVE",
"41 369 CURVE SMOOTH",
"26 379 OFFCURVE",
"19 390 OFFCURVE",
"19 400 CURVE SMOOTH",
"19 475 OFFCURVE",
"356 552 OFFCURVE",
"393 560 CURVE SMOOTH",
"451 573 OFFCURVE",
"510 581 OFFCURVE",
"559 581 CURVE SMOOTH",
"636 581 OFFCURVE",
"692 560 OFFCURVE",
"692 500 CURVE SMOOTH",
"692 463 OFFCURVE",
"671 411 OFFCURVE",
"620 340 CURVE",
"574 355 OFFCURVE",
"513 361 OFFCURVE",
"458 361 CURVE SMOOTH",
"426 361 OFFCURVE",
"397 359 OFFCURVE",
"374 355 CURVE SMOOTH",
"303 341 OFFCURVE",
"285 320 OFFCURVE",
"285 305 CURVE SMOOTH",
"285 294 OFFCURVE",
"293 286 OFFCURVE",
"297 284 CURVE SMOOTH",
"302 281 OFFCURVE",
"308 280 OFFCURVE",
"315 280 CURVE SMOOTH",
"337 280 OFFCURVE",
"367 291 OFFCURVE",
"400 298 CURVE SMOOTH",
"452 309 OFFCURVE",
"503 315 OFFCURVE",
"548 315 CURVE SMOOTH",
"566 315 OFFCURVE",
"583 314 OFFCURVE",
"599 312 CURVE",
"528 218 OFFCURVE",
"427 102 OFFCURVE",
"375 7 CURVE SMOOTH",
"368 -6 OFFCURVE",
"363 -24 OFFCURVE",
"363 -40 CURVE SMOOTH",
"363 -66 OFFCURVE",
"374 -90 OFFCURVE",
"405 -90 CURVE SMOOTH",
"412 -90 OFFCURVE",
"421 -88 OFFCURVE",
"431 -85 CURVE SMOOTH",
"436 -83 OFFCURVE",
"439 -80 OFFCURVE",
"439 -77 CURVE SMOOTH",
"439 -75 OFFCURVE",
"438 -74 OFFCURVE",
"435 -74 CURVE SMOOTH",
"434 -74 OFFCURVE",
"432 -75 OFFCURVE",
"431 -75 CURVE SMOOTH",
"425 -77 OFFCURVE",
"419 -78 OFFCURVE",
"415 -78 CURVE SMOOTH",
"395 -78 OFFCURVE",
"390 -61 OFFCURVE",
"390 -42 CURVE SMOOTH",
"390 7 OFFCURVE",
"431 56 OFFCURVE",
"458 93 CURVE SMOOTH",
"503 154 OFFCURVE",
"574 237 OFFCURVE",
"631 305 CURVE",
"643 301 OFFCURVE",
"653 297 OFFCURVE",
"662 291 CURVE SMOOTH",
"668 287 OFFCURVE",
"672 286 OFFCURVE",
"676 286 CURVE SMOOTH",
"681 286 OFFCURVE",
"684 289 OFFCURVE",
"684 293 CURVE SMOOTH",
"684 298 OFFCURVE",
"681 303 OFFCURVE",
"677 308 CURVE SMOOTH",
"670 315 OFFCURVE",
"661 322 OFFCURVE",
"650 328 CURVE",
"664 344 OFFCURVE",
"676 359 OFFCURVE",
"687 372 CURVE SMOOTH"
);
}
);
width = 665;
}
);
note = F;
unicode = 0046;
},
{
glyphname = G;
lastChange = "2021-11-16 05:32:14 +0000";
layers = (
{
hints = (
{
horizontal = 1;
place = "{-248, 18}";
type = Stem;
},
{
horizontal = 1;
place = "{-62, 44}";
type = Stem;
},
{
horizontal = 1;
place = "{291, 23}";
type = Stem;
},
{
horizontal = 1;
place = "{566, 96}";
type = Stem;
},
{
place = "{804, 19}";
type = Stem;
}
);
layerId = "F2190ACF-0345-4BD7-9FAD-2D95E96981D2";
paths = (
{
closed = 1;
nodes = (
"888 308 OFFCURVE",
"874 314 OFFCURVE",
"857 314 CURVE SMOOTH",
"837 314 OFFCURVE",
"815 306 OFFCURVE",
"793 290 CURVE SMOOTH",
"786 284 OFFCURVE",
"783 278 OFFCURVE",
"783 273 CURVE SMOOTH",
"783 270 OFFCURVE",
"784 268 OFFCURVE",
"788 268 CURVE SMOOTH",
"792 268 OFFCURVE",
"797 270 OFFCURVE",
"803 275 CURVE SMOOTH",
"815 285 OFFCURVE",
"828 291 OFFCURVE",
"838 291 CURVE SMOOTH",
"845 291 OFFCURVE",
"850 287 OFFCURVE",
"850 278 CURVE SMOOTH",
"850 265 OFFCURVE",
"845 251 OFFCURVE",
"840 236 CURVE",
"737 117 OFFCURVE",
"540 23 OFFCURVE",
"366 -8 CURVE SMOOTH",
"326 -15 OFFCURVE",
"289 -18 OFFCURVE",
"255 -18 CURVE SMOOTH",
"122 -18 OFFCURVE",
"37 32 OFFCURVE",
"37 116 CURVE SMOOTH",
"37 172 OFFCURVE",
"76 244 OFFCURVE",
"164 326 CURVE SMOOTH",
"297 450 OFFCURVE",
"584 566 OFFCURVE",
"724 566 CURVE SMOOTH",
"773 566 OFFCURVE",
"804 551 OFFCURVE",
"804 518 CURVE SMOOTH",
"804 509 OFFCURVE",
"801 497 OFFCURVE",
"795 484 CURVE SMOOTH",
"792 478 OFFCURVE",
"794 472 OFFCURVE",
"797 472 CURVE SMOOTH",
"799 472 OFFCURVE",
"801 474 OFFCURVE",
"803 478 CURVE SMOOTH",
"810 493 OFFCURVE",
"823 523 OFFCURVE",
"823 553 CURVE SMOOTH",
"823 631 OFFCURVE",
"750 662 OFFCURVE",
"665 662 CURVE SMOOTH",
"631 662 OFFCURVE",
"595 657 OFFCURVE",
"560 649 CURVE SMOOTH",
"435 619 OFFCURVE",
"247 517 OFFCURVE",
"126 387 CURVE SMOOTH",
"44 299 OFFCURVE",
"7 212 OFFCURVE",
"7 137 CURVE SMOOTH",
"7 22 OFFCURVE",
"98 -62 OFFCURVE",
"258 -62 CURVE SMOOTH",
"294 -62 OFFCURVE",
"334 -57 OFFCURVE",
"377 -48 CURVE SMOOTH",
"548 -12 OFFCURVE",
"730 97 OFFCURVE",
"821 190 CURVE",
"786 115 OFFCURVE",
"723 21 OFFCURVE",
"648 -62 CURVE SMOOTH",
"585 -130 OFFCURVE",
"494 -231 OFFCURVE",
"387 -231 CURVE SMOOTH",
"311 -231 OFFCURVE",
"245 -178 OFFCURVE",
"231 -102 CURVE SMOOTH",
"230 -98 OFFCURVE",
"227 -95 OFFCURVE",
"224 -95 CURVE SMOOTH",
"222 -95 OFFCURVE",
"221 -97 OFFCURVE",
"221 -100 CURVE SMOOTH",
"221 -101 OFFCURVE",
"221 -102 OFFCURVE",
"221 -103 CURVE SMOOTH",
"237 -208 OFFCURVE",
"318 -248 OFFCURVE",
"416 -248 CURVE SMOOTH",
"522 -248 OFFCURVE",
"625 -187 OFFCURVE",
"698 -110 CURVE SMOOTH",
"752 -53 OFFCURVE",
"909 165 OFFCURVE",
"909 262 CURVE SMOOTH",
"909 276 OFFCURVE",
"906 288 OFFCURVE",
"899 296 CURVE SMOOTH"
);
}
);
width = 912;
}
);
note = G;
unicode = 0047;
},
{
glyphname = H;
lastChange = "2021-11-16 05:32:14 +0000";
layers = (
{
hints = (
{
horizontal = 1;
place = "{655, -20}";
target = down;
type = TopGhost;
},
{
place = "{26, 35}";
type = Stem;
}
);
layerId = "F2190ACF-0345-4BD7-9FAD-2D95E96981D2";
paths = (
{
closed = 1;
nodes = (
"1053 639 OFFCURVE",
"1056 646 OFFCURVE",
"1056 649 CURVE SMOOTH",
"1056 654 OFFCURVE",
"1051 655 OFFCURVE",
"1047 655 CURVE SMOOTH",
"1044 655 OFFCURVE",
"1040 655 OFFCURVE",
"1038 655 CURVE SMOOTH",
"1016 655 OFFCURVE",
"686 144 OFFCURVE",
"639 9 CURVE SMOOTH",
"635 -3 OFFCURVE",
"633 -13 OFFCURVE",
"633 -19 CURVE SMOOTH",
"633 -26 OFFCURVE",
"635 -30 OFFCURVE",
"638 -30 CURVE SMOOTH",
"640 -30 OFFCURVE",
"644 -26 OFFCURVE",
"647 -19 CURVE SMOOTH",
"710 129 OFFCURVE",
"904 444 OFFCURVE",
"1045 629 CURVE SMOOTH"
);
},
{
closed = 1;
nodes = (
"705 240 OFFCURVE",
"612 265 OFFCURVE",
"564 275 CURVE SMOOTH",
"533 281 OFFCURVE",
"502 285 OFFCURVE",
"471 287 CURVE",
"531 379 OFFCURVE",
"593 468 OFFCURVE",
"644 536 CURVE SMOOTH",
"652 546 OFFCURVE",
"655 553 OFFCURVE",
"655 556 CURVE SMOOTH",
"655 561 OFFCURVE",
"650 562 OFFCURVE",
"646 562 CURVE SMOOTH",
"643 562 OFFCURVE",
"639 562 OFFCURVE",
"637 562 CURVE SMOOTH",
"626 562 OFFCURVE",
"538 434 OFFCURVE",
"444 288 CURVE",
"386 289 OFFCURVE",
"328 283 OFFCURVE",
"272 273 CURVE SMOOTH",
"100 243 OFFCURVE",
"26 169 OFFCURVE",
"26 104 CURVE SMOOTH",
"26 75 OFFCURVE",
"41 47 OFFCURVE",
"69 26 CURVE",
"71 24 OFFCURVE",
"75 23 OFFCURVE",
"78 23 CURVE SMOOTH",
"80 23 OFFCURVE",
"82 23 OFFCURVE",
"82 24 CURVE SMOOTH",
"82 25 OFFCURVE",
"81 26 OFFCURVE",
"80 27 CURVE SMOOTH",
"67 37 OFFCURVE",
"61 48 OFFCURVE",
"61 62 CURVE SMOOTH",
"61 106 OFFCURVE",
"137 166 OFFCURVE",
"309 196 CURVE SMOOTH",
"336 201 OFFCURVE",
"365 205 OFFCURVE",
"394 209 CURVE",
"313 77 OFFCURVE",
"237 -54 OFFCURVE",
"217 -112 CURVE SMOOTH",
"213 -124 OFFCURVE",
"211 -134 OFFCURVE",
"211 -140 CURVE SMOOTH",
"211 -147 OFFCURVE",
"213 -151 OFFCURVE",
"216 -151 CURVE SMOOTH",
"218 -151 OFFCURVE",
"222 -147 OFFCURVE",
"225 -140 CURVE SMOOTH",
"258 -61 OFFCURVE",
"336 75 OFFCURVE",
"422 211 CURVE",
"459 215 OFFCURVE",
"497 217 OFFCURVE",
"533 217 CURVE SMOOTH",
"555 217 OFFCURVE",
"577 216 OFFCURVE",
"598 214 CURVE SMOOTH",
"621 212 OFFCURVE",
"699 203 OFFCURVE",
"708 180 CURVE SMOOTH",
"710 174 OFFCURVE",
"715 172 OFFCURVE",
"714 182 CURVE SMOOTH"
);
}
);
width = 812;
}
);
note = H;
unicode = 0048;
},
{
glyphname = I;
lastChange = "2021-11-16 05:32:14 +0000";
layers = (
{
hints = (
{
horizontal = 1;
place = "{575, 68}";
type = Stem;
},
{
place = "{82, 23}";
type = Stem;
}
);
layerId = "F2190ACF-0345-4BD7-9FAD-2D95E96981D2";
paths = (
{
closed = 1;
nodes = (
"760 517 OFFCURVE",
"760 522 OFFCURVE",
"760 527 CURVE SMOOTH",
"760 620 OFFCURVE",
"622 643 OFFCURVE",
"552 643 CURVE SMOOTH",
"420 643 OFFCURVE",
"249 606 OFFCURVE",
"143 545 CURVE SMOOTH",
"99 520 OFFCURVE",
"82 484 OFFCURVE",
"82 451 CURVE SMOOTH",
"82 418 OFFCURVE",
"99 387 OFFCURVE",
"123 371 CURVE",
"126 368 OFFCURVE",
"130 367 OFFCURVE",
"133 367 CURVE SMOOTH",
"136 367 OFFCURVE",
"138 368 OFFCURVE",
"138 369 CURVE SMOOTH",
"138 370 OFFCURVE",
"138 371 OFFCURVE",
"136 372 CURVE SMOOTH",
"114 387 OFFCURVE",
"104 402 OFFCURVE",
"104 417 CURVE SMOOTH",
"104 500 OFFCURVE",
"408 575 OFFCURVE",
"599 575 CURVE SMOOTH",
"687 575 OFFCURVE",
"752 559 OFFCURVE",
"752 520 CURVE SMOOTH",
"752 517 OFFCURVE",
"752 514 OFFCURVE",
"751 511 CURVE SMOOTH",
"750 506 OFFCURVE",
"752 503 OFFCURVE",
"754 503 CURVE SMOOTH",
"756 503 OFFCURVE",
"759 506 OFFCURVE",
"759 512 CURVE SMOOTH"
);
},
{
closed = 1;
nodes = (
"652 546 OFFCURVE",
"655 553 OFFCURVE",
"655 556 CURVE SMOOTH",
"655 561 OFFCURVE",
"650 562 OFFCURVE",
"646 562 CURVE SMOOTH",
"643 562 OFFCURVE",
"639 562 OFFCURVE",
"637 562 CURVE SMOOTH",
"621 562 OFFCURVE",
"438 287 OFFCURVE",
"317 81 CURVE",
"302 82 OFFCURVE",
"287 82 OFFCURVE",
"272 82 CURVE SMOOTH",
"223 82 OFFCURVE",
"179 78 OFFCURVE",
"150 70 CURVE SMOOTH",
"34 42 OFFCURVE",
"8 -10 OFFCURVE",
"8 -40 CURVE SMOOTH",
"8 -51 OFFCURVE",
"11 -59 OFFCURVE",
"15 -62 CURVE SMOOTH",
"20 -66 OFFCURVE",
"26 -67 OFFCURVE",
"34 -67 CURVE SMOOTH",
"69 -67 OFFCURVE",
"130 -32 OFFCURVE",
"178 -19 CURVE SMOOTH",
"206 -11 OFFCURVE",
"237 -5 OFFCURVE",
"270 -2 CURVE",
"245 -49 OFFCURVE",
"226 -87 OFFCURVE",
"217 -112 CURVE SMOOTH",
"213 -124 OFFCURVE",
"211 -134 OFFCURVE",
"211 -140 CURVE SMOOTH",
"211 -147 OFFCURVE",
"213 -151 OFFCURVE",
"216 -151 CURVE SMOOTH",
"218 -151 OFFCURVE",
"222 -147 OFFCURVE",
"225 -140 CURVE SMOOTH",
"240 -103 OFFCURVE",
"265 -55 OFFCURVE",
"295 -1 CURVE",
"307 0 OFFCURVE",
"319 0 OFFCURVE",
"331 0 CURVE SMOOTH",
"452 0 OFFCURVE",
"566 -31 OFFCURVE",
"554 -83 CURVE SMOOTH",
"553 -89 OFFCURVE",
"555 -93 OFFCURVE",
"557 -93 CURVE SMOOTH",
"561 -93 OFFCURVE",
"565 -85 OFFCURVE",
"565 -66 CURVE SMOOTH",
"565 27 OFFCURVE",
"454 68 OFFCURVE",
"341 79 CURVE",
"433 234 OFFCURVE",
"554 417 OFFCURVE",
"644 536 CURVE SMOOTH"
);
}
);
width = 595;
}
);
note = I;
unicode = 0049;
},
{
glyphname = J;
lastChange = "2021-11-16 05:32:14 +0000";
layers = (
{
hints = (
{
horizontal = 1;
place = "{-320, 37}";
type = Stem;
},
{
horizontal = 1;
place = "{51, 11}";
type = Stem;
},
{
horizontal = 1;
place = "{198, 56}";
type = Stem;
},
{
horizontal = 1;
place = "{623, 47}";
type = Stem;
},
{
place = "{-174, 68}";
type = Stem;
}
);
layerId = "F2190ACF-0345-4BD7-9FAD-2D95E96981D2";
paths = (
{
closed = 1;
nodes = (
"739 633 OFFCURVE",
"680 670 OFFCURVE",
"609 670 CURVE SMOOTH",
"573 670 OFFCURVE",
"535 661 OFFCURVE",
"498 642 CURVE SMOOTH",
"335 559 OFFCURVE",
"173 362 OFFCURVE",
"150 183 CURVE",
"51 126 OFFCURVE",
"-57 39 OFFCURVE",
"-119 -57 CURVE SMOOTH",
"-157 -115 OFFCURVE",
"-174 -167 OFFCURVE",
"-174 -209 CURVE SMOOTH",
"-174 -277 OFFCURVE",
"-129 -320 OFFCURVE",
"-53 -320 CURVE SMOOTH",
"-11 -320 OFFCURVE",
"42 -307 OFFCURVE",
"102 -277 CURVE SMOOTH",
"389 -134 OFFCURVE",
"754 327 OFFCURVE",
"754 534 CURVE SMOOTH",
"754 542 OFFCURVE",
"753 550 OFFCURVE",
"752 557 CURVE SMOOTH"
);
},
{
closed = 1;
nodes = (
"690 302 OFFCURVE",
"329 -155 OFFCURVE",
"73 -262 CURVE SMOOTH",
"40 -276 OFFCURVE",
"6 -283 OFFCURVE",
"-22 -283 CURVE SMOOTH",
"-70 -283 OFFCURVE",
"-105 -263 OFFCURVE",
"-105 -222 CURVE SMOOTH",
"-105 -196 OFFCURVE",
"-91 -161 OFFCURVE",
"-57 -117 CURVE SMOOTH",
"3 -40 OFFCURVE",
"86 21 OFFCURVE",
"167 76 CURVE",
"176 65 OFFCURVE",
"187 58 OFFCURVE",
"198 55 CURVE SMOOTH",
"210 52 OFFCURVE",
"219 51 OFFCURVE",
"224 51 CURVE SMOOTH",
"232 51 OFFCURVE",
"235 53 OFFCURVE",
"235 56 CURVE SMOOTH",
"235 58 OFFCURVE",
"231 62 OFFCURVE",
"228 62 CURVE SMOOTH",
"215 63 OFFCURVE",
"202 71 OFFCURVE",
"193 93 CURVE",
"286 153 OFFCURVE",
"384 199 OFFCURVE",
"447 199 CURVE SMOOTH",
"454 199 OFFCURVE",
"460 198 OFFCURVE",
"466 197 CURVE SMOOTH",
"471 196 OFFCURVE",
"474 194 OFFCURVE",
"476 194 CURVE SMOOTH",
"477 194 OFFCURVE",
"478 195 OFFCURVE",
"478 197 CURVE SMOOTH",
"478 199 OFFCURVE",
"478 202 OFFCURVE",
"476 208 CURVE SMOOTH",
"469 235 OFFCURVE",
"442 250 OFFCURVE",
"406 253 CURVE SMOOTH",
"398 254 OFFCURVE",
"389 254 OFFCURVE",
"381 254 CURVE SMOOTH",
"318 254 OFFCURVE",
"253 235 OFFCURVE",
"190 204 CURVE",
"214 386 OFFCURVE",
"331 546 OFFCURVE",
"514 608 CURVE SMOOTH",
"544 618 OFFCURVE",
"570 623 OFFCURVE",
"592 623 CURVE SMOOTH",
"659 623 OFFCURVE",
"690 578 OFFCURVE",
"690 513 CURVE SMOOTH"
);
}
);
width = 675;
}
);
note = J;
unicode = 004A;
},
{
glyphname = K;
lastChange = "2021-11-16 05:32:14 +0000";
layers = (
{
hints = (
{
horizontal = 1;
place = "{274, 26}";
type = Stem;
},
{
horizontal = 1;
place = "{663, -20}";
target = down;
type = TopGhost;
},
{
place = "{553, 98}";
type = Stem;
}
);
layerId = "F2190ACF-0345-4BD7-9FAD-2D95E96981D2";
paths = (
{
closed = 1;
nodes = (
"712 648 OFFCURVE",
"294 351 OFFCURVE",
"194 259 CURVE SMOOTH",
"187 252 OFFCURVE",
"183 248 OFFCURVE",
"183 245 CURVE SMOOTH",
"183 242 OFFCURVE",
"186 241 OFFCURVE",
"191 241 CURVE SMOOTH",
"200 241 OFFCURVE",
"218 245 OFFCURVE",
"245 253 CURVE SMOOTH",
"291 267 OFFCURVE",
"332 274 OFFCURVE",
"369 274 CURVE SMOOTH",
"487 274 OFFCURVE",
"553 206 OFFCURVE",
"553 122 CURVE SMOOTH",
"553 66 OFFCURVE",
"523 2 OFFCURVE",
"461 -54 CURVE SMOOTH",
"426 -85 OFFCURVE",
"420 -95 OFFCURVE",
"427 -95 CURVE SMOOTH",
"432 -95 OFFCURVE",
"444 -90 OFFCURVE",
"456 -84 CURVE SMOOTH",
"592 -19 OFFCURVE",
"651 65 OFFCURVE",
"651 138 CURVE SMOOTH",
"651 227 OFFCURVE",
"563 300 OFFCURVE",
"418 300 CURVE SMOOTH",
"366 300 OFFCURVE",
"307 290 OFFCURVE",
"242 269 CURVE",
"369 366 OFFCURVE",
"620 556 OFFCURVE",
"856 638 CURVE SMOOTH",
"865 642 OFFCURVE",
"872 650 OFFCURVE",
"872 656 CURVE SMOOTH",
"872 660 OFFCURVE",
"869 663 OFFCURVE",
"861 663 CURVE SMOOTH",
"859 663 OFFCURVE",
"858 663 OFFCURVE",
"856 663 CURVE SMOOTH"
);
},
{
closed = 1;
nodes = (
"398 574 OFFCURVE",
"401 581 OFFCURVE",
"401 587 CURVE SMOOTH",
"401 600 OFFCURVE",
"387 605 OFFCURVE",
"372 605 CURVE SMOOTH",
"361 605 OFFCURVE",
"349 602 OFFCURVE",
"343 597 CURVE SMOOTH",
"268 536 OFFCURVE",
"14 53 OFFCURVE",
"-23 -54 CURVE SMOOTH",
"-28 -67 OFFCURVE",
"-29 -76 OFFCURVE",
"-29 -82 CURVE SMOOTH",
"-29 -89 OFFCURVE",
"-28 -92 OFFCURVE",
"-25 -92 CURVE SMOOTH",
"-22 -92 OFFCURVE",
"-19 -89 OFFCURVE",
"-16 -81 CURVE SMOOTH",
"11 -18 OFFCURVE",
"88 114 OFFCURVE",
"152 214 CURVE SMOOTH",
"221 323 OFFCURVE",
"327 481 OFFCURVE",
"391 565 CURVE SMOOTH"
);
}
);
width = 667;
}
);
note = K;
unicode = 004B;
},
{
glyphname = L;
lastChange = "2021-11-16 05:32:14 +0000";
layers = (
{
hints = (
{
horizontal = 1;
place = "{76, 14}";
type = Stem;
},
{
horizontal = 1;
place = "{648, 16}";
type = Stem;
},
{
place = "{719, 13}";
type = Stem;
},
{
place = "{892, 73}";
type = Stem;
}
);
layerId = "F2190ACF-0345-4BD7-9FAD-2D95E96981D2";
paths = (
{
closed = 1;
nodes = (
"893 658 OFFCURVE",
"864 664 OFFCURVE",
"826 664 CURVE SMOOTH",
"768 664 OFFCURVE",
"692 649 OFFCURVE",
"616 607 CURVE SMOOTH",
"501 543 OFFCURVE",
"417 442 OFFCURVE",
"349 347 CURVE",
"346 347 LINE SMOOTH",
"336 346 OFFCURVE",
"317 345 OFFCURVE",
"297 345 CURVE SMOOTH",
"265 345 OFFCURVE",
"229 348 OFFCURVE",
"220 363 CURVE SMOOTH",
"217 369 OFFCURVE",
"211 370 OFFCURVE",
"214 360 CURVE SMOOTH",
"226 323 OFFCURVE",
"269 305 OFFCURVE",
"313 296 CURVE",
"270 235 OFFCURVE",
"234 180 OFFCURVE",
"198 144 CURVE SMOOTH",
"154 101 OFFCURVE",
"113 91 OFFCURVE",
"88 91 CURVE SMOOTH",
"76 91 OFFCURVE",
"68 93 OFFCURVE",
"65 95 CURVE SMOOTH",
"62 97 OFFCURVE",
"61 94 OFFCURVE",
"62 92 CURVE SMOOTH",
"65 86 OFFCURVE",
"86 76 OFFCURVE",
"114 76 CURVE SMOOTH",
"142 76 OFFCURVE",
"176 86 OFFCURVE",
"209 118 CURVE SMOOTH",
"246 154 OFFCURVE",
"287 220 OFFCURVE",
"335 293 CURVE",
"357 289 OFFCURVE",
"378 288 OFFCURVE",
"395 288 CURVE SMOOTH",
"502 284 OFFCURVE",
"613 309 OFFCURVE",
"711 345 CURVE SMOOTH",
"886 409 OFFCURVE",
"966 498 OFFCURVE",
"966 567 CURVE SMOOTH",
"966 601 OFFCURVE",
"946 630 OFFCURVE",
"910 649 CURVE SMOOTH"
);
},
{
closed = 1;
nodes = (
"732 -58 OFFCURVE",
"732 -53 OFFCURVE",
"732 -48 CURVE SMOOTH",
"732 66 OFFCURVE",
"518 101 OFFCURVE",
"347 101 CURVE SMOOTH",
"284 101 OFFCURVE",
"227 96 OFFCURVE",
"189 89 CURVE SMOOTH",
"38 60 OFFCURVE",
"3 8 OFFCURVE",
"3 -21 CURVE SMOOTH",
"3 -32 OFFCURVE",
"8 -40 OFFCURVE",
"13 -43 CURVE SMOOTH",
"19 -47 OFFCURVE",
"28 -48 OFFCURVE",
"37 -48 CURVE SMOOTH",
"83 -48 OFFCURVE",
"163 -13 OFFCURVE",
"226 0 CURVE SMOOTH",
"285 13 OFFCURVE",
"356 19 OFFCURVE",
"426 19 CURVE SMOOTH",
"584 19 OFFCURVE",
"734 -12 OFFCURVE",
"719 -65 CURVE SMOOTH",
"717 -71 OFFCURVE",
"720 -75 OFFCURVE",
"723 -75 CURVE SMOOTH",
"726 -75 OFFCURVE",
"730 -72 OFFCURVE",
"731 -64 CURVE SMOOTH"
);
},
{
closed = 1;
nodes = (
"882 630 OFFCURVE",
"893 616 OFFCURVE",
"893 598 CURVE SMOOTH",
"893 551 OFFCURVE",
"824 483 OFFCURVE",
"656 422 CURVE SMOOTH",
"569 390 OFFCURVE",
"464 361 OFFCURVE",
"374 350 CURVE",
"441 446 OFFCURVE",
"521 544 OFFCURVE",
"622 597 CURVE SMOOTH",
"693 634 OFFCURVE",
"765 648 OFFCURVE",
"813 648 CURVE SMOOTH",
"836 648 OFFCURVE",
"853 645 OFFCURVE",
"863 640 CURVE SMOOTH"
);
}
);
width = 736;
}
);
note = L;
unicode = 004C;
},
{
glyphname = M;
lastChange = "2021-11-16 05:32:14 +0000";
layers = (
{
hints = (
{
horizontal = 1;
place = "{-236, 13}";
type = Stem;
},
{
horizontal = 1;
place = "{582, 81}";
type = Stem;
},
{
place = "{-2, 19}";
type = Stem;
},
{
place = "{688, 81}";
type = Stem;
},
{
place = "{1056, 86}";
type = Stem;
}
);
layerId = "F2190ACF-0345-4BD7-9FAD-2D95E96981D2";
paths = (
{
closed = 1;
nodes = (
"1470 455 OFFCURVE",
"1485 492 OFFCURVE",
"1485 516 CURVE SMOOTH",
"1485 544 OFFCURVE",
"1466 556 OFFCURVE",
"1437 556 CURVE SMOOTH",
"1388 556 OFFCURVE",
"1310 522 OFFCURVE",
"1246 475 CURVE SMOOTH",
"1172 420 OFFCURVE",
"1091 344 OFFCURVE",
"1022 272 CURVE",
"1051 321 OFFCURVE",
"1076 369 OFFCURVE",
"1091 405 CURVE SMOOTH",
"1102 432 OFFCURVE",
"1108 459 OFFCURVE",
"1108 483 CURVE SMOOTH",
"1108 528 OFFCURVE",
"1087 563 OFFCURVE",
"1037 563 CURVE SMOOTH",
"1001 563 OFFCURVE",
"950 545 OFFCURVE",
"882 501 CURVE SMOOTH",
"787 439 OFFCURVE",
"651 311 OFFCURVE",
"530 184 CURVE",
"586 253 OFFCURVE",
"649 326 OFFCURVE",
"687 372 CURVE SMOOTH",
"728 422 OFFCURVE",
"769 491 OFFCURVE",
"769 549 CURVE SMOOTH",
"769 613 OFFCURVE",
"721 663 OFFCURVE",
"574 663 CURVE SMOOTH",
"424 663 OFFCURVE",
"213 615 OFFCURVE",
"76 537 CURVE SMOOTH",
"23 507 OFFCURVE",
"-2 462 OFFCURVE",
"-2 425 CURVE SMOOTH",
"-2 401 OFFCURVE",
"8 380 OFFCURVE",
"27 367 CURVE SMOOTH",
"30 365 OFFCURVE",
"34 364 OFFCURVE",
"37 364 CURVE SMOOTH",
"40 364 OFFCURVE",
"42 365 OFFCURVE",
"42 366 CURVE SMOOTH",
"42 367 OFFCURVE",
"42 368 OFFCURVE",
"40 369 CURVE SMOOTH",
"24 380 OFFCURVE",
"17 391 OFFCURVE",
"17 402 CURVE SMOOTH",
"17 437 OFFCURVE",
"89 474 OFFCURVE",
"178 504 CURVE SMOOTH",
"251 529 OFFCURVE",
"427 582 OFFCURVE",
"552 582 CURVE SMOOTH",
"630 582 OFFCURVE",
"688 561 OFFCURVE",
"688 499 CURVE SMOOTH",
"688 476 OFFCURVE",
"680 448 OFFCURVE",
"662 413 CURVE SMOOTH",
"610 311 OFFCURVE",
"493 178 OFFCURVE",
"407 72 CURVE SMOOTH",
"371 27 OFFCURVE",
"352 -6 OFFCURVE",
"352 -17 CURVE SMOOTH",
"352 -29 OFFCURVE",
"376 -12 OFFCURVE",
"427 53 CURVE",
"429 53 OFFCURVE",
"432 54 OFFCURVE",
"434 56 CURVE SMOOTH",
"573 212 OFFCURVE",
"768 407 OFFCURVE",
"891 486 CURVE SMOOTH",
"927 509 OFFCURVE",
"953 519 OFFCURVE",
"971 519 CURVE SMOOTH",
"997 519 OFFCURVE",
"1007 499 OFFCURVE",
"1007 470 CURVE SMOOTH",
"1007 456 OFFCURVE",
"1005 439 OFFCURVE",
"1001 422 CURVE SMOOTH",
"981 341 OFFCURVE",
"815 53 OFFCURVE",
"815 53 CURVE",
"807 38 OFFCURVE",
"826 27 OFFCURVE",
"845 27 CURVE SMOOTH",
"856 27 OFFCURVE",
"868 31 OFFCURVE",
"874 40 CURVE SMOOTH",
"891 65 OFFCURVE",
"934 128 OFFCURVE",
"978 199 CURVE",
"1057 286 OFFCURVE",
"1161 390 OFFCURVE",
"1255 461 CURVE SMOOTH",
"1288 486 OFFCURVE",
"1328 504 OFFCURVE",
"1355 504 CURVE SMOOTH",
"1374 504 OFFCURVE",
"1387 495 OFFCURVE",
"1387 474 CURVE SMOOTH",
"1387 449 OFFCURVE",
"1369 406 OFFCURVE",
"1320 338 CURVE SMOOTH",
"1062 -21 OFFCURVE",
"1060 -57 OFFCURVE",
"1056 -127 CURVE SMOOTH",
"1051 -198 OFFCURVE",
"1122 -236 OFFCURVE",
"1173 -236 CURVE SMOOTH",
"1188 -236 OFFCURVE",
"1202 -232 OFFCURVE",
"1211 -225 CURVE SMOOTH",
"1217 -219 OFFCURVE",
"1212 -210 OFFCURVE",
"1205 -210 CURVE SMOOTH",
"1204 -210 OFFCURVE",
"1202 -211 OFFCURVE",
"1200 -212 CURVE SMOOTH",
"1192 -219 OFFCURVE",
"1182 -223 OFFCURVE",
"1172 -223 CURVE SMOOTH",
"1156 -223 OFFCURVE",
"1141 -210 OFFCURVE",
"1141 -172 CURVE SMOOTH",
"1141 -166 OFFCURVE",
"1141 -159 OFFCURVE",
"1142 -152 CURVE SMOOTH",
"1150 -67 OFFCURVE",
"1230 101 OFFCURVE",
"1435 403 CURVE SMOOTH"
);
}
);
width = 1324;
}
);
note = M;
unicode = 004D;
},
{
glyphname = N;
lastChange = "2021-11-16 05:32:14 +0000";
layers = (
{
hints = (
{
horizontal = 1;
place = "{-51, 20}";
type = Stem;
},
{
horizontal = 1;
place = "{661, -20}";
target = down;
type = TopGhost;
},
{
place = "{301, 93}";
type = Stem;
}
);
layerId = "F2190ACF-0345-4BD7-9FAD-2D95E96981D2";
paths = (
{
closed = 1;
nodes = (
"812 628 OFFCURVE",
"814 633 OFFCURVE",
"814 637 CURVE SMOOTH",
"814 643 OFFCURVE",
"807 645 OFFCURVE",
"799 645 CURVE SMOOTH",
"789 645 OFFCURVE",
"778 642 OFFCURVE",
"774 642 CURVE SMOOTH",
"753 642 OFFCURVE",
"481 192 OFFCURVE",
"423 43 CURVE",
"403 91 OFFCURVE",
"394 165 OFFCURVE",
"394 244 CURVE SMOOTH",
"394 389 OFFCURVE",
"426 552 OFFCURVE",
"488 603 CURVE SMOOTH",
"494 607 OFFCURVE",
"496 612 OFFCURVE",
"496 617 CURVE SMOOTH",
"496 638 OFFCURVE",
"445 660 OFFCURVE",
"414 660 CURVE SMOOTH",
"386 660 OFFCURVE",
"358 617 OFFCURVE",
"336 549 CURVE",
"266 467 OFFCURVE",
"-28 11 OFFCURVE",
"-70 -112 CURVE SMOOTH",
"-75 -125 OFFCURVE",
"-76 -134 OFFCURVE",
"-76 -141 CURVE SMOOTH",
"-76 -148 OFFCURVE",
"-75 -151 OFFCURVE",
"-72 -151 CURVE SMOOTH",
"-69 -151 OFFCURVE",
"-66 -147 OFFCURVE",
"-63 -140 CURVE SMOOTH",
"-5 -5 OFFCURVE",
"179 293 OFFCURVE",
"319 484 CURVE",
"308 432 OFFCURVE",
"301 374 OFFCURVE",
"301 314 CURVE SMOOTH",
"301 203 OFFCURVE",
"325 86 OFFCURVE",
"389 0 CURVE SMOOTH",
"414 -34 OFFCURVE",
"446 -51 OFFCURVE",
"477 -51 CURVE SMOOTH",
"495 -51 OFFCURVE",
"512 -46 OFFCURVE",
"528 -35 CURVE SMOOTH",
"532 -32 OFFCURVE",
"530 -24 OFFCURVE",
"525 -24 CURVE SMOOTH",
"525 -24 OFFCURVE",
"524 -25 OFFCURVE",
"523 -25 CURVE",
"517 -29 OFFCURVE",
"510 -31 OFFCURVE",
"503 -31 CURVE SMOOTH",
"481 -31 OFFCURVE",
"454 -12 OFFCURVE",
"436 16 CURVE SMOOTH",
"435 18 OFFCURVE",
"434 19 OFFCURVE",
"433 21 CURVE",
"502 172 OFFCURVE",
"671 444 OFFCURVE",
"807 622 CURVE SMOOTH"
);
}
);
width = 585;
}
);
note = N;
unicode = 004E;
},
{
glyphname = Eng;
lastChange = "2021-11-16 05:18:42 +0000";
layers = (
{
hints = (
{
horizontal = 1;
place = "{-51, 20}";
type = Stem;
},
{
horizontal = 1;
place = "{661, -20}";
target = down;
type = TopGhost;
},
{
place = "{301, 93}";
type = Stem;
},
{
horizontal = 1;
place = "{-276, 17}";
type = Stem;
},
{
horizontal = 1;
place = "{-166, 47}";
type = Stem;
},
{
horizontal = 1;
place = "{460, 47}";
type = Stem;
}
);
layerId = "F2190ACF-0345-4BD7-9FAD-2D95E96981D2";
paths = (
{
closed = 1;
nodes = (
"832 655 OFFCURVE",
"782 642 OFFCURVE",
"774 642 CURVE SMOOTH",
"753 642 OFFCURVE",
"481 192 OFFCURVE",
"423 43 CURVE",
"367 181 OFFCURVE",
"393 524 OFFCURVE",
"488 603 CURVE SMOOTH",
"525 633 OFFCURVE",
"420 674 OFFCURVE",
"395 656 CURVE SMOOTH",
"374 640 OFFCURVE",
"353 602 OFFCURVE",
"336 549 CURVE",
"266 467 OFFCURVE",
"-28 11 OFFCURVE",
"-70 -112 CURVE SMOOTH",
"-83 -150 OFFCURVE",
"-72 -161 OFFCURVE",
"-63 -140 CURVE SMOOTH",
"-5 -5 OFFCURVE",
"179 293 OFFCURVE",
"319 484 CURVE",
"288 337 OFFCURVE",
"290 133 OFFCURVE",
"389 0 CURVE SMOOTH",
"429 -54 OFFCURVE",
"485 -64 OFFCURVE",
"528 -35 CURVE SMOOTH",
"533 -31 OFFCURVE",
"529 -22 OFFCURVE",
"523 -25 CURVE",
"498 -42 OFFCURVE",
"460 -21 OFFCURVE",
"436 16 CURVE SMOOTH",
"435 18 OFFCURVE",
"434 19 OFFCURVE",
"433 21 CURVE",
"502 172 OFFCURVE",
"671 444 OFFCURVE",
"807 622 CURVE SMOOTH"
);
},
{
closed = 1;
nodes = (
"351 -68 OFFCURVE",
"310 -138 OFFCURVE",
"302 -150 CURVE SMOOTH",
"265 -204 OFFCURVE",
"214 -263 OFFCURVE",
"165 -294 CURVE SMOOTH",
"121 -322 OFFCURVE",
"40 -329 OFFCURVE",
"23 -265 CURVE SMOOTH",
"21 -258 OFFCURVE",
"15 -259 OFFCURVE",
"16 -265 CURVE SMOOTH",
"33 -362 OFFCURVE",
"155 -389 OFFCURVE",
"241 -331 CURVE SMOOTH",
"308 -286 OFFCURVE",
"390 -115 OFFCURVE",
"425 -8 CURVE",
"398 14 LINE"
);
}
);
width = 585;
}
);
unicode = 014A;
},
{
glyphname = O;
lastChange = "2021-11-16 05:32:14 +0000";
layers = (
{
hints = (
{
horizontal = 1;
place = "{-46, 48}";
type = Stem;
},
{
horizontal = 1;
place = "{526, 89}";
type = Stem;
},
{
horizontal = 1;
place = "{646, 12}";
type = Stem;
},
{
place = "{136, 22}";
type = Stem;
},
{
place = "{641, 14}";
type = Stem;
},
{
place = "{768, 39}";
type = Stem;
}
);
layerId = "F2190ACF-0345-4BD7-9FAD-2D95E96981D2";
paths = (
{
closed = 1;
nodes = (
"808 623 OFFCURVE",
"757 658 OFFCURVE",
"720 658 CURVE SMOOTH",
"713 658 OFFCURVE",
"707 657 OFFCURVE",
"702 655 CURVE SMOOTH",
"697 653 OFFCURVE",
"695 650 OFFCURVE",
"695 647 CURVE SMOOTH",
"695 645 OFFCURVE",
"696 644 OFFCURVE",
"698 644 CURVE SMOOTH",
"699 644 OFFCURVE",
"700 645 OFFCURVE",
"701 645 CURVE SMOOTH",
"704 646 OFFCURVE",
"707 647 OFFCURVE",
"711 647 CURVE SMOOTH",
"735 647 OFFCURVE",
"769 618 OFFCURVE",
"769 509 CURVE SMOOTH",
"769 372 OFFCURVE",
"714 262 OFFCURVE",
"654 187 CURVE SMOOTH",
"590 108 OFFCURVE",
"505 57 OFFCURVE",
"426 29 CURVE SMOOTH",
"373 10 OFFCURVE",
"327 2 OFFCURVE",
"289 2 CURVE SMOOTH",
"203 2 OFFCURVE",
"158 46 OFFCURVE",
"158 116 CURVE SMOOTH",
"158 168 OFFCURVE",
"183 233 OFFCURVE",
"235 305 CURVE SMOOTH",
"318 419 OFFCURVE",
"499 526 OFFCURVE",
"589 526 CURVE SMOOTH",
"621 526 OFFCURVE",
"641 513 OFFCURVE",
"641 481 CURVE SMOOTH",
"641 473 OFFCURVE",
"639 463 OFFCURVE",
"636 451 CURVE SMOOTH",
"635 445 OFFCURVE",
"637 440 OFFCURVE",
"640 440 CURVE SMOOTH",
"641 440 OFFCURVE",
"643 442 OFFCURVE",
"644 446 CURVE SMOOTH",
"648 458 OFFCURVE",
"655 485 OFFCURVE",
"655 511 CURVE SMOOTH",
"655 586 OFFCURVE",
"607 615 OFFCURVE",
"551 615 CURVE SMOOTH",
"529 615 OFFCURVE",
"505 611 OFFCURVE",
"483 603 CURVE SMOOTH",
"403 576 OFFCURVE",
"284 481 OFFCURVE",
"209 361 CURVE SMOOTH",
"158 279 OFFCURVE",
"136 206 OFFCURVE",
"136 146 CURVE SMOOTH",
"136 25 OFFCURVE",
"221 -46 OFFCURVE",
"325 -46 CURVE SMOOTH",
"365 -46 OFFCURVE",
"409 -35 OFFCURVE",
"451 -12 CURVE SMOOTH",
"531 31 OFFCURVE",
"609 102 OFFCURVE",
"657 163 CURVE SMOOTH",
"725 249 OFFCURVE",
"808 369 OFFCURVE",
"808 517 CURVE SMOOTH"
);
}
);
width = 701;
}
);
note = O;
unicode = 004F;
},
{
glyphname = Oslash;
lastChange = "2021-11-16 05:32:14 +0000";
layers = (
{
hints = (
{
horizontal = 1;
place = "{-46, 48}";
type = Stem;
},
{
horizontal = 1;
place = "{526, 89}";
type = Stem;
},
{
horizontal = 1;
place = "{646, 12}";
type = Stem;
},
{
place = "{10, 22}";
type = Stem;
},
{
place = "{515, 14}";
type = Stem;
},
{
place = "{642, 39}";
type = Stem;
}
);
layerId = "F2190ACF-0345-4BD7-9FAD-2D95E96981D2";
paths = (
{
closed = 1;
nodes = (
"682 623 OFFCURVE",
"631 658 OFFCURVE",
"594 658 CURVE SMOOTH",
"587 658 OFFCURVE",
"581 657 OFFCURVE",
"576 655 CURVE SMOOTH",
"571 653 OFFCURVE",
"568 649 OFFCURVE",
"568 647 CURVE SMOOTH",
"568 645 OFFCURVE",
"569 644 OFFCURVE",
"571 644 CURVE SMOOTH",
"572 644 OFFCURVE",
"573 645 OFFCURVE",
"574 645 CURVE SMOOTH",
"577 646 OFFCURVE",
"580 647 OFFCURVE",
"584 647 CURVE SMOOTH",
"608 647 OFFCURVE",
"642 618 OFFCURVE",
"642 506 CURVE SMOOTH",
"642 370 OFFCURVE",
"587 261 OFFCURVE",
"527 187 CURVE SMOOTH",
"464 108 OFFCURVE",
"379 57 OFFCURVE",
"300 29 CURVE SMOOTH",
"247 10 OFFCURVE",
"201 2 OFFCURVE",
"163 2 CURVE SMOOTH",
"77 2 OFFCURVE",
"32 46 OFFCURVE",
"32 116 CURVE SMOOTH",
"32 168 OFFCURVE",
"57 233 OFFCURVE",
"109 305 CURVE SMOOTH",
"192 419 OFFCURVE",
"373 526 OFFCURVE",
"463 526 CURVE SMOOTH",
"495 526 OFFCURVE",
"515 513 OFFCURVE",
"515 481 CURVE SMOOTH",
"515 473 OFFCURVE",
"513 463 OFFCURVE",
"510 451 CURVE SMOOTH",
"508 445 OFFCURVE",
"510 440 OFFCURVE",
"513 440 CURVE SMOOTH",
"515 440 OFFCURVE",
"517 442 OFFCURVE",
"518 446 CURVE SMOOTH",
"522 458 OFFCURVE",
"529 485 OFFCURVE",
"529 511 CURVE SMOOTH",
"529 586 OFFCURVE",
"480 615 OFFCURVE",
"424 615 CURVE SMOOTH",
"402 615 OFFCURVE",
"379 611 OFFCURVE",
"357 603 CURVE SMOOTH",
"277 576 OFFCURVE",
"158 481 OFFCURVE",
"83 361 CURVE SMOOTH",
"32 279 OFFCURVE",
"10 206 OFFCURVE",
"10 146 CURVE SMOOTH",
"10 25 OFFCURVE",
"95 -46 OFFCURVE",
"199 -46 CURVE SMOOTH",
"239 -46 OFFCURVE",
"282 -35 OFFCURVE",
"324 -12 CURVE SMOOTH",
"404 31 OFFCURVE",
"483 102 OFFCURVE",
"531 163 CURVE SMOOTH",
"599 249 OFFCURVE",
"682 369 OFFCURVE",
"682 517 CURVE SMOOTH"
);
}
);
width = 600;
}
);
note = Oslash;
unicode = 00D8;
},
{
glyphname = OE;
layers = (
{
hints = (
{
horizontal = 1;
place = "{-46, 48}";
type = Stem;
},
{
horizontal = 1;
place = "{313, 46}";
type = Stem;
},
{
horizontal = 1;
place = "{526, 89}";
type = Stem;
},
{
horizontal = 1;
place = "{646, 12}";
type = Stem;
},
{
place = "{10, 22}";
type = Stem;
},
{
place = "{515, 14}";
type = Stem;
},
{
place = "{641, 39}";
type = Stem;
},
{
place = "{1293, 19}";
type = Stem;
}
);
layerId = "F2190ACF-0345-4BD7-9FAD-2D95E96981D2";
paths = (
{
closed = 1;
nodes = (
"1001 357 OFFCURVE",
"830 368 OFFCURVE",
"745 353 CURVE SMOOTH",
"627 330 OFFCURVE",
"656 288 OFFCURVE",
"667 282 CURVE SMOOTH",
"688 269 OFFCURVE",
"727 287 OFFCURVE",
"770 296 CURVE SMOOTH",
"882 320 OFFCURVE",
"987 319 OFFCURVE",
"1032 289 CURVE SMOOTH",
"1053 274 OFFCURVE",
"1060 291 OFFCURVE",
"1048 306 CURVE SMOOTH"
);
},
{
closed = 1;
nodes = (
"1372 298 OFFCURVE",
"1365 295 OFFCURVE",
"1354 280 CURVE SMOOTH",
"1261 145 OFFCURVE",
"1045 37 OFFCURVE",
"856 4 CURVE SMOOTH",
"640 -34 OFFCURVE",
"498 35 OFFCURVE",
"532 165 CURVE",
"565 207 OFFCURVE",
"602 257 OFFCURVE",
"631 315 CURVE",
"638 322 OFFCURVE",
"646 330 OFFCURVE",
"654 337 CURVE SMOOTH",
"848 517 OFFCURVE",
"1366 680 OFFCURVE",
"1285 495 CURVE SMOOTH",
"1280 485 OFFCURVE",
"1286 478 OFFCURVE",
"1293 490 CURVE SMOOTH",
"1301 506 OFFCURVE",
"1314 539 OFFCURVE",
"1313 571 CURVE SMOOTH",
"1307 674 OFFCURVE",
"1170 689 OFFCURVE",
"1050 660 CURVE SMOOTH",
"944 635 OFFCURVE",
"794 558 OFFCURVE",
"677 457 CURVE",
"680 482 OFFCURVE",
"682 509 OFFCURVE",
"681 537 CURVE SMOOTH",
"675 645 OFFCURVE",
"609 667 OFFCURVE",
"576 655 CURVE SMOOTH",
"567 652 OFFCURVE",
"566 642 OFFCURVE",
"574 645 CURVE SMOOTH",
"596 652 OFFCURVE",
"636 636 OFFCURVE",
"641 533 CURVE SMOOTH",
"644 492 OFFCURVE",
"641 454 OFFCURVE",
"634 417 CURVE",
"628 411 OFFCURVE",
"621 404 OFFCURVE",
"615 398 CURVE SMOOTH",
"535 312 OFFCURVE",
"497 226 OFFCURVE",
"496 152 CURVE",
"438 92 OFFCURVE",
"367 52 OFFCURVE",
"300 29 CURVE SMOOTH",
"34 -64 OFFCURVE",
"-42 96 OFFCURVE",
"109 305 CURVE SMOOTH",
"230 471 OFFCURVE",
"558 622 OFFCURVE",
"510 451 CURVE SMOOTH",
"507 441 OFFCURVE",
"514 434 OFFCURVE",
"518 446 CURVE SMOOTH",
"523 460 OFFCURVE",
"531 491 OFFCURVE",
"529 520 CURVE SMOOTH",
"523 616 OFFCURVE",
"434 630 OFFCURVE",
"357 603 CURVE SMOOTH",
"277 576 OFFCURVE",
"158 481 OFFCURVE",
"83 361 CURVE SMOOTH",
"-110 52 OFFCURVE",
"119 -123 OFFCURVE",
"324 -12 CURVE SMOOTH",
"388 22 OFFCURVE",
"451 74 OFFCURVE",
"498 124 CURVE",
"513 -4 OFFCURVE",
"648 -84 OFFCURVE",
"867 -37 CURVE SMOOTH",
"1090 10 OFFCURVE",
"1331 182 OFFCURVE",
"1365 278 CURVE SMOOTH"
);
}
);
width = 1364;
}
);
note = OE;
unicode = 0152;
},
{
glyphname = P;
lastChange = "2021-11-16 05:32:14 +0000";
layers = (
{
hints = (
{
horizontal = 1;
place = "{-33, 20}";
type = Stem;
},
{
horizontal = 1;
place = "{172, 18}";
type = Stem;
},
{
horizontal = 1;
place = "{595, 72}";
type = Stem;
},
{
place = "{-4, 15}";
type = Stem;
},
{
place = "{677, 49}";
type = Stem;
}
);
layerId = "F2190ACF-0345-4BD7-9FAD-2D95E96981D2";
paths = (
{
closed = 1;
nodes = (
"671 352 OFFCURVE",
"726 442 OFFCURVE",
"726 518 CURVE SMOOTH",
"726 600 OFFCURVE",
"663 667 OFFCURVE",
"525 667 CURVE SMOOTH",
"511 667 OFFCURVE",
"496 666 OFFCURVE",
"480 665 CURVE SMOOTH",
"314 649 OFFCURVE",
"90 584 OFFCURVE",
"38 509 CURVE SMOOTH",
"36 505 OFFCURVE",
"34 500 OFFCURVE",
"34 493 CURVE SMOOTH",
"34 476 OFFCURVE",
"44 451 OFFCURVE",
"66 438 CURVE SMOOTH",
"70 435 OFFCURVE",
"75 434 OFFCURVE",
"75 437 CURVE SMOOTH",
"75 438 OFFCURVE",
"75 440 OFFCURVE",
"73 443 CURVE SMOOTH",
"69 450 OFFCURVE",
"74 458 OFFCURVE",
"84 466 CURVE SMOOTH",
"153 524 OFFCURVE",
"343 578 OFFCURVE",
"459 592 CURVE SMOOTH",
"477 594 OFFCURVE",
"493 595 OFFCURVE",
"509 595 CURVE SMOOTH",
"617 595 OFFCURVE",
"677 547 OFFCURVE",
"677 482 CURVE SMOOTH",
"677 431 OFFCURVE",
"640 371 OFFCURVE",
"559 316 CURVE SMOOTH",
"482 264 OFFCURVE",
"277 183 OFFCURVE",
"137 190 CURVE",
"240 339 OFFCURVE",
"366 495 OFFCURVE",
"366 495 CURVE",
"366 503 OFFCURVE",
"360 516 OFFCURVE",
"351 516 CURVE SMOOTH",
"333 516 OFFCURVE",
"203 346 OFFCURVE",
"102 195 CURVE",
"76 199 OFFCURVE",
"53 209 OFFCURVE",
"35 223 CURVE SMOOTH",
"18 236 OFFCURVE",
"11 253 OFFCURVE",
"11 269 CURVE SMOOTH",
"11 278 OFFCURVE",
"13 286 OFFCURVE",
"18 293 CURVE SMOOTH",
"22 297 OFFCURVE",
"23 301 OFFCURVE",
"23 304 CURVE SMOOTH",
"23 306 OFFCURVE",
"22 307 OFFCURVE",
"21 307 CURVE SMOOTH",
"19 307 OFFCURVE",
"17 306 OFFCURVE",
"14 303 CURVE SMOOTH",
"2 292 OFFCURVE",
"-4 278 OFFCURVE",
"-4 264 CURVE SMOOTH",
"-4 245 OFFCURVE",
"7 225 OFFCURVE",
"26 210 CURVE SMOOTH",
"44 196 OFFCURVE",
"67 186 OFFCURVE",
"92 180 CURVE",
"38 97 OFFCURVE",
"-5 22 OFFCURVE",
"-14 -14 CURVE SMOOTH",
"-15 -18 OFFCURVE",
"-16 -21 OFFCURVE",
"-16 -24 CURVE SMOOTH",
"-16 -30 OFFCURVE",
"-12 -33 OFFCURVE",
"-8 -33 CURVE SMOOTH",
"-1 -33 OFFCURVE",
"9 -26 OFFCURVE",
"12 -17 CURVE SMOOTH",
"30 29 OFFCURVE",
"74 100 OFFCURVE",
"125 174 CURVE",
"137 173 OFFCURVE",
"149 172 OFFCURVE",
"162 172 CURVE SMOOTH",
"303 172 OFFCURVE",
"486 245 OFFCURVE",
"568 292 CURVE SMOOTH"
);
}
);
width = 539;
}
);
note = P;
unicode = 0050;
},
{
glyphname = Thorn;
layers = (
{
hints = (
{
horizontal = 1;
place = "{-30, 18}";
type = Stem;
},
{
horizontal = 1;
place = "{392, 72}";
type = Stem;
},
{
place = "{-4, 15}";
type = Stem;
},
{
place = "{677, 49}";
type = Stem;
}
);
layerId = "F2190ACF-0345-4BD7-9FAD-2D95E96981D2";
paths = (
{
closed = 1;
nodes = (
"791 220 OFFCURVE",
"793 491 OFFCURVE",
"480 462 CURVE SMOOTH",
"466 461 OFFCURVE",
"451 459 OFFCURVE",
"436 457 CURVE",
"474 516 OFFCURVE",
"509 569 OFFCURVE",
"539 613 CURVE",
"540 621 OFFCURVE",
"530 641 OFFCURVE",
"524 633 CURVE SMOOTH",
"484 579 OFFCURVE",
"442 516 OFFCURVE",
"399 451 CURVE",
"248 426 OFFCURVE",
"82 370 OFFCURVE",
"38 306 CURVE SMOOTH",
"29 293 OFFCURVE",
"35 254 OFFCURVE",
"66 235 CURVE SMOOTH",
"72 231 OFFCURVE",
"79 230 OFFCURVE",
"73 241 CURVE SMOOTH",
"69 247 OFFCURVE",
"74 255 OFFCURVE",
"84 263 CURVE SMOOTH",
"133 305 OFFCURVE",
"243 344 OFFCURVE",
"344 368 CURVE",
"252 226 OFFCURVE",
"163 83 OFFCURVE",
"102 -8 CURVE",
"76 -3 OFFCURVE",
"53 6 OFFCURVE",
"35 20 CURVE SMOOTH",
"9 41 OFFCURVE",
"5 71 OFFCURVE",
"18 90 CURVE SMOOTH",
"26 100 OFFCURVE",
"24 109 OFFCURVE",
"14 101 CURVE SMOOTH",
"-15 75 OFFCURVE",
"-7 34 OFFCURVE",
"26 8 CURVE SMOOTH",
"44 -7 OFFCURVE",
"67 -17 OFFCURVE",
"92 -23 CURVE",
"38 -105 OFFCURVE",
"-5 -180 OFFCURVE",
"-14 -217 CURVE SMOOTH",
"-22 -247 OFFCURVE",
"6 -236 OFFCURVE",
"12 -219 CURVE SMOOTH",
"30 -173 OFFCURVE",
"74 -103 OFFCURVE",
"125 -28 CURVE",
"270 -44 OFFCURVE",
"479 38 OFFCURVE",
"568 90 CURVE SMOOTH"
);
},
{
closed = 1;
nodes = (
"482 61 OFFCURVE",
"277 -20 OFFCURVE",
"137 -12 CURVE",
"201 79 OFFCURVE",
"296 234 OFFCURVE",
"386 377 CURVE",
"412 383 OFFCURVE",
"437 387 OFFCURVE",
"459 389 CURVE SMOOTH",
"693 418 OFFCURVE",
"758 248 OFFCURVE",
"559 113 CURVE SMOOTH"
);
}
);
width = 539;
}
);
note = Thorn;
unicode = 00DE;
},
{
glyphname = Q;
lastChange = "2021-11-16 05:32:14 +0000";
layers = (
{
hints = (
{
horizontal = 1;
place = "{-140, 82}";
type = Stem;
},
{
horizontal = 1;
place = "{-16, 99}";
type = Stem;
},
{
horizontal = 1;
place = "{622, 48}";
type = Stem;
},
{
place = "{27, 47}";
type = Stem;
},
{
place = "{155, 20}";
type = Stem;
},
{
place = "{647, 14}";
type = Stem;
},
{
place = "{734, 19}";
type = Stem;
}
);
layerId = "F2190ACF-0345-4BD7-9FAD-2D95E96981D2";
paths = (
{
closed = 1;
nodes = (
"660 -213 OFFCURVE",
"662 -204 OFFCURVE",
"662 -196 CURVE SMOOTH",
"662 -91 OFFCURVE",
"459 -58 OFFCURVE",
"294 -58 CURVE SMOOTH",
"230 -58 OFFCURVE",
"172 -63 OFFCURVE",
"133 -70 CURVE SMOOTH",
"125 -71 LINE",
"100 -69 OFFCURVE",
"70 -42 OFFCURVE",
"74 48 CURVE SMOOTH",
"86 291 OFFCURVE",
"232 514 OFFCURVE",
"475 595 CURVE SMOOTH",
"530 614 OFFCURVE",
"576 622 OFFCURVE",
"614 622 CURVE SMOOTH",
"694 622 OFFCURVE",
"734 584 OFFCURVE",
"734 524 CURVE SMOOTH",
"734 470 OFFCURVE",
"702 399 OFFCURVE",
"636 320 CURVE SMOOTH",
"539 204 OFFCURVE",
"323 83 OFFCURVE",
"225 83 CURVE SMOOTH",
"194 83 OFFCURVE",
"175 95 OFFCURVE",
"175 123 CURVE SMOOTH",
"175 133 OFFCURVE",
"178 146 OFFCURVE",
"184 162 CURVE SMOOTH",
"187 168 OFFCURVE",
"185 174 OFFCURVE",
"182 174 CURVE SMOOTH",
"180 174 OFFCURVE",
"178 172 OFFCURVE",
"176 167 CURVE SMOOTH",
"168 150 OFFCURVE",
"155 112 OFFCURVE",
"155 78 CURVE SMOOTH",
"155 11 OFFCURVE",
"201 -16 OFFCURVE",
"257 -16 CURVE SMOOTH",
"281 -16 OFFCURVE",
"306 -11 OFFCURVE",
"331 -3 CURVE SMOOTH",
"421 26 OFFCURVE",
"568 143 OFFCURVE",
"656 264 CURVE SMOOTH",
"725 358 OFFCURVE",
"753 439 OFFCURVE",
"753 504 CURVE SMOOTH",
"753 609 OFFCURVE",
"680 670 OFFCURVE",
"583 670 CURVE SMOOTH",
"543 670 OFFCURVE",
"499 659 OFFCURVE",
"455 637 CURVE SMOOTH",
"246 531 OFFCURVE",
"39 271 OFFCURVE",
"27 45 CURVE SMOOTH",
"24 -32 OFFCURVE",
"55 -67 OFFCURVE",
"89 -79 CURVE",
"-36 -111 OFFCURVE",
"-66 -158 OFFCURVE",
"-66 -185 CURVE SMOOTH",
"-66 -193 OFFCURVE",
"-62 -200 OFFCURVE",
"-58 -202 CURVE SMOOTH",
"-52 -206 OFFCURVE",
"-44 -207 OFFCURVE",
"-34 -207 CURVE SMOOTH",
"12 -207 OFFCURVE",
"96 -172 OFFCURVE",
"160 -159 CURVE SMOOTH",
"221 -146 OFFCURVE",
"293 -140 OFFCURVE",
"362 -140 CURVE SMOOTH",
"510 -140 OFFCURVE",
"647 -167 OFFCURVE",
"647 -214 CURVE SMOOTH",
"647 -217 OFFCURVE",
"646 -221 OFFCURVE",
"645 -224 CURVE SMOOTH",
"643 -230 OFFCURVE",
"645 -234 OFFCURVE",
"648 -234 CURVE SMOOTH",
"652 -234 OFFCURVE",
"656 -230 OFFCURVE",
"658 -222 CURVE SMOOTH"
);
}
);
width = 636;
}
);
note = Q;
unicode = 0051;
},
{
glyphname = R;
lastChange = "2021-11-16 05:32:14 +0000";
layers = (
{
hints = (
{
horizontal = 1;
place = "{-23, 26}";
type = Stem;
},
{
horizontal = 1;
place = "{247, 17}";
type = Stem;
},
{
horizontal = 1;
place = "{582, 73}";
type = Stem;
},
{
place = "{669, 41}";
type = Stem;
}
);
layerId = "F2190ACF-0345-4BD7-9FAD-2D95E96981D2";
paths = (
{
closed = 1;
nodes = (
"598 653 OFFCURVE",
"574 655 OFFCURVE",
"548 655 CURVE SMOOTH",
"382 655 OFFCURVE",
"97 582 OFFCURVE",
"38 495 CURVE SMOOTH",
"35 492 OFFCURVE",
"34 486 OFFCURVE",
"34 479 CURVE SMOOTH",
"34 462 OFFCURVE",
"43 438 OFFCURVE",
"65 425 CURVE SMOOTH",
"68 423 OFFCURVE",
"71 422 OFFCURVE",
"73 422 CURVE SMOOTH",
"74 422 OFFCURVE",
"75 423 OFFCURVE",
"75 424 CURVE SMOOTH",
"75 425 OFFCURVE",
"75 427 OFFCURVE",
"73 430 CURVE SMOOTH",
"69 437 OFFCURVE",
"74 444 OFFCURVE",
"84 453 CURVE SMOOTH",
"164 521 OFFCURVE",
"408 582 OFFCURVE",
"507 582 CURVE SMOOTH",
"624 582 OFFCURVE",
"669 551 OFFCURVE",
"669 510 CURVE SMOOTH",
"669 468 OFFCURVE",
"622 415 OFFCURVE",
"558 371 CURVE SMOOTH",
"472 313 OFFCURVE",
"341 270 OFFCURVE",
"240 264 CURVE SMOOTH",
"226 263 OFFCURVE",
"214 262 OFFCURVE",
"204 261 CURVE",
"203 263 OFFCURVE",
"203 266 OFFCURVE",
"202 268 CURVE",
"286 383 OFFCURVE",
"366 482 OFFCURVE",
"366 482 CURVE",
"366 490 OFFCURVE",
"360 502 OFFCURVE",
"350 502 CURVE SMOOTH",
"338 502 OFFCURVE",
"267 415 OFFCURVE",
"190 309 CURVE",
"171 312 OFFCURVE",
"125 275 OFFCURVE",
"124 255 CURVE SMOOTH",
"123 246 OFFCURVE",
"125 234 OFFCURVE",
"129 221 CURVE",
"59 119 OFFCURVE",
"-3 17 OFFCURVE",
"-14 -28 CURVE SMOOTH",
"-15 -32 OFFCURVE",
"-16 -35 OFFCURVE",
"-16 -37 CURVE SMOOTH",
"-16 -43 OFFCURVE",
"-12 -46 OFFCURVE",
"-8 -46 CURVE SMOOTH",
"-1 -46 OFFCURVE",
"9 -39 OFFCURVE",
"12 -30 CURVE SMOOTH",
"32 21 OFFCURVE",
"85 103 OFFCURVE",
"143 187 CURVE",
"190 96 OFFCURVE",
"313 -24 OFFCURVE",
"456 -24 CURVE SMOOTH",
"512 -24 OFFCURVE",
"564 -4 OFFCURVE",
"570 43 CURVE SMOOTH",
"571 49 OFFCURVE",
"563 50 OFFCURVE",
"563 45 CURVE",
"559 20 OFFCURVE",
"529 3 OFFCURVE",
"497 3 CURVE SMOOTH",
"413 3 OFFCURVE",
"251 140 OFFCURVE",
"209 246 CURVE",
"219 246 OFFCURVE",
"230 246 OFFCURVE",
"241 247 CURVE SMOOTH",
"341 253 OFFCURVE",
"477 299 OFFCURVE",
"566 351 CURVE SMOOTH",
"671 412 OFFCURVE",
"710 481 OFFCURVE",
"710 536 CURVE SMOOTH",
"710 594 OFFCURVE",
"669 638 OFFCURVE",
"617 649 CURVE SMOOTH"
);
}
);
width = 587;
}
);
note = R;
unicode = 0052;
},
{
glyphname = S;
lastChange = "2021-11-16 05:32:14 +0000";
layers = (
{
hints = (
{
horizontal = 1;
place = "{-40, 74}";
type = Stem;
},
{
horizontal = 1;
place = "{589, 60}";
type = Stem;
},
{
place = "{507, 51}";
type = Stem;
}
);
layerId = "F2190ACF-0345-4BD7-9FAD-2D95E96981D2";
paths = (
{
closed = 1;
nodes = (
"836 629 OFFCURVE",
"786 649 OFFCURVE",
"728 649 CURVE SMOOTH",
"584 649 OFFCURVE",
"306 509 OFFCURVE",
"290 371 CURVE SMOOTH",
"280 277 OFFCURVE",
"430 246 OFFCURVE",
"469 222 CURVE SMOOTH",
"496 205 OFFCURVE",
"507 187 OFFCURVE",
"507 169 CURVE SMOOTH",
"507 116 OFFCURVE",
"411 65 OFFCURVE",
"364 52 CURVE SMOOTH",
"324 40 OFFCURVE",
"271 33 OFFCURVE",
"216 33 CURVE SMOOTH",
"130 33 OFFCURVE",
"40 51 OFFCURVE",
"-8 94 CURVE",
"18 -8 OFFCURVE",
"158 -42 OFFCURVE",
"247 -40 CURVE SMOOTH",
"272 -40 OFFCURVE",
"377 -32 OFFCURVE",
"459 9 CURVE SMOOTH",
"520 40 OFFCURVE",
"559 89 OFFCURVE",
"559 137 CURVE SMOOTH",
"559 175 OFFCURVE",
"535 213 OFFCURVE",
"479 241 CURVE SMOOTH",
"416 272 OFFCURVE",
"341 288 OFFCURVE",
"346 331 CURVE SMOOTH",
"351 375 OFFCURVE",
"481 478 OFFCURVE",
"596 540 CURVE SMOOTH",
"616 551 OFFCURVE",
"689 589 OFFCURVE",
"735 589 CURVE SMOOTH",
"749 589 OFFCURVE",
"760 585 OFFCURVE",
"766 576 CURVE",
"726 548 OFFCURVE",
"686 514 OFFCURVE",
"655 477 CURVE SMOOTH",
"628 445 OFFCURVE",
"592 390 OFFCURVE",
"592 342 CURVE SMOOTH",
"592 319 OFFCURVE",
"601 297 OFFCURVE",
"623 280 CURVE",
"615 387 OFFCURVE",
"823 515 OFFCURVE",
"830 574 CURVE SMOOTH"
);
}
);
width = 590;
}
);
note = S;
unicode = 0053;
},
{
glyphname = Germandbls;
lastChange = "2021-11-16 05:10:04 +0000";
layers = (
{
hints = (
{
horizontal = 1;
place = "{-58, 52}";
type = Stem;
},
{
horizontal = 1;
place = "{631, 41}";
type = Stem;
},
{
place = "{556, 92}";
type = Stem;
},
{
place = "{648, 56}";
type = Stem;
}
);
layerId = "F2190ACF-0345-4BD7-9FAD-2D95E96981D2";
paths = (
{
closed = 1;
nodes = (
"762 649 OFFCURVE",
"706 680 OFFCURVE",
"634 680 CURVE SMOOTH",
"562 680 OFFCURVE",
"474 648 OFFCURVE",
"415 594 CURVE SMOOTH",
"253 446 OFFCURVE",
"145 220 OFFCURVE",
"34 23 CURVE SMOOTH",
"-7 -50 OFFCURVE",
"-69 -143 OFFCURVE",
"-106 -160 CURVE SMOOTH",
"-114 -164 OFFCURVE",
"-110 -168 OFFCURVE",
"-94 -168 CURVE SMOOTH",
"-11 -168 OFFCURVE",
"305 446 OFFCURVE",
"424 539 CURVE SMOOTH",
"483 586 OFFCURVE",
"560 619 OFFCURVE",
"619 619 CURVE SMOOTH",
"669 619 OFFCURVE",
"705 595 OFFCURVE",
"705 535 CURVE SMOOTH",
"705 442 OFFCURVE",
"521 395 OFFCURVE",
"451 378 CURVE SMOOTH",
"414 370 OFFCURVE",
"398 352 OFFCURVE",
"398 340 CURVE SMOOTH",
"398 333 OFFCURVE",
"403 328 OFFCURVE",
"412 328 CURVE SMOOTH",
"421 328 OFFCURVE",
"439 329 OFFCURVE",
"451 329 CURVE SMOOTH",
"563 329 OFFCURVE",
"613 282 OFFCURVE",
"613 223 CURVE SMOOTH",
"613 74 OFFCURVE",
"381 -6 OFFCURVE",
"217 -6 CURVE SMOOTH",
"181 -6 OFFCURVE",
"151 -9 OFFCURVE",
"104 7 CURVE SMOOTH",
"100 9 OFFCURVE",
"91 12 OFFCURVE",
"86 12 CURVE SMOOTH",
"85 12 OFFCURVE",
"84 12 OFFCURVE",
"84 11 CURVE SMOOTH",
"84 9 OFFCURVE",
"87 5 OFFCURVE",
"96 -3 CURVE SMOOTH",
"117 -20 OFFCURVE",
"160 -58 OFFCURVE",
"280 -58 CURVE SMOOTH",
"459 -58 OFFCURVE",
"703 53 OFFCURVE",
"703 224 CURVE SMOOTH",
"703 294 OFFCURVE",
"644 350 OFFCURVE",
"505 355 CURVE SMOOTH",
"496 355 OFFCURVE",
"492 357 OFFCURVE",
"492 360 CURVE SMOOTH",
"492 363 OFFCURVE",
"500 367 OFFCURVE",
"516 370 CURVE SMOOTH",
"595 387 OFFCURVE",
"762 461 OFFCURVE",
"762 579 CURVE SMOOTH"
);
}
);
width = 731;
}
);
unicode = 1E9E;
},
{
glyphname = Schwa;
lastChange = "2021-11-16 06:11:06 +0000";
layers = (
{
hints = (
{
horizontal = 1;
place = "{717, -45}";
type = Stem;
},
{
horizontal = 1;
place = "{374, -24}";
type = Stem;
},
{
horizontal = 1;
place = "{37, -31}";
type = Stem;
},
{
place = "{856, -28}";
type = Stem;
},
{
place = "{113, -102}";
type = Stem;
}
);
layerId = "F2190ACF-0345-4BD7-9FAD-2D95E96981D2";
paths = (
{
closed = 1;
nodes = (
"441 717 OFFCURVE",
"234 645 OFFCURVE",
"130 533 CURVE",
"128 530 OFFCURVE",
"126 527 OFFCURVE",
"126 524 CURVE SMOOTH",
"126 522 OFFCURVE",
"127 518 OFFCURVE",
"131 518 CURVE SMOOTH",
"133 518 OFFCURVE",
"134 519 OFFCURVE",
"136 520 CURVE",
"242 606 OFFCURVE",
"335 639 OFFCURVE",
"469 663 CURVE SMOOTH",
"503 668 OFFCURVE",
"538 672 OFFCURVE",
"572 672 CURVE SMOOTH",
"682 672 OFFCURVE",
"828 629 OFFCURVE",
"828 495 CURVE SMOOTH",
"828 450 OFFCURVE",
"812 403 OFFCURVE",
"785 358 CURVE",
"780 389 OFFCURVE",
"685 395 OFFCURVE",
"666 395 CURVE SMOOTH",
"409 395 OFFCURVE",
"12 302 OFFCURVE",
"12 104 CURVE SMOOTH",
"12 29 OFFCURVE",
"104 6 OFFCURVE",
"164 6 CURVE SMOOTH",
"551 6 OFFCURVE",
"856 245 OFFCURVE",
"856 511 CURVE SMOOTH",
"856 657 OFFCURVE",
"718 717 OFFCURVE",
"590 717 CURVE SMOOTH"
);
},
{
closed = 1;
nodes = (
"177 36 OFFCURVE",
"114 44 OFFCURVE",
"114 91 CURVE SMOOTH",
"114 194 OFFCURVE",
"401 353 OFFCURVE",
"737 353 CURVE SMOOTH",
"756 353 OFFCURVE",
"768 346 OFFCURVE",
"775 346 CURVE SMOOTH",
"778 346 LINE",
"671 181 OFFCURVE",
"413 36 OFFCURVE",
"211 36 CURVE SMOOTH"
);
}
);
width = 789;
}
);
unicode = 018F;
},
{
glyphname = T;
lastChange = "2021-11-16 05:32:14 +0000";
layers = (
{
hints = (
{
horizontal = 1;
place = "{652, -20}";
target = down;
type = TopGhost;
},
{
place = "{-18, 17}";
type = Stem;
},
{
place = "{198, 67}";
type = Stem;
},
{
place = "{859, 34}";
type = Stem;
}
);
layerId = "F2190ACF-0345-4BD7-9FAD-2D95E96981D2";
paths = (
{
closed = 1;
nodes = (
"889 479 OFFCURVE",
"893 491 OFFCURVE",
"893 503 CURVE SMOOTH",
"893 564 OFFCURVE",
"787 628 OFFCURVE",
"591 647 CURVE SMOOTH",
"561 650 OFFCURVE",
"529 651 OFFCURVE",
"496 651 CURVE SMOOTH",
"362 651 OFFCURVE",
"204 628 OFFCURVE",
"87 582 CURVE SMOOTH",
"18 555 OFFCURVE",
"-18 505 OFFCURVE",
"-18 464 CURVE SMOOTH",
"-18 447 OFFCURVE",
"-12 432 OFFCURVE",
"0 421 CURVE SMOOTH",
"4 418 OFFCURVE",
"9 416 OFFCURVE",
"13 416 CURVE SMOOTH",
"15 416 OFFCURVE",
"16 417 OFFCURVE",
"16 418 CURVE SMOOTH",
"16 419 OFFCURVE",
"15 420 OFFCURVE",
"14 421 CURVE SMOOTH",
"4 430 OFFCURVE",
"-1 439 OFFCURVE",
"-1 448 CURVE SMOOTH",
"-1 522 OFFCURVE",
"344 564 OFFCURVE",
"422 572 CURVE SMOOTH",
"476 577 OFFCURVE",
"541 581 OFFCURVE",
"603 581 CURVE SMOOTH",
"736 581 OFFCURVE",
"860 564 OFFCURVE",
"860 506 CURVE SMOOTH",
"860 496 OFFCURVE",
"856 485 OFFCURVE",
"848 473 CURVE SMOOTH",
"841 462 OFFCURVE",
"838 455 OFFCURVE",
"838 450 CURVE SMOOTH",
"838 446 OFFCURVE",
"840 444 OFFCURVE",
"844 444 CURVE SMOOTH",
"853 444 OFFCURVE",
"872 456 OFFCURVE",
"880 467 CURVE SMOOTH"
);
},
{
closed = 1;
nodes = (
"519 554 OFFCURVE",
"515 562 OFFCURVE",
"507 562 CURVE SMOOTH",
"502 562 OFFCURVE",
"495 558 OFFCURVE",
"486 547 CURVE SMOOTH",
"304 291 OFFCURVE",
"253 220 OFFCURVE",
"226 145 CURVE SMOOTH",
"212 106 OFFCURVE",
"198 57 OFFCURVE",
"198 13 CURVE SMOOTH",
"198 -39 OFFCURVE",
"219 -83 OFFCURVE",
"288 -88 CURVE SMOOTH",
"308 -90 OFFCURVE",
"329 -84 OFFCURVE",
"340 -74 CURVE SMOOTH",
"344 -71 OFFCURVE",
"346 -68 OFFCURVE",
"346 -66 CURVE SMOOTH",
"346 -65 OFFCURVE",
"346 -64 OFFCURVE",
"344 -64 CURVE SMOOTH",
"343 -64 OFFCURVE",
"341 -65 OFFCURVE",
"338 -67 CURVE SMOOTH",
"330 -73 OFFCURVE",
"320 -77 OFFCURVE",
"310 -77 CURVE SMOOTH",
"276 -77 OFFCURVE",
"265 -47 OFFCURVE",
"265 -9 CURVE SMOOTH",
"265 44 OFFCURVE",
"287 113 OFFCURVE",
"297 141 CURVE SMOOTH",
"329 234 OFFCURVE",
"391 363 OFFCURVE",
"516 549 CURVE"
);
}
);
width = 433;
}
);
note = T;
unicode = 0054;
},
{
glyphname = U;
lastChange = "2021-11-16 05:32:14 +0000";
layers = (
{
hints = (
{
horizontal = 1;
place = "{-42, 20}";
type = Stem;
},
{
horizontal = 1;
place = "{626, 44}";
type = Stem;
},
{
place = "{194, 41}";
type = Stem;
},
{
place = "{387, 81}";
type = Stem;
}
);
layerId = "F2190ACF-0345-4BD7-9FAD-2D95E96981D2";
paths = (
{
closed = 1;
nodes = (
"847 566 OFFCURVE",
"838 573 OFFCURVE",
"822 573 CURVE SMOOTH",
"804 573 OFFCURVE",
"779 564 OFFCURVE",
"759 536 CURVE SMOOTH",
"664 400 OFFCURVE",
"495 85 OFFCURVE",
"336 -3 CURVE SMOOTH",
"313 -16 OFFCURVE",
"294 -22 OFFCURVE",
"279 -22 CURVE SMOOTH",
"249 -22 OFFCURVE",
"236 1 OFFCURVE",
"236 33 CURVE SMOOTH",
"236 49 OFFCURVE",
"239 68 OFFCURVE",
"246 88 CURVE SMOOTH",
"287 211 OFFCURVE",
"446 448 OFFCURVE",
"465 542 CURVE SMOOTH",
"467 551 OFFCURVE",
"468 560 OFFCURVE",
"468 568 CURVE SMOOTH",
"468 644 OFFCURVE",
"388 670 OFFCURVE",
"295 670 CURVE SMOOTH",
"190 670 OFFCURVE",
"67 636 OFFCURVE",
"25 602 CURVE SMOOTH",
"11 591 OFFCURVE",
"5 573 OFFCURVE",
"5 556 CURVE SMOOTH",
"5 534 OFFCURVE",
"15 515 OFFCURVE",
"29 515 CURVE SMOOTH",
"34 515 OFFCURVE",
"39 517 OFFCURVE",
"44 521 CURVE SMOOTH",
"91 559 OFFCURVE",
"228 626 OFFCURVE",
"313 626 CURVE SMOOTH",
"357 626 OFFCURVE",
"387 609 OFFCURVE",
"387 563 CURVE SMOOTH",
"387 462 OFFCURVE",
"219 228 OFFCURVE",
"196 74 CURVE SMOOTH",
"195 68 OFFCURVE",
"195 61 OFFCURVE",
"195 55 CURVE SMOOTH",
"195 3 OFFCURVE",
"227 -42 OFFCURVE",
"280 -42 CURVE SMOOTH",
"296 -42 OFFCURVE",
"313 -38 OFFCURVE",
"332 -29 CURVE SMOOTH",
"387 -2 OFFCURVE",
"454 60 OFFCURVE",
"520 146 CURVE",
"497 104 OFFCURVE",
"452 16 OFFCURVE",
"452 -48 CURVE SMOOTH",
"452 -92 OFFCURVE",
"473 -125 OFFCURVE",
"538 -125 CURVE SMOOTH",
"554 -125 OFFCURVE",
"576 -113 OFFCURVE",
"585 -105 CURVE SMOOTH",
"591 -101 OFFCURVE",
"591 -97 OFFCURVE",
"588 -97 CURVE SMOOTH",
"587 -97 OFFCURVE",
"585 -97 OFFCURVE",
"583 -99 CURVE SMOOTH",
"577 -105 OFFCURVE",
"568 -108 OFFCURVE",
"559 -108 CURVE SMOOTH",
"557 -108 OFFCURVE",
"554 -107 OFFCURVE",
"552 -107 CURVE SMOOTH",
"529 -102 OFFCURVE",
"519 -82 OFFCURVE",
"519 -52 CURVE SMOOTH",
"519 96 OFFCURVE",
"770 490 OFFCURVE",
"839 558 CURVE SMOOTH"
);
}
);
width = 674;
}
);
note = U;
unicode = 0055;
},
{
glyphname = V;
lastChange = "2021-11-16 05:32:14 +0000";
layers = (
{
hints = (
{
horizontal = 1;
place = "{629, 27}";
type = Stem;
},
{
place = "{283, 96}";
type = Stem;
}
);
layerId = "F2190ACF-0345-4BD7-9FAD-2D95E96981D2";
paths = (
{
closed = 1;
nodes = (
"953 648 OFFCURVE",
"938 653 OFFCURVE",
"919 653 CURVE SMOOTH",
"883 653 OFFCURVE",
"835 634 OFFCURVE",
"801 614 CURVE SMOOTH",
"640 519 OFFCURVE",
"440 243 OFFCURVE",
"321 63 CURVE",
"360 206 OFFCURVE",
"378 318 OFFCURVE",
"378 409 CURVE SMOOTH",
"378 459 OFFCURVE",
"372 502 OFFCURVE",
"362 541 CURVE SMOOTH",
"340 623 OFFCURVE",
"292 655 OFFCURVE",
"240 655 CURVE SMOOTH",
"168 655 OFFCURVE",
"86 596 OFFCURVE",
"45 518 CURVE SMOOTH",
"23 475 OFFCURVE",
"11 409 OFFCURVE",
"11 355 CURVE SMOOTH",
"11 324 OFFCURVE",
"15 296 OFFCURVE",
"23 279 CURVE",
"27 269 OFFCURVE",
"32 274 OFFCURVE",
"32 284 CURVE SMOOTH",
"32 284 OFFCURVE",
"32 285 OFFCURVE",
"32 286 CURVE SMOOTH",
"27 350 OFFCURVE",
"42 421 OFFCURVE",
"69 482 CURVE SMOOTH",
"114 583 OFFCURVE",
"164 629 OFFCURVE",
"205 629 CURVE SMOOTH",
"250 629 OFFCURVE",
"283 572 OFFCURVE",
"283 473 CURVE SMOOTH",
"283 463 OFFCURVE",
"283 453 OFFCURVE",
"282 443 CURVE SMOOTH",
"271 250 OFFCURVE",
"201 12 OFFCURVE",
"189 -32 CURVE SMOOTH",
"187 -40 OFFCURVE",
"242 -22 OFFCURVE",
"277 -6 CURVE",
"253 -44 OFFCURVE",
"236 -74 OFFCURVE",
"227 -89 CURVE SMOOTH",
"223 -96 OFFCURVE",
"228 -101 OFFCURVE",
"233 -101 CURVE SMOOTH",
"237 -101 OFFCURVE",
"241 -99 OFFCURVE",
"243 -95 CURVE SMOOTH",
"303 15 OFFCURVE",
"738 643 OFFCURVE",
"949 628 CURVE SMOOTH",
"955 627 OFFCURVE",
"964 626 OFFCURVE",
"964 631 CURVE SMOOTH",
"964 633 OFFCURVE",
"963 634 OFFCURVE",
"962 636 CURVE"
);
}
);
width = 484;
}
);
note = V;
unicode = 0056;
},
{
glyphname = W;
lastChange = "2021-11-16 05:32:14 +0000";
layers = (
{
hints = (
{
horizontal = 1;
place = "{598, 25}";
type = Stem;
},
{
horizontal = 1;
place = "{639, 25}";
type = Stem;
},
{
place = "{8, 15}";
type = Stem;
},
{
place = "{314, 88}";
type = Stem;
},
{
place = "{672, 84}";
type = Stem;
}
);
layerId = "F2190ACF-0345-4BD7-9FAD-2D95E96981D2";
paths = (
{
closed = 1;
nodes = (
"1244 659 OFFCURVE",
"1229 664 OFFCURVE",
"1210 664 CURVE SMOOTH",
"1174 664 OFFCURVE",
"1126 646 OFFCURVE",
"1093 626 CURVE SMOOTH",
"957 544 OFFCURVE",
"795 314 OFFCURVE",
"686 142 CURVE",
"721 240 OFFCURVE",
"756 368 OFFCURVE",
"756 455 CURVE SMOOTH",
"756 514 OFFCURVE",
"740 554 OFFCURVE",
"697 554 CURVE SMOOTH",
"669 554 OFFCURVE",
"629 537 OFFCURVE",
"575 497 CURVE SMOOTH",
"502 443 OFFCURVE",
"418 357 OFFCURVE",
"358 268 CURVE",
"390 363 OFFCURVE",
"402 436 OFFCURVE",
"402 493 CURVE SMOOTH",
"402 586 OFFCURVE",
"355 623 OFFCURVE",
"293 623 CURVE SMOOTH",
"217 623 OFFCURVE",
"120 567 OFFCURVE",
"69 491 CURVE SMOOTH",
"33 437 OFFCURVE",
"8 346 OFFCURVE",
"8 287 CURVE SMOOTH",
"8 273 OFFCURVE",
"10 260 OFFCURVE",
"13 251 CURVE SMOOTH",
"16 241 OFFCURVE",
"22 247 OFFCURVE",
"23 259 CURVE SMOOTH",
"27 323 OFFCURVE",
"52 394 OFFCURVE",
"88 455 CURVE SMOOTH",
"145 554 OFFCURVE",
"205 598 OFFCURVE",
"249 598 CURVE SMOOTH",
"288 598 OFFCURVE",
"314 563 OFFCURVE",
"314 501 CURVE SMOOTH",
"314 474 OFFCURVE",
"310 443 OFFCURVE",
"299 407 CURVE SMOOTH",
"243 214 OFFCURVE",
"114 -28 OFFCURVE",
"92 -73 CURVE SMOOTH",
"86 -84 OFFCURVE",
"213 -39 OFFCURVE",
"220 -28 CURVE SMOOTH",
"253 27 OFFCURVE",
"284 90 OFFCURVE",
"312 156 CURVE",
"423 325 OFFCURVE",
"579 492 OFFCURVE",
"643 492 CURVE SMOOTH",
"661 492 OFFCURVE",
"672 479 OFFCURVE",
"672 448 CURVE SMOOTH",
"672 432 OFFCURVE",
"669 411 OFFCURVE",
"663 385 CURVE SMOOTH",
"616 193 OFFCURVE",
"534 22 OFFCURVE",
"515 -23 CURVE",
"509 -34 OFFCURVE",
"630 10 OFFCURVE",
"636 22 CURVE",
"770 224 OFFCURVE",
"1070 652 OFFCURVE",
"1240 639 CURVE SMOOTH",
"1246 639 OFFCURVE",
"1255 638 OFFCURVE",
"1255 643 CURVE SMOOTH",
"1255 644 OFFCURVE",
"1254 645 OFFCURVE",
"1253 647 CURVE SMOOTH"
);
}
);
width = 814;
}
);
note = W;
unicode = 0057;
},
{
glyphname = X;
lastChange = "2021-11-16 05:32:14 +0000";
layers = (
{
hints = (
{
horizontal = 1;
place = "{-31, 14}";
type = Stem;
},
{
horizontal = 1;
place = "{664, -20}";
target = down;
type = TopGhost;
},
{
place = "{94, 89}";
type = Stem;
}
);
layerId = "F2190ACF-0345-4BD7-9FAD-2D95E96981D2";
paths = (
{
closed = 1;
nodes = (
"612 669 OFFCURVE",
"387 497 OFFCURVE",
"197 306 CURVE",
"188 352 OFFCURVE",
"183 399 OFFCURVE",
"183 441 CURVE SMOOTH",
"183 494 OFFCURVE",
"191 540 OFFCURVE",
"209 568 CURVE SMOOTH",
"212 573 OFFCURVE",
"214 577 OFFCURVE",
"214 580 CURVE SMOOTH",
"214 586 OFFCURVE",
"207 589 OFFCURVE",
"198 589 CURVE SMOOTH",
"173 589 OFFCURVE",
"125 569 OFFCURVE",
"115 551 CURVE SMOOTH",
"101 527 OFFCURVE",
"94 486 OFFCURVE",
"94 438 CURVE SMOOTH",
"94 377 OFFCURVE",
"105 304 OFFCURVE",
"131 237 CURVE",
"20 118 OFFCURVE",
"-75 0 OFFCURVE",
"-135 -81 CURVE SMOOTH",
"-140 -88 OFFCURVE",
"-142 -94 OFFCURVE",
"-142 -98 CURVE SMOOTH",
"-142 -100 OFFCURVE",
"-141 -102 OFFCURVE",
"-139 -102 CURVE SMOOTH",
"-135 -102 OFFCURVE",
"-129 -98 OFFCURVE",
"-123 -89 CURVE SMOOTH",
"-78 -27 OFFCURVE",
"23 86 OFFCURVE",
"144 205 CURVE",
"200 78 OFFCURVE",
"290 -31 OFFCURVE",
"379 -31 CURVE SMOOTH",
"410 -31 OFFCURVE",
"433 -28 OFFCURVE",
"453 -3 CURVE SMOOTH",
"456 1 OFFCURVE",
"453 5 OFFCURVE",
"450 5 CURVE SMOOTH",
"449 5 OFFCURVE",
"447 4 OFFCURVE",
"446 3 CURVE SMOOTH",
"435 -11 OFFCURVE",
"417 -17 OFFCURVE",
"397 -17 CURVE SMOOTH",
"382 -17 OFFCURVE",
"365 -13 OFFCURVE",
"350 -5 CURVE SMOOTH",
"297 24 OFFCURVE",
"238 141 OFFCURVE",
"206 266 CURVE",
"279 336 OFFCURVE",
"357 405 OFFCURVE",
"433 465 CURVE SMOOTH",
"574 578 OFFCURVE",
"711 658 OFFCURVE",
"795 656 CURVE SMOOTH",
"800 656 OFFCURVE",
"801 664 OFFCURVE",
"796 664 CURVE SMOOTH"
);
}
);
width = 500;
}
);
note = X;
unicode = 0058;
},
{
glyphname = Y;
lastChange = "2021-11-16 05:32:14 +0000";
layers = (
{
hints = (
{
horizontal = 1;
place = "{-313, 32}";
type = Stem;
},
{
horizontal = 1;
place = "{-27, 21}";
type = Stem;
},
{
horizontal = 1;
place = "{598, 63}";
type = Stem;
},
{
place = "{9, 15}";
type = Stem;
},
{
place = "{317, 28}";
type = Stem;
},
{
place = "{542, 59}";
type = Stem;
}
);
layerId = "F2190ACF-0345-4BD7-9FAD-2D95E96981D2";
paths = (
{
closed = 1;
nodes = (
"861 625 OFFCURVE",
"858 627 OFFCURVE",
"855 627 CURVE SMOOTH",
"853 627 OFFCURVE",
"851 626 OFFCURVE",
"849 625 CURVE",
"845 624 OFFCURVE",
"839 616 OFFCURVE",
"834 600 CURVE SMOOTH",
"803 497 OFFCURVE",
"727 373 OFFCURVE",
"634 238 CURVE SMOOTH",
"604 194 OFFCURVE",
"439 -6 OFFCURVE",
"371 -6 CURVE SMOOTH",
"352 -6 OFFCURVE",
"345 6 OFFCURVE",
"345 23 CURVE SMOOTH",
"345 80 OFFCURVE",
"425 208 OFFCURVE",
"485 313 CURVE SMOOTH",
"533 395 OFFCURVE",
"601 498 OFFCURVE",
"601 570 CURVE SMOOTH",
"601 624 OFFCURVE",
"564 661 OFFCURVE",
"453 661 CURVE SMOOTH",
"338 661 OFFCURVE",
"174 623 OFFCURVE",
"70 564 CURVE SMOOTH",
"28 540 OFFCURVE",
"9 505 OFFCURVE",
"9 476 CURVE SMOOTH",
"9 458 OFFCURVE",
"16 442 OFFCURVE",
"31 432 CURVE SMOOTH",
"34 430 OFFCURVE",
"37 430 OFFCURVE",
"40 430 CURVE SMOOTH",
"42 430 OFFCURVE",
"44 430 OFFCURVE",
"44 431 CURVE SMOOTH",
"44 431 OFFCURVE",
"43 432 OFFCURVE",
"42 433 CURVE SMOOTH",
"30 441 OFFCURVE",
"24 450 OFFCURVE",
"24 459 CURVE SMOOTH",
"24 486 OFFCURVE",
"80 514 OFFCURVE",
"148 538 CURVE SMOOTH",
"204 557 OFFCURVE",
"341 598 OFFCURVE",
"437 598 CURVE SMOOTH",
"515 598 OFFCURVE",
"542 568 OFFCURVE",
"542 525 CURVE SMOOTH",
"542 463 OFFCURVE",
"488 379 OFFCURVE",
"460 332 CURVE SMOOTH",
"396 222 OFFCURVE",
"317 80 OFFCURVE",
"317 12 CURVE SMOOTH",
"317 -8 OFFCURVE",
"324 -22 OFFCURVE",
"341 -26 CURVE SMOOTH",
"345 -27 OFFCURVE",
"349 -27 OFFCURVE",
"353 -27 CURVE SMOOTH",
"441 -27 OFFCURVE",
"595 148 OFFCURVE",
"642 206 CURVE SMOOTH",
"728 314 OFFCURVE",
"814 463 OFFCURVE",
"847 574 CURVE",
"853 448 OFFCURVE",
"801 268 OFFCURVE",
"644 30 CURVE SMOOTH",
"560 -97 OFFCURVE",
"439 -281 OFFCURVE",
"296 -281 CURVE SMOOTH",
"195 -281 OFFCURVE",
"108 -185 OFFCURVE",
"89 -45 CURVE SMOOTH",
"88 -37 OFFCURVE",
"84 -32 OFFCURVE",
"80 -32 CURVE SMOOTH",
"77 -32 OFFCURVE",
"75 -35 OFFCURVE",
"75 -43 CURVE SMOOTH",
"75 -44 OFFCURVE",
"75 -46 OFFCURVE",
"75 -47 CURVE SMOOTH",
"97 -239 OFFCURVE",
"205 -313 OFFCURVE",
"335 -313 CURVE SMOOTH",
"476 -313 OFFCURVE",
"614 -200 OFFCURVE",
"710 -60 CURVE SMOOTH",
"805 79 OFFCURVE",
"882 315 OFFCURVE",
"882 490 CURVE SMOOTH",
"882 539 OFFCURVE",
"876 583 OFFCURVE",
"863 619 CURVE SMOOTH"
);
}
);
width = 912;
}
);
note = Y;
unicode = 0059;
},
{
glyphname = Z;
lastChange = "2021-11-16 05:32:14 +0000";
layers = (
{
hints = (
{
horizontal = 1;
place = "{33, 89}";
type = Stem;
},
{
horizontal = 1;
place = "{590, 67}";
type = Stem;
},
{
place = "{179, 15}";
type = Stem;
},
{
place = "{721, 12}";
type = Stem;
}
);
layerId = "F2190ACF-0345-4BD7-9FAD-2D95E96981D2";
paths = (
{
closed = 1;
nodes = (
"777 613 OFFCURVE",
"715 637 OFFCURVE",
"667 646 CURVE SMOOTH",
"628 653 OFFCURVE",
"584 657 OFFCURVE",
"539 657 CURVE SMOOTH",
"461 657 OFFCURVE",
"379 646 OFFCURVE",
"315 622 CURVE SMOOTH",
"235 592 OFFCURVE",
"179 530 OFFCURVE",
"179 480 CURVE SMOOTH",
"179 463 OFFCURVE",
"185 448 OFFCURVE",
"199 435 CURVE SMOOTH",
"202 432 OFFCURVE",
"207 431 OFFCURVE",
"210 431 CURVE SMOOTH",
"211 431 OFFCURVE",
"212 431 OFFCURVE",
"212 432 CURVE SMOOTH",
"212 433 OFFCURVE",
"212 434 OFFCURVE",
"211 435 CURVE SMOOTH",
"200 448 OFFCURVE",
"194 460 OFFCURVE",
"194 471 CURVE SMOOTH",
"194 544 OFFCURVE",
"405 590 OFFCURVE",
"567 590 CURVE SMOOTH",
"643 590 OFFCURVE",
"709 580 OFFCURVE",
"735 557 CURVE",
"535 493 OFFCURVE",
"242 258 OFFCURVE",
"75 91 CURVE",
"72 89 LINE",
"52 80 OFFCURVE",
"19 60 OFFCURVE",
"7 52 CURVE SMOOTH",
"-4 44 OFFCURVE",
"-8 35 OFFCURVE",
"-8 25 CURVE SMOOTH",
"-8 2 OFFCURVE",
"20 -20 OFFCURVE",
"41 -16 CURVE SMOOTH",
"105 -4 OFFCURVE",
"352 33 OFFCURVE",
"530 33 CURVE SMOOTH",
"638 33 OFFCURVE",
"721 19 OFFCURVE",
"721 -23 CURVE SMOOTH",
"721 -30 OFFCURVE",
"719 -37 OFFCURVE",
"715 -45 CURVE SMOOTH",
"712 -50 OFFCURVE",
"713 -54 OFFCURVE",
"717 -54 CURVE SMOOTH",
"719 -54 OFFCURVE",
"723 -51 OFFCURVE",
"726 -44 CURVE SMOOTH",
"731 -33 OFFCURVE",
"733 -22 OFFCURVE",
"733 -12 CURVE SMOOTH",
"733 89 OFFCURVE",
"505 122 OFFCURVE",
"322 122 CURVE SMOOTH",
"235 122 OFFCURVE",
"157 115 OFFCURVE",
"121 103 CURVE",
"257 223 OFFCURVE",
"502 414 OFFCURVE",
"757 530 CURVE",
"760 532 LINE",
"761 525 OFFCURVE",
"760 518 OFFCURVE",
"757 510 CURVE SMOOTH",
"753 503 OFFCURVE",
"759 499 OFFCURVE",
"763 510 CURVE SMOOTH",
"767 521 OFFCURVE",
"770 530 OFFCURVE",
"771 539 CURVE",
"775 542 OFFCURVE",
"776 545 OFFCURVE",
"776 548 CURVE SMOOTH",
"776 551 OFFCURVE",
"775 553 OFFCURVE",
"773 555 CURVE"
);
}
);
width = 743;
}
);
note = Z;
unicode = 005A;
},
{
glyphname = a;
lastChange = "2021-11-16 05:59:13 +0000";
layers = (
{
background = {
paths = (
{
closed = 0;
nodes = (
"290 -6 LINE SMOOTH",
"306 -6 OFFCURVE",
"326 -1 OFFCURVE",
"347 9 CURVE SMOOTH",
"398 33 OFFCURVE",
"454 84 OFFCURVE",
"494 121 CURVE SMOOTH",
"497 124 OFFCURVE",
"499 128 OFFCURVE",
"499 132 CURVE SMOOTH",
"499 135 OFFCURVE",
"497 137 OFFCURVE",
"495 137 CURVE SMOOTH",
"493 137 OFFCURVE",
"491 136 OFFCURVE",
"488 133 CURVE SMOOTH",
"463 111 OFFCURVE",
"412 67 OFFCURVE",
"383 49 CURVE SMOOTH",
"368 40 OFFCURVE",
"353 34 OFFCURVE",
"344 34 CURVE SMOOTH",
"337 34 OFFCURVE",
"333 37 OFFCURVE",
"333 44 CURVE SMOOTH",
"333 53 OFFCURVE",
"339 68 OFFCURVE",
"356 90 CURVE SMOOTH"
);
}
);
};
hints = (
{
horizontal = 1;
place = "{252, 30}";
type = Stem;
},
{
place = "{-4, 78}";
type = Stem;
},
{
place = "{225, 73}";
type = Stem;
},
{
place = "{328, 65}";
type = Stem;
}
);
layerId = "F2190ACF-0345-4BD7-9FAD-2D95E96981D2";
paths = (
{
closed = 1;
nodes = (
"497 124 OFFCURVE",
"499 128 OFFCURVE",
"499 132 CURVE SMOOTH",
"499 135 OFFCURVE",
"497 137 OFFCURVE",
"495 137 CURVE SMOOTH",
"492 137 OFFCURVE",
"493 137 OFFCURVE",
"488 133 CURVE SMOOTH",
"463 111 OFFCURVE",
"413 70 OFFCURVE",
"364 42 CURVE SMOOTH",
"341 29 OFFCURVE",
"324 23 OFFCURVE",
"313 23 CURVE SMOOTH",
"303 23 OFFCURVE",
"298 29 OFFCURVE",
"298 38 CURVE SMOOTH",
"298 52 OFFCURVE",
"308 74 OFFCURVE",
"324 98 CURVE SMOOTH",
"344 128 OFFCURVE",
"371 158 OFFCURVE",
"381 171 CURVE SMOOTH",
"389 181 OFFCURVE",
"392 189 OFFCURVE",
"392 196 CURVE SMOOTH",
"392 217 OFFCURVE",
"362 224 OFFCURVE",
"348 224 CURVE",
"342 241 OFFCURVE",
"333 252 OFFCURVE",
"309 267 CURVE SMOOTH",
"291 278 OFFCURVE",
"270 282 OFFCURVE",
"247 282 CURVE SMOOTH",
"184 282 OFFCURVE",
"108 247 OFFCURVE",
"61 197 CURVE SMOOTH",
"16 149 OFFCURVE",
"-4 100 OFFCURVE",
"-4 62 CURVE SMOOTH",
"-4 20 OFFCURVE",
"20 -8 OFFCURVE",
"61 -8 CURVE SMOOTH",
"82 -8 OFFCURVE",
"108 -1 OFFCURVE",
"138 17 CURVE SMOOTH",
"173 38 OFFCURVE",
"207 65 OFFCURVE",
"242 108 CURVE",
"235 91 LINE SMOOTH",
"229 76 OFFCURVE",
"225 61 OFFCURVE",
"225 48 CURVE SMOOTH",
"225 15 OFFCURVE",
"244 -8 OFFCURVE",
"280 -8 CURVE SMOOTH",
"295 -8 OFFCURVE",
"313 -4 OFFCURVE",
"334 6 CURVE SMOOTH",
"398 35 OFFCURVE",
"475 104 OFFCURVE",
"494 121 CURVE SMOOTH"
);
},
{
closed = 1;
nodes = (
"318 253 OFFCURVE",
"327 246 OFFCURVE",
"327 234 CURVE SMOOTH",
"327 198 OFFCURVE",
"238 122 OFFCURVE",
"223 106 CURVE SMOOTH",
"163 46 OFFCURVE",
"116 18 OFFCURVE",
"92 18 CURVE SMOOTH",
"80 18 OFFCURVE",
"74 25 OFFCURVE",
"74 37 CURVE SMOOTH",
"74 60 OFFCURVE",
"96 104 OFFCURVE",
"147 164 CURVE SMOOTH",
"196 222 OFFCURVE",
"255 253 OFFCURVE",
"294 253 CURVE SMOOTH"
);
}
);
width = 482;
}
);
note = a;
unicode = 0061;
},
{
glyphname = ae;
layers = (
{
hints = (
{
horizontal = 1;
place = "{-17, 26}";
type = Stem;
},
{
horizontal = 1;
place = "{252, 30}";
type = Stem;
},
{
place = "{-4, 78}";
type = Stem;
},
{
place = "{225, 93}";
type = Stem;
},
{
place = "{532, 28}";
type = Stem;
}
);
layerId = "F2190ACF-0345-4BD7-9FAD-2D95E96981D2";
paths = (
{
closed = 1;
nodes = (
"637 157 OFFCURVE",
"637 175 OFFCURVE",
"622 161 CURVE SMOOTH",
"574 113 OFFCURVE",
"451 11 OFFCURVE",
"382 10 CURVE SMOOTH",
"341 9 OFFCURVE",
"312 27 OFFCURVE",
"319 66 CURVE SMOOTH",
"330 126 OFFCURVE",
"408 212 OFFCURVE",
"460 236 CURVE SMOOTH",
"530 268 OFFCURVE",
"570 206 OFFCURVE",
"478 156 CURVE SMOOTH",
"444 138 OFFCURVE",
"402 128 OFFCURVE",
"385 128 CURVE SMOOTH",
"365 128 OFFCURVE",
"366 120 OFFCURVE",
"384 119 CURVE SMOOTH",
"411 118 OFFCURVE",
"457 130 OFFCURVE",
"487 144 CURVE SMOOTH",
"581 189 OFFCURVE",
"587 273 OFFCURVE",
"485 276 CURVE SMOOTH",
"438 278 OFFCURVE",
"387 262 OFFCURVE",
"344 234 CURVE",
"338 245 OFFCURVE",
"329 255 OFFCURVE",
"309 267 CURVE SMOOTH",
"244 306 OFFCURVE",
"126 266 OFFCURVE",
"61 197 CURVE SMOOTH",
"-60 68 OFFCURVE",
"-1 -65 OFFCURVE",
"138 17 CURVE SMOOTH",
"173 38 OFFCURVE",
"207 65 OFFCURVE",
"242 108 CURVE",
"235 91 LINE SMOOTH",
"201 13 OFFCURVE",
"262 -30 OFFCURVE",
"347 -17 CURVE",
"456 -15 OFFCURVE",
"552 79 OFFCURVE",
"628 148 CURVE SMOOTH"
);
},
{
closed = 1;
nodes = (
"356 222 OFFCURVE",
"240 124 OFFCURVE",
"223 106 CURVE SMOOTH",
"81 -38 OFFCURVE",
"11 4 OFFCURVE",
"147 164 CURVE SMOOTH",
"210 238 OFFCURVE",
"288 268 OFFCURVE",
"320 246 CURVE SMOOTH"
);
}
);
width = 586;
}
);
note = ae;
unicode = 00E6;
},
{
glyphname = b;
layers = (
{
hints = (
{
horizontal = 1;
place = "{-24, 20}";
type = Stem;
},
{
horizontal = 1;
place = "{597, -20}";
target = down;
type = TopGhost;
},
{
place = "{86, 12}";
type = Stem;
},
{
place = "{302, 90}";
type = Stem;
}
);
layerId = "F2190ACF-0345-4BD7-9FAD-2D95E96981D2";
paths = (
{
closed = 1;
nodes = (
"319 321 OFFCURVE",
"241 285 OFFCURVE",
"177 221 CURVE",
"247 343 OFFCURVE",
"313 482 OFFCURVE",
"307 536 CURVE SMOOTH",
"302 580 OFFCURVE",
"282 596 OFFCURVE",
"254 597 CURVE SMOOTH",
"251 597 OFFCURVE",
"251 593 OFFCURVE",
"254 593 CURVE SMOOTH",
"279 592 OFFCURVE",
"274 564 OFFCURVE",
"269 548 CURVE SMOOTH",
"253 494 OFFCURVE",
"195 393 OFFCURVE",
"121 278 CURVE SMOOTH",
"58 178 OFFCURVE",
"27 154 OFFCURVE",
"-15 118 CURVE SMOOTH",
"-31 104 OFFCURVE",
"-21 97 OFFCURVE",
"-10 106 CURVE SMOOTH",
"7 120 OFFCURVE",
"30 140 OFFCURVE",
"47 157 CURVE",
"6 93 OFFCURVE",
"-37 33 OFFCURVE",
"-54 9 CURVE",
"-35 -8 OFFCURVE",
"-13 -13 OFFCURVE",
"1 -12 CURVE SMOOTH",
"16 -12 OFFCURVE",
"27 -3 OFFCURVE",
"41 13 CURVE SMOOTH",
"53 26 OFFCURVE",
"72 52 OFFCURVE",
"94 85 CURVE",
"82 42 OFFCURVE",
"84 4 OFFCURVE",
"109 -13 CURVE SMOOTH",
"160 -47 OFFCURVE",
"255 1 OFFCURVE",
"322 80 CURVE SMOOTH",
"388 158 OFFCURVE",
"417 255 OFFCURVE",
"365 291 CURVE SMOOTH"
);
},
{
closed = 1;
nodes = (
"312 212 OFFCURVE",
"309 143 OFFCURVE",
"263 71 CURVE SMOOTH",
"217 0 OFFCURVE",
"152 -29 OFFCURVE",
"119 -8 CURVE SMOOTH",
"89 12 OFFCURVE",
"91 81 OFFCURVE",
"138 152 CURVE SMOOTH",
"183 223 OFFCURVE",
"249 253 OFFCURVE",
"281 232 CURVE SMOOTH"
);
}
);
width = 400;
}
);
note = b;
unicode = 0062;
},
{
glyphname = c;
lastChange = "2021-11-16 05:32:14 +0000";
layers = (
{
hints = (
{
horizontal = 1;
place = "{-17, 25}";
type = Stem;
},
{
horizontal = 1;
place = "{276, -20}";
target = down;
type = TopGhost;
},
{
place = "{-4, 88}";
type = Stem;
},
{
place = "{288, 24}";
type = Stem;
}
);
layerId = "F2190ACF-0345-4BD7-9FAD-2D95E96981D2";
paths = (
{
closed = 1;
nodes = (
"386 151 OFFCURVE",
"388 156 OFFCURVE",
"388 160 CURVE SMOOTH",
"388 163 OFFCURVE",
"387 165 OFFCURVE",
"384 165 CURVE SMOOTH",
"381 165 OFFCURVE",
"378 163 OFFCURVE",
"374 159 CURVE SMOOTH",
"338 126 OFFCURVE",
"276 72 OFFCURVE",
"229 42 CURVE SMOOTH",
"190 18 OFFCURVE",
"159 8 OFFCURVE",
"136 8 CURVE SMOOTH",
"101 8 OFFCURVE",
"84 30 OFFCURVE",
"84 61 CURVE SMOOTH",
"84 124 OFFCURVE",
"165 218 OFFCURVE",
"224 244 CURVE SMOOTH",
"243 253 OFFCURVE",
"258 257 OFFCURVE",
"268 257 CURVE SMOOTH",
"283 257 OFFCURVE",
"289 249 OFFCURVE",
"289 237 CURVE SMOOTH",
"289 227 OFFCURVE",
"285 214 OFFCURVE",
"277 200 CURVE SMOOTH",
"275 197 OFFCURVE",
"274 194 OFFCURVE",
"274 191 CURVE SMOOTH",
"274 186 OFFCURVE",
"278 184 OFFCURVE",
"283 184 CURVE SMOOTH",
"291 184 OFFCURVE",
"302 190 OFFCURVE",
"307 201 CURVE SMOOTH",
"311 209 OFFCURVE",
"313 217 OFFCURVE",
"313 225 CURVE SMOOTH",
"313 253 OFFCURVE",
"287 276 OFFCURVE",
"233 276 CURVE SMOOTH",
"124 276 OFFCURVE",
"-4 184 OFFCURVE",
"-4 67 CURVE SMOOTH",
"-4 12 OFFCURVE",
"40 -17 OFFCURVE",
"98 -17 CURVE SMOOTH",
"128 -17 OFFCURVE",
"161 -9 OFFCURVE",
"195 6 CURVE SMOOTH",
"259 35 OFFCURVE",
"330 100 OFFCURVE",
"382 148 CURVE SMOOTH"
);
}
);
width = 342;
}
);
note = c;
unicode = 0063;
},
{
glyphname = d;
lastChange = "2021-11-16 05:37:20 +0000";
layers = (
{
hints = (
{
horizontal = 1;
place = "{-25, 34}";
type = Stem;
},
{
horizontal = 1;
place = "{254, 22}";
type = Stem;
},
{
place = "{1, 88}";
type = Stem;
},
{
place = "{249, 23}";
type = Stem;
}
);
layerId = "F2190ACF-0345-4BD7-9FAD-2D95E96981D2";
paths = (
{
closed = 1;
nodes = (
"572 485 OFFCURVE",
"549 492 OFFCURVE",
"527 492 CURVE SMOOTH",
"504 492 OFFCURVE",
"481 484 OFFCURVE",
"466 467 CURVE SMOOTH",
"434 431 OFFCURVE",
"371 331 OFFCURVE",
"321 225 CURVE",
"321 253 OFFCURVE",
"296 276 OFFCURVE",
"240 276 CURVE SMOOTH",
"174 276 OFFCURVE",
"102 241 OFFCURVE",
"55 189 CURVE SMOOTH",
"28 160 OFFCURVE",
"6 132 OFFCURVE",
"-11 118 CURVE SMOOTH",
"-17 113 OFFCURVE",
"-21 108 OFFCURVE",
"-21 104 CURVE SMOOTH",
"-21 101 OFFCURVE",
"-19 99 OFFCURVE",
"-16 99 CURVE SMOOTH",
"-13 99 OFFCURVE",
"-11 100 OFFCURVE",
"-8 102 CURVE SMOOTH",
"-1 107 OFFCURVE",
"6 114 OFFCURVE",
"14 121 CURVE",
"9 105 OFFCURVE",
"5 89 OFFCURVE",
"5 72 CURVE SMOOTH",
"5 5 OFFCURVE",
"45 -25 OFFCURVE",
"94 -25 CURVE SMOOTH",
"125 -25 OFFCURVE",
"158 -13 OFFCURVE",
"185 9 CURVE SMOOTH",
"213 33 OFFCURVE",
"247 69 OFFCURVE",
"272 101 CURVE",
"260 60 OFFCURVE",
"252 22 OFFCURVE",
"252 -11 CURVE SMOOTH",
"252 -47 OFFCURVE",
"261 -77 OFFCURVE",
"283 -95 CURVE SMOOTH",
"286 -97 OFFCURVE",
"292 -94 OFFCURVE",
"288 -89 CURVE SMOOTH",
"279 -78 OFFCURVE",
"275 -62 OFFCURVE",
"275 -43 CURVE SMOOTH",
"275 30 OFFCURVE",
"333 150 OFFCURVE",
"395 240 CURVE SMOOTH",
"464 340 OFFCURVE",
"562 454 OFFCURVE",
"588 471 CURVE"
);
},
{
closed = 1;
nodes = (
"297 171 OFFCURVE",
"290 154 OFFCURVE",
"284 136 CURVE",
"276 123 OFFCURVE",
"266 109 OFFCURVE",
"247 91 CURVE SMOOTH",
"188 31 OFFCURVE",
"149 9 OFFCURVE",
"125 9 CURVE SMOOTH",
"101 9 OFFCURVE",
"92 31 OFFCURVE",
"92 57 CURVE SMOOTH",
"92 63 OFFCURVE",
"93 71 OFFCURVE",
"94 78 CURVE SMOOTH",
"106 142 OFFCURVE",
"180 223 OFFCURVE",
"242 247 CURVE SMOOTH",
"256 252 OFFCURVE",
"267 255 OFFCURVE",
"277 255 CURVE SMOOTH",
"292 255 OFFCURVE",
"301 248 OFFCURVE",
"301 234 CURVE SMOOTH",
"301 227 OFFCURVE",
"298 216 OFFCURVE",
"291 204 CURVE SMOOTH",
"289 200 OFFCURVE",
"288 196 OFFCURVE",
"288 194 CURVE SMOOTH",
"288 188 OFFCURVE",
"291 185 OFFCURVE",
"296 185 CURVE SMOOTH",
"298 185 OFFCURVE",
"302 187 OFFCURVE",
"305 189 CURVE"
);
}
);
width = 397;
}
);
note = d;
unicode = 0064;
},
{
glyphname = e;
lastChange = "2021-11-16 05:32:14 +0000";
layers = (
{
hints = (
{
horizontal = 1;
place = "{-17, 26}";
type = Stem;
},
{
horizontal = 1;
place = "{244, 32}";
type = Stem;
},
{
place = "{-4, 88}";
type = Stem;
},
{
place = "{286, 28}";
type = Stem;
}
);
layerId = "F2190ACF-0345-4BD7-9FAD-2D95E96981D2";
paths = (
{
closed = 1;
nodes = (
"386 151 OFFCURVE",
"388 157 OFFCURVE",
"388 160 CURVE SMOOTH",
"388 163 OFFCURVE",
"387 165 OFFCURVE",
"385 165 CURVE SMOOTH",
"383 165 OFFCURVE",
"380 163 OFFCURVE",
"376 159 CURVE SMOOTH",
"328 113 OFFCURVE",
"203 10 OFFCURVE",
"134 10 CURVE SMOOTH",
"101 10 OFFCURVE",
"84 32 OFFCURVE",
"84 62 CURVE SMOOTH",
"84 125 OFFCURVE",
"155 209 OFFCURVE",
"214 236 CURVE SMOOTH",
"227 242 OFFCURVE",
"240 245 OFFCURVE",
"250 245 CURVE SMOOTH",
"272 245 OFFCURVE",
"286 233 OFFCURVE",
"286 217 CURVE SMOOTH",
"286 199 OFFCURVE",
"271 177 OFFCURVE",
"233 156 CURVE SMOOTH",
"198 138 OFFCURVE",
"156 128 OFFCURVE",
"139 128 CURVE SMOOTH",
"129 128 OFFCURVE",
"125 126 OFFCURVE",
"125 124 CURVE SMOOTH",
"125 122 OFFCURVE",
"130 119 OFFCURVE",
"141 119 CURVE SMOOTH",
"169 119 OFFCURVE",
"212 131 OFFCURVE",
"241 144 CURVE SMOOTH",
"288 167 OFFCURVE",
"313 199 OFFCURVE",
"313 226 CURVE SMOOTH",
"313 254 OFFCURVE",
"287 276 OFFCURVE",
"232 276 CURVE SMOOTH",
"123 276 OFFCURVE",
"-4 184 OFFCURVE",
"-4 67 CURVE SMOOTH",
"-4 12 OFFCURVE",
"40 -17 OFFCURVE",
"99 -17 CURVE SMOOTH",
"209 -16 OFFCURVE",
"306 78 OFFCURVE",
"382 148 CURVE SMOOTH"
);
}
);
width = 342;
}
);
note = e;
unicode = 0065;
},
{
glyphname = schwa;
lastChange = "2021-11-16 06:09:22 +0000";
layers = (
{
hints = (
{
horizontal = 1;
place = "{297, -26}";
type = Stem;
},
{
horizontal = 1;
place = "{36, -32}";
type = Stem;
},
{
place = "{346, -88}";
type = Stem;
},
{
place = "{56, -28}";
type = Stem;
}
);
layerId = "F2190ACF-0345-4BD7-9FAD-2D95E96981D2";
paths = (
{
closed = 1;
nodes = (
"1 129 OFFCURVE",
"-1 123 OFFCURVE",
"-1 120 CURVE SMOOTH",
"-1 117 OFFCURVE",
"0 115 OFFCURVE",
"2 115 CURVE SMOOTH",
"4 115 OFFCURVE",
"9 117 OFFCURVE",
"13 121 CURVE SMOOTH",
"61 170 OFFCURVE",
"184 270 OFFCURVE",
"253 270 CURVE SMOOTH",
"286 270 OFFCURVE",
"303 248 OFFCURVE",
"303 218 CURVE SMOOTH",
"303 155 OFFCURVE",
"232 71 OFFCURVE",
"173 44 CURVE SMOOTH",
"160 38 OFFCURVE",
"147 35 OFFCURVE",
"137 35 CURVE SMOOTH",
"115 35 OFFCURVE",
"101 47 OFFCURVE",
"101 63 CURVE SMOOTH",
"101 81 OFFCURVE",
"116 103 OFFCURVE",
"154 124 CURVE SMOOTH",
"189 142 OFFCURVE",
"231 152 OFFCURVE",
"248 152 CURVE SMOOTH",
"258 152 OFFCURVE",
"262 154 OFFCURVE",
"262 156 CURVE SMOOTH",
"262 158 OFFCURVE",
"257 161 OFFCURVE",
"246 161 CURVE SMOOTH",
"218 161 OFFCURVE",
"175 149 OFFCURVE",
"146 136 CURVE SMOOTH",
"99 113 OFFCURVE",
"74 81 OFFCURVE",
"74 54 CURVE SMOOTH",
"74 26 OFFCURVE",
"100 4 OFFCURVE",
"155 4 CURVE SMOOTH",
"264 4 OFFCURVE",
"391 96 OFFCURVE",
"391 213 CURVE SMOOTH",
"391 268 OFFCURVE",
"347 297 OFFCURVE",
"288 297 CURVE SMOOTH",
"178 296 OFFCURVE",
"81 204 OFFCURVE",
"5 132 CURVE SMOOTH"
);
}
);
width = 407;
}
);
unicode = 0259;
},
{
glyphname = f;
lastChange = "2021-11-16 05:32:14 +0000";
layers = (
{
hints = (
{
horizontal = 1;
place = "{460, 47}";
type = Stem;
},
{
place = "{-3, 30}";
type = Stem;
}
);
layerId = "F2190ACF-0345-4BD7-9FAD-2D95E96981D2";
paths = (
{
closed = 1;
nodes = (
"458 474 OFFCURVE",
"403 508 OFFCURVE",
"343 508 CURVE SMOOTH",
"309 508 OFFCURVE",
"274 498 OFFCURVE",
"244 477 CURVE SMOOTH",
"195 444 OFFCURVE",
"144 373 OFFCURVE",
"101 293 CURVE",
"95 292 OFFCURVE",
"90 291 OFFCURVE",
"85 289 CURVE",
"48 279 OFFCURVE",
"38 259 OFFCURVE",
"38 240 CURVE SMOOTH",
"38 223 OFFCURVE",
"47 207 OFFCURVE",
"51 205 CURVE SMOOTH",
"52 204 OFFCURVE",
"55 204 OFFCURVE",
"58 205 CURVE",
"21 120 OFFCURVE",
"-3 37 OFFCURVE",
"-3 -12 CURVE SMOOTH",
"-3 -17 OFFCURVE",
"-3 -22 OFFCURVE",
"-2 -27 CURVE SMOOTH",
"3 -67 OFFCURVE",
"20 -85 OFFCURVE",
"34 -96 CURVE SMOOTH",
"37 -99 OFFCURVE",
"43 -96 OFFCURVE",
"39 -91 CURVE SMOOTH",
"31 -81 OFFCURVE",
"27 -66 OFFCURVE",
"27 -48 CURVE SMOOTH",
"27 15 OFFCURVE",
"69 121 OFFCURVE",
"129 218 CURVE SMOOTH",
"133 224 OFFCURVE",
"137 230 OFFCURVE",
"142 237 CURVE",
"170 245 OFFCURVE",
"195 248 OFFCURVE",
"217 248 CURVE SMOOTH",
"242 248 OFFCURVE",
"261 244 OFFCURVE",
"273 236 CURVE SMOOTH",
"277 234 OFFCURVE",
"280 233 OFFCURVE",
"282 233 CURVE SMOOTH",
"285 233 OFFCURVE",
"287 235 OFFCURVE",
"287 239 CURVE SMOOTH",
"287 242 OFFCURVE",
"286 246 OFFCURVE",
"283 251 CURVE SMOOTH",
"278 258 OFFCURVE",
"271 265 OFFCURVE",
"262 272 CURVE SMOOTH",
"248 283 OFFCURVE",
"218 293 OFFCURVE",
"182 296 CURVE",
"221 349 OFFCURVE",
"271 409 OFFCURVE",
"319 440 CURVE SMOOTH",
"338 452 OFFCURVE",
"365 461 OFFCURVE",
"390 461 CURVE SMOOTH",
"422 461 OFFCURVE",
"451 447 OFFCURVE",
"461 411 CURVE SMOOTH",
"463 404 OFFCURVE",
"469 405 OFFCURVE",
"469 410 CURVE SMOOTH",
"469 410 OFFCURVE",
"469 411 OFFCURVE",
"469 411 CURVE SMOOTH"
);
}
);
width = 251;
}
);
note = f;
unicode = 0066;
},
{
glyphname = g;
lastChange = "2021-11-16 05:32:14 +0000";
layers = (
{
hints = (
{
horizontal = 1;
place = "{-274, 15}";
type = Stem;
},
{
horizontal = 1;
place = "{-9, 27}";
type = Stem;
},
{
horizontal = 1;
place = "{282, -20}";
target = down;
type = TopGhost;
},
{
place = "{-10, 73}";
type = Stem;
}
);
layerId = "F2190ACF-0345-4BD7-9FAD-2D95E96981D2";
paths = (
{
closed = 1;
nodes = (
"394 184 OFFCURVE",
"397 187 OFFCURVE",
"397 190 CURVE SMOOTH",
"397 205 OFFCURVE",
"354 224 OFFCURVE",
"343 224 CURVE",
"337 241 OFFCURVE",
"328 252 OFFCURVE",
"304 267 CURVE SMOOTH",
"286 278 OFFCURVE",
"265 282 OFFCURVE",
"242 282 CURVE SMOOTH",
"179 282 OFFCURVE",
"103 247 OFFCURVE",
"56 197 CURVE SMOOTH",
"11 149 OFFCURVE",
"-9 100 OFFCURVE",
"-9 62 CURVE SMOOTH",
"-9 20 OFFCURVE",
"15 -8 OFFCURVE",
"56 -8 CURVE SMOOTH",
"77 -8 OFFCURVE",
"103 -1 OFFCURVE",
"133 17 CURVE SMOOTH",
"168 38 OFFCURVE",
"248 118 OFFCURVE",
"282 156 CURVE",
"180 20 OFFCURVE",
"94 -250 OFFCURVE",
"-105 -259 CURVE SMOOTH",
"-259 -266 OFFCURVE",
"-282 -141 OFFCURVE",
"-283 -132 CURVE SMOOTH",
"-284 -128 OFFCURVE",
"-288 -124 OFFCURVE",
"-292 -124 CURVE SMOOTH",
"-294 -124 OFFCURVE",
"-295 -126 OFFCURVE",
"-295 -129 CURVE SMOOTH",
"-295 -129 OFFCURVE",
"-295 -130 OFFCURVE",
"-295 -131 CURVE SMOOTH",
"-278 -237 OFFCURVE",
"-203 -269 OFFCURVE",
"-106 -274 CURVE SMOOTH",
"179 -288 OFFCURVE",
"307 139 OFFCURVE",
"389 181 CURVE SMOOTH"
);
},
{
closed = 1;
nodes = (
"238 126 OFFCURVE",
"177 67 OFFCURVE",
"133 38 CURVE SMOOTH",
"114 25 OFFCURVE",
"97 18 OFFCURVE",
"84 18 CURVE SMOOTH",
"71 18 OFFCURVE",
"63 25 OFFCURVE",
"63 40 CURVE SMOOTH",
"63 51 OFFCURVE",
"68 67 OFFCURVE",
"79 87 CURVE SMOOTH",
"106 135 OFFCURVE",
"170 202 OFFCURVE",
"218 228 CURVE SMOOTH",
"247 244 OFFCURVE",
"269 251 OFFCURVE",
"284 251 CURVE SMOOTH",
"300 251 OFFCURVE",
"308 244 OFFCURVE",
"308 231 CURVE SMOOTH",
"308 216 OFFCURVE",
"297 194 OFFCURVE",
"275 169 CURVE SMOOTH"
);
}
);
width = 411;
}
);
note = g;
unicode = 0067;
},
{
glyphname = h;
lastChange = "2021-11-16 05:37:00 +0000";
layers = (
{
hints = (
{
horizontal = 1;
place = "{-8, 20}";
type = Stem;
},
{
horizontal = 1;
place = "{257, 19}";
type = Stem;
},
{
horizontal = 1;
place = "{584, 58}";
type = Stem;
},
{
place = "{161, 83}";
type = Stem;
},
{
place = "{274, 53}";
type = Stem;
},
{
place = "{510, 30}";
type = Stem;
}
);
layerId = "F2190ACF-0345-4BD7-9FAD-2D95E96981D2";
paths = (
{
closed = 1;
nodes = (
"508 638 OFFCURVE",
"494 642 OFFCURVE",
"477 642 CURVE SMOOTH",
"433 642 OFFCURVE",
"375 616 OFFCURVE",
"326 568 CURVE SMOOTH",
"216 461 OFFCURVE",
"113 277 OFFCURVE",
"88 219 CURVE",
"52 173 OFFCURVE",
"23 147 OFFCURVE",
"-8 120 CURVE SMOOTH",
"-14 115 OFFCURVE",
"-17 112 OFFCURVE",
"-17 109 CURVE SMOOTH",
"-17 106 OFFCURVE",
"-14 104 OFFCURVE",
"-11 104 CURVE SMOOTH",
"-9 104 OFFCURVE",
"-5 105 OFFCURVE",
"-2 108 CURVE SMOOTH",
"27 131 OFFCURVE",
"51 156 OFFCURVE",
"71 178 CURVE",
"35 91 OFFCURVE",
"10 20 OFFCURVE",
"4 8 CURVE SMOOTH",
"2 4 OFFCURVE",
"1 1 OFFCURVE",
"1 -2 CURVE SMOOTH",
"1 -5 OFFCURVE",
"3 -7 OFFCURVE",
"7 -7 CURVE SMOOTH",
"18 -7 OFFCURVE",
"40 6 OFFCURVE",
"44 15 CURVE",
"44 12 OFFCURVE",
"44 13 OFFCURVE",
"45 17 CURVE",
"52 33 OFFCURVE",
"60 51 OFFCURVE",
"70 72 CURVE",
"93 110 OFFCURVE",
"127 154 OFFCURVE",
"151 183 CURVE SMOOTH",
"194 235 OFFCURVE",
"236 257 OFFCURVE",
"258 257 CURVE SMOOTH",
"269 257 OFFCURVE",
"276 252 OFFCURVE",
"276 242 CURVE SMOOTH",
"276 238 OFFCURVE",
"275 232 OFFCURVE",
"272 226 CURVE SMOOTH",
"254 188 OFFCURVE",
"221 158 OFFCURVE",
"191 117 CURVE SMOOTH",
"171 90 OFFCURVE",
"162 64 OFFCURVE",
"162 44 CURVE SMOOTH",
"162 12 OFFCURVE",
"183 -8 OFFCURVE",
"216 -8 CURVE SMOOTH",
"235 -8 OFFCURVE",
"258 -1 OFFCURVE",
"284 16 CURVE SMOOTH",
"349 58 OFFCURVE",
"402 107 OFFCURVE",
"437 143 CURVE SMOOTH",
"441 148 OFFCURVE",
"444 153 OFFCURVE",
"444 157 CURVE SMOOTH",
"444 159 OFFCURVE",
"443 160 OFFCURVE",
"441 160 CURVE SMOOTH",
"439 160 OFFCURVE",
"436 158 OFFCURVE",
"432 154 CURVE SMOOTH",
"418 141 OFFCURVE",
"333 65 OFFCURVE",
"286 36 CURVE SMOOTH",
"271 27 OFFCURVE",
"260 22 OFFCURVE",
"253 22 CURVE SMOOTH",
"248 22 OFFCURVE",
"245 25 OFFCURVE",
"245 31 CURVE SMOOTH",
"245 41 OFFCURVE",
"252 58 OFFCURVE",
"268 84 CURVE SMOOTH",
"290 121 OFFCURVE",
"317 170 OFFCURVE",
"323 187 CURVE SMOOTH",
"327 198 OFFCURVE",
"329 209 OFFCURVE",
"329 219 CURVE SMOOTH",
"329 253 OFFCURVE",
"305 276 OFFCURVE",
"271 276 CURVE SMOOTH",
"240 276 OFFCURVE",
"200 257 OFFCURVE",
"160 213 CURVE SMOOTH",
"143 194 OFFCURVE",
"125 170 OFFCURVE",
"109 147 CURVE",
"185 288 OFFCURVE",
"308 458 OFFCURVE",
"416 544 CURVE SMOOTH",
"451 572 OFFCURVE",
"476 584 OFFCURVE",
"492 584 CURVE SMOOTH",
"506 584 OFFCURVE",
"512 575 OFFCURVE",
"512 561 CURVE SMOOTH",
"512 544 OFFCURVE",
"503 520 OFFCURVE",
"486 493 CURVE SMOOTH",
"456 443 OFFCURVE",
"337 352 OFFCURVE",
"261 318 CURVE SMOOTH",
"253 315 OFFCURVE",
"250 311 OFFCURVE",
"250 308 CURVE SMOOTH",
"250 305 OFFCURVE",
"253 303 OFFCURVE",
"257 303 CURVE SMOOTH",
"260 303 OFFCURVE",
"262 304 OFFCURVE",
"265 305 CURVE SMOOTH",
"350 342 OFFCURVE",
"473 432 OFFCURVE",
"507 485 CURVE SMOOTH",
"530 520 OFFCURVE",
"542 556 OFFCURVE",
"542 583 CURVE SMOOTH",
"542 605 OFFCURVE",
"535 622 OFFCURVE",
"520 631 CURVE SMOOTH"
);
},
{
closed = 1;
nodes = (
"45 17 LINE",
"44 15 LINE",
"45 19 OFFCURVE",
"46 23 OFFCURVE",
"48 27 CURVE"
);
}
);
width = 403;
}
);
note = h;
unicode = 0068;
},
{
glyphname = i;
lastChange = "2021-11-16 05:36:43 +0000";
layers = (
{
hints = (
{
horizontal = 1;
place = "{-8, 38}";
type = Stem;
},
{
place = "{-3, 97}";
type = Stem;
}
);
layerId = "F2190ACF-0345-4BD7-9FAD-2D95E96981D2";
paths = (
{
closed = 1;
nodes = (
"267 384 OFFCURVE",
"261 386 OFFCURVE",
"254 386 CURVE SMOOTH",
"240 386 OFFCURVE",
"224 378 OFFCURVE",
"212 364 CURVE SMOOTH",
"201 352 OFFCURVE",
"195 338 OFFCURVE",
"195 327 CURVE SMOOTH",
"195 318 OFFCURVE",
"199 310 OFFCURVE",
"205 305 CURVE SMOOTH",
"210 301 OFFCURVE",
"216 299 OFFCURVE",
"223 299 CURVE SMOOTH",
"237 299 OFFCURVE",
"253 307 OFFCURVE",
"265 320 CURVE SMOOTH",
"276 332 OFFCURVE",
"282 346 OFFCURVE",
"282 358 CURVE SMOOTH",
"282 367 OFFCURVE",
"278 375 OFFCURVE",
"272 380 CURVE SMOOTH"
);
},
{
closed = 1;
nodes = (
"307 139 OFFCURVE",
"306 148 OFFCURVE",
"300 148 CURVE SMOOTH",
"298 148 OFFCURVE",
"296 147 OFFCURVE",
"293 144 CURVE SMOOTH",
"235 91 OFFCURVE",
"155 29 OFFCURVE",
"117 29 CURVE SMOOTH",
"105 29 OFFCURVE",
"97 37 OFFCURVE",
"97 54 CURVE SMOOTH",
"97 101 OFFCURVE",
"147 206 OFFCURVE",
"192 252 CURVE SMOOTH",
"196 257 OFFCURVE",
"188 263 OFFCURVE",
"174 263 CURVE SMOOTH",
"164 263 OFFCURVE",
"151 260 OFFCURVE",
"127 247 CURVE SMOOTH",
"93 229 OFFCURVE",
"42 162 OFFCURVE",
"-9 119 CURVE SMOOTH",
"-17 113 OFFCURVE",
"-20 107 OFFCURVE",
"-20 103 CURVE SMOOTH",
"-20 100 OFFCURVE",
"-18 98 OFFCURVE",
"-16 98 CURVE SMOOTH",
"-14 98 OFFCURVE",
"-12 99 OFFCURVE",
"-10 101 CURVE SMOOTH",
"4 112 OFFCURVE",
"29 135 OFFCURVE",
"56 158 CURVE",
"39 138 OFFCURVE",
"24 120 OFFCURVE",
"16 107 CURVE SMOOTH",
"10 97 OFFCURVE",
"0 73 OFFCURVE",
"0 49 CURVE SMOOTH",
"0 20 OFFCURVE",
"15 -8 OFFCURVE",
"70 -8 CURVE SMOOTH",
"137 -8 OFFCURVE",
"236 74 OFFCURVE",
"303 136 CURVE SMOOTH"
);
}
);
width = 275;
}
);
note = i;
unicode = 0069;
},
{
color = 11;
glyphname = idotless;
lastChange = "2021-11-23 23:50:33 +0000";
layers = (
{
hints = (
{
horizontal = 1;
place = "{-8, 38}";
type = Stem;
},
{
place = "{-3, 97}";
type = Stem;
}
);
layerId = "F2190ACF-0345-4BD7-9FAD-2D95E96981D2";
paths = (
{
closed = 1;
nodes = (
"306 141 OFFCURVE",
"301 154 OFFCURVE",
"290 144 CURVE SMOOTH",
"222 82 OFFCURVE",
"123 9 OFFCURVE",
"99 35 CURVE SMOOTH",
"75 61 OFFCURVE",
"136 198 OFFCURVE",
"189 252 CURVE SMOOTH",
"196 260 OFFCURVE",
"169 271 OFFCURVE",
"133 252 CURVE SMOOTH",
"101 235 OFFCURVE",
"37 159 OFFCURVE",
"-12 120 CURVE SMOOTH",
"-29 107 OFFCURVE",
"-24 92 OFFCURVE",
"-13 101 CURVE SMOOTH",
"1 112 OFFCURVE",
"26 135 OFFCURVE",
"53 158 CURVE",
"36 138 OFFCURVE",
"21 120 OFFCURVE",
"13 107 CURVE SMOOTH",
"0 86 OFFCURVE",
"-33 -3 OFFCURVE",
"62 -8 CURVE SMOOTH",
"130 -12 OFFCURVE",
"229 73 OFFCURVE",
"301 137 CURVE SMOOTH"
);
}
);
width = 272;
}
);
note = dotlessi;
unicode = 0131;
},
{
glyphname = j;
lastChange = "2021-11-16 05:35:58 +0000";
layers = (
{
hints = (
{
horizontal = 1;
place = "{-276, 17}";
type = Stem;
}
);
layerId = "F2190ACF-0345-4BD7-9FAD-2D95E96981D2";
paths = (
{
closed = 1;
nodes = (
"181 384 OFFCURVE",
"175 386 OFFCURVE",
"168 386 CURVE SMOOTH",
"154 386 OFFCURVE",
"138 378 OFFCURVE",
"126 364 CURVE SMOOTH",
"115 352 OFFCURVE",
"109 338 OFFCURVE",
"109 327 CURVE SMOOTH",
"109 318 OFFCURVE",
"113 310 OFFCURVE",
"119 305 CURVE SMOOTH",
"124 301 OFFCURVE",
"130 299 OFFCURVE",
"137 299 CURVE SMOOTH",
"151 299 OFFCURVE",
"167 307 OFFCURVE",
"179 320 CURVE SMOOTH",
"190 332 OFFCURVE",
"196 346 OFFCURVE",
"196 358 CURVE SMOOTH",
"196 367 OFFCURVE",
"192 375 OFFCURVE",
"186 380 CURVE SMOOTH"
);
},
{
closed = 1;
nodes = (
"108 262 OFFCURVE",
"87 267 OFFCURVE",
"75 266 CURVE SMOOTH",
"72 266 OFFCURVE",
"68 262 OFFCURVE",
"68 259 CURVE SMOOTH",
"68 258 OFFCURVE",
"68 257 OFFCURVE",
"70 256 CURVE SMOOTH",
"78 253 OFFCURVE",
"82 246 OFFCURVE",
"82 236 CURVE",
"75 195 OFFCURVE",
"24 148 OFFCURVE",
"9 135 CURVE SMOOTH",
"0 128 OFFCURVE",
"4 119 OFFCURVE",
"9 119 CURVE SMOOTH",
"9 119 OFFCURVE",
"10 119 OFFCURVE",
"11 120 CURVE SMOOTH",
"22 129 OFFCURVE",
"53 160 OFFCURVE",
"64 171 CURVE",
"33 102 OFFCURVE",
"-27 13 OFFCURVE",
"-50 -18 CURVE SMOOTH",
"-140 -143 OFFCURVE",
"-277 -258 OFFCURVE",
"-371 -258 CURVE SMOOTH",
"-446 -258 OFFCURVE",
"-510 -207 OFFCURVE",
"-524 -132 CURVE SMOOTH",
"-525 -128 OFFCURVE",
"-528 -125 OFFCURVE",
"-530 -125 CURVE SMOOTH",
"-532 -125 OFFCURVE",
"-534 -127 OFFCURVE",
"-534 -131 CURVE SMOOTH",
"-534 -131 OFFCURVE",
"-534 -132 OFFCURVE",
"-534 -133 CURVE SMOOTH",
"-517 -236 OFFCURVE",
"-438 -276 OFFCURVE",
"-342 -276 CURVE SMOOTH",
"-237 -276 OFFCURVE",
"-122 -212 OFFCURVE",
"-51 -137 CURVE SMOOTH",
"2 -81 OFFCURVE",
"118 119 OFFCURVE",
"118 212 CURVE SMOOTH",
"118 219 OFFCURVE",
"117 225 OFFCURVE",
"116 231 CURVE SMOOTH"
);
}
);
width = 159;
}
);
note = j;
unicode = 006A;
},
{
color = 11;
glyphname = jdotless;
lastChange = "2021-11-23 23:50:33 +0000";
layers = (
{
hints = (
{
horizontal = 1;
place = "{-276, 17}";
type = Stem;
}
);
layerId = "F2190ACF-0345-4BD7-9FAD-2D95E96981D2";
paths = (
{
closed = 1;
nodes = (
"108 262 OFFCURVE",
"87 267 OFFCURVE",
"75 266 CURVE SMOOTH",
"72 266 OFFCURVE",
"68 262 OFFCURVE",
"68 259 CURVE SMOOTH",
"68 258 OFFCURVE",
"68 257 OFFCURVE",
"70 256 CURVE SMOOTH",
"78 253 OFFCURVE",
"82 246 OFFCURVE",
"82 236 CURVE",
"75 195 OFFCURVE",
"24 148 OFFCURVE",
"9 135 CURVE SMOOTH",
"0 128 OFFCURVE",
"4 119 OFFCURVE",
"9 119 CURVE SMOOTH",
"9 119 OFFCURVE",
"10 119 OFFCURVE",
"11 120 CURVE SMOOTH",
"22 129 OFFCURVE",
"53 160 OFFCURVE",
"64 171 CURVE",
"33 102 OFFCURVE",
"-27 13 OFFCURVE",
"-50 -18 CURVE SMOOTH",
"-140 -143 OFFCURVE",
"-277 -258 OFFCURVE",
"-371 -258 CURVE SMOOTH",
"-446 -258 OFFCURVE",
"-510 -207 OFFCURVE",
"-524 -132 CURVE SMOOTH",
"-525 -128 OFFCURVE",
"-528 -125 OFFCURVE",
"-530 -125 CURVE SMOOTH",
"-532 -125 OFFCURVE",
"-534 -127 OFFCURVE",
"-534 -131 CURVE SMOOTH",
"-534 -131 OFFCURVE",
"-534 -132 OFFCURVE",
"-534 -133 CURVE SMOOTH",
"-517 -236 OFFCURVE",
"-438 -276 OFFCURVE",
"-342 -276 CURVE SMOOTH",
"-237 -276 OFFCURVE",
"-122 -212 OFFCURVE",
"-51 -137 CURVE SMOOTH",
"2 -81 OFFCURVE",
"118 119 OFFCURVE",
"118 212 CURVE SMOOTH",
"118 219 OFFCURVE",
"117 225 OFFCURVE",
"116 231 CURVE SMOOTH"
);
}
);
width = 159;
}
);
unicode = 0237;
},
{
glyphname = k;
lastChange = "2021-11-16 05:35:17 +0000";
layers = (
{
hints = (
{
horizontal = 1;
place = "{0, 22}";
type = Stem;
},
{
horizontal = 1;
place = "{116, 11}";
type = Stem;
},
{
horizontal = 1;
place = "{578, 61}";
type = Stem;
},
{
place = "{-4, 30}";
type = Stem;
},
{
place = "{507, 24}";
type = Stem;
}
);
layerId = "F2190ACF-0345-4BD7-9FAD-2D95E96981D2";
paths = (
{
closed = 1;
nodes = (
"513 503 OFFCURVE",
"534 547 OFFCURVE",
"534 580 CURVE SMOOTH",
"534 615 OFFCURVE",
"510 638 OFFCURVE",
"470 638 CURVE SMOOTH",
"430 638 OFFCURVE",
"376 616 OFFCURVE",
"316 561 CURVE SMOOTH",
"198 452 OFFCURVE",
"121 338 OFFCURVE",
"54 190 CURVE",
"31 162 OFFCURVE",
"14 139 OFFCURVE",
"-7 121 CURVE SMOOTH",
"-15 113 OFFCURVE",
"-19 106 OFFCURVE",
"-19 102 CURVE SMOOTH",
"-19 100 OFFCURVE",
"-18 99 OFFCURVE",
"-16 99 CURVE SMOOTH",
"-14 99 OFFCURVE",
"-12 100 OFFCURVE",
"-10 102 CURVE SMOOTH",
"5 113 OFFCURVE",
"19 126 OFFCURVE",
"33 140 CURVE",
"12 86 OFFCURVE",
"0 36 OFFCURVE",
"0 -4 CURVE SMOOTH",
"0 -12 OFFCURVE",
"0 -20 OFFCURVE",
"1 -27 CURVE SMOOTH",
"5 -59 OFFCURVE",
"23 -74 OFFCURVE",
"37 -86 CURVE SMOOTH",
"40 -88 OFFCURVE",
"46 -86 OFFCURVE",
"42 -80 CURVE SMOOTH",
"34 -70 OFFCURVE",
"30 -52 OFFCURVE",
"30 -30 CURVE SMOOTH",
"30 4 OFFCURVE",
"39 48 OFFCURVE",
"56 91 CURVE",
"77 50 OFFCURVE",
"148 -1 OFFCURVE",
"230 -1 CURVE SMOOTH",
"244 -1 OFFCURVE",
"258 1 OFFCURVE",
"272 4 CURVE SMOOTH",
"301 11 OFFCURVE",
"325 27 OFFCURVE",
"325 52 CURVE SMOOTH",
"325 55 OFFCURVE",
"320 55 OFFCURVE",
"320 52 CURVE SMOOTH",
"320 35 OFFCURVE",
"298 21 OFFCURVE",
"275 21 CURVE SMOOTH",
"228 21 OFFCURVE",
"147 71 OFFCURVE",
"108 122 CURVE",
"118 118 OFFCURVE",
"131 116 OFFCURVE",
"144 116 CURVE SMOOTH",
"192 116 OFFCURVE",
"255 137 OFFCURVE",
"288 161 CURVE SMOOTH",
"331 193 OFFCURVE",
"347 228 OFFCURVE",
"347 255 CURVE SMOOTH",
"347 282 OFFCURVE",
"324 301 OFFCURVE",
"289 301 CURVE SMOOTH",
"274 301 OFFCURVE",
"258 298 OFFCURVE",
"240 291 CURVE SMOOTH",
"198 274 OFFCURVE",
"148 237 OFFCURVE",
"96 168 CURVE",
"151 259 OFFCURVE",
"259 407 OFFCURVE",
"365 502 CURVE SMOOTH",
"422 553 OFFCURVE",
"469 577 OFFCURVE",
"493 577 CURVE SMOOTH",
"504 577 OFFCURVE",
"510 572 OFFCURVE",
"510 562 CURVE SMOOTH",
"510 546 OFFCURVE",
"493 515 OFFCURVE",
"453 473 CURVE SMOOTH",
"405 423 OFFCURVE",
"315 358 OFFCURVE",
"253 330 CURVE SMOOTH",
"245 327 OFFCURVE",
"242 323 OFFCURVE",
"242 320 CURVE SMOOTH",
"242 317 OFFCURVE",
"245 315 OFFCURVE",
"249 315 CURVE SMOOTH",
"252 315 OFFCURVE",
"254 316 OFFCURVE",
"257 317 CURVE SMOOTH",
"323 346 OFFCURVE",
"411 406 OFFCURVE",
"464 456 CURVE SMOOTH"
);
},
{
closed = 1;
nodes = (
"211 145 OFFCURVE",
"158 127 OFFCURVE",
"125 127 CURVE SMOOTH",
"117 127 OFFCURVE",
"109 128 OFFCURVE",
"104 131 CURVE SMOOTH",
"102 132 OFFCURVE",
"101 133 OFFCURVE",
"99 134 CURVE",
"96 139 OFFCURVE",
"93 144 OFFCURVE",
"91 149 CURVE",
"110 172 OFFCURVE",
"132 193 OFFCURVE",
"154 213 CURVE SMOOTH",
"192 247 OFFCURVE",
"222 260 OFFCURVE",
"243 260 CURVE SMOOTH",
"264 260 OFFCURVE",
"276 246 OFFCURVE",
"276 227 CURVE SMOOTH",
"276 209 OFFCURVE",
"265 187 OFFCURVE",
"241 168 CURVE SMOOTH"
);
}
);
width = 336;
}
);
note = k;
unicode = 006B;
},
{
glyphname = l;
lastChange = "2021-11-16 05:35:01 +0000";
layers = (
{
hints = (
{
horizontal = 1;
place = "{-12, 26}";
type = Stem;
},
{
place = "{20, 55}";
type = Stem;
}
);
layerId = "F2190ACF-0345-4BD7-9FAD-2D95E96981D2";
paths = (
{
closed = 1;
nodes = (
"389 500 OFFCURVE",
"394 513 OFFCURVE",
"394 523 CURVE SMOOTH",
"394 540 OFFCURVE",
"382 550 OFFCURVE",
"352 550 CURVE SMOOTH",
"315 549 OFFCURVE",
"248 523 OFFCURVE",
"217 499 CURVE",
"212 494 OFFCURVE",
"212 490 OFFCURVE",
"216 490 CURVE SMOOTH",
"218 490 OFFCURVE",
"220 491 OFFCURVE",
"222 492 CURVE SMOOTH",
"228 494 OFFCURVE",
"235 498 OFFCURVE",
"242 501 CURVE SMOOTH",
"248 504 OFFCURVE",
"253 506 OFFCURVE",
"257 506 CURVE SMOOTH",
"263 506 OFFCURVE",
"265 502 OFFCURVE",
"265 496 CURVE SMOOTH",
"265 487 OFFCURVE",
"259 473 OFFCURVE",
"255 465 CURVE SMOOTH",
"213 392 OFFCURVE",
"139 289 OFFCURVE",
"100 238 CURVE SMOOTH",
"68 195 OFFCURVE",
"27 150 OFFCURVE",
"-1 126 CURVE SMOOTH",
"-5 123 OFFCURVE",
"-7 119 OFFCURVE",
"-7 117 CURVE SMOOTH",
"-7 114 OFFCURVE",
"-5 112 OFFCURVE",
"-2 112 CURVE SMOOTH",
"0 112 OFFCURVE",
"3 113 OFFCURVE",
"6 115 CURVE SMOOTH",
"17 124 OFFCURVE",
"33 140 OFFCURVE",
"51 159 CURVE",
"35 126 OFFCURVE",
"20 86 OFFCURVE",
"20 53 CURVE SMOOTH",
"20 21 OFFCURVE",
"35 -6 OFFCURVE",
"78 -11 CURVE SMOOTH",
"173 -24 OFFCURVE",
"291 104 OFFCURVE",
"337 151 CURVE SMOOTH",
"340 154 OFFCURVE",
"342 158 OFFCURVE",
"342 161 CURVE SMOOTH",
"342 164 OFFCURVE",
"341 166 OFFCURVE",
"338 166 CURVE SMOOTH",
"336 166 OFFCURVE",
"333 165 OFFCURVE",
"328 160 CURVE SMOOTH",
"301 132 OFFCURVE",
"210 49 OFFCURVE",
"144 24 CURVE SMOOTH",
"126 17 OFFCURVE",
"112 14 OFFCURVE",
"101 14 CURVE SMOOTH",
"82 14 OFFCURVE",
"75 24 OFFCURVE",
"75 41 CURVE SMOOTH",
"75 107 OFFCURVE",
"199 273 OFFCURVE",
"213 291 CURVE SMOOTH",
"256 345 OFFCURVE",
"352 439 OFFCURVE",
"381 486 CURVE SMOOTH"
);
}
);
width = 294;
}
);
note = l;
unicode = 006C;
},
{
color = 11;
glyphname = lslash;
lastChange = "2021-11-23 23:50:33 +0000";
layers = (
{
hints = (
{
horizontal = 1;
place = "{-12, 26}";
type = Stem;
},
{
place = "{20, 55}";
type = Stem;
},
{
horizontal = 1;
place = "{169.584, 26.799}";
type = Stem;
}
);
layerId = "F2190ACF-0345-4BD7-9FAD-2D95E96981D2";
paths = (
{
closed = 1;
nodes = (
"389 500 OFFCURVE",
"394 513 OFFCURVE",
"394 523 CURVE SMOOTH",
"394 540 OFFCURVE",
"382 550 OFFCURVE",
"352 550 CURVE SMOOTH",
"315 549 OFFCURVE",
"248 523 OFFCURVE",
"217 499 CURVE",
"212 494 OFFCURVE",
"212 490 OFFCURVE",
"216 490 CURVE SMOOTH",
"218 490 OFFCURVE",
"220 491 OFFCURVE",
"222 492 CURVE SMOOTH",
"228 494 OFFCURVE",
"235 498 OFFCURVE",
"242 501 CURVE SMOOTH",
"248 504 OFFCURVE",
"253 506 OFFCURVE",
"257 506 CURVE SMOOTH",
"263 506 OFFCURVE",
"265 502 OFFCURVE",
"265 496 CURVE SMOOTH",
"265 487 OFFCURVE",
"259 473 OFFCURVE",
"255 465 CURVE SMOOTH",
"213 392 OFFCURVE",
"139 289 OFFCURVE",
"100 238 CURVE SMOOTH",
"68 195 OFFCURVE",
"66 185 OFFCURVE",
"51 159 CURVE",
"35 126 OFFCURVE",
"20 86 OFFCURVE",
"20 53 CURVE SMOOTH",
"20 21 OFFCURVE",
"35 -6 OFFCURVE",
"78 -11 CURVE SMOOTH",
"173 -24 OFFCURVE",
"291 104 OFFCURVE",
"337 151 CURVE SMOOTH",
"340 154 OFFCURVE",
"342 158 OFFCURVE",
"342 161 CURVE SMOOTH",
"342 164 OFFCURVE",
"341 166 OFFCURVE",
"338 166 CURVE SMOOTH",
"336 166 OFFCURVE",
"333 165 OFFCURVE",
"328 160 CURVE SMOOTH",
"301 132 OFFCURVE",
"210 49 OFFCURVE",
"144 24 CURVE SMOOTH",
"126 17 OFFCURVE",
"112 14 OFFCURVE",
"101 14 CURVE SMOOTH",
"82 14 OFFCURVE",
"75 24 OFFCURVE",
"75 41 CURVE SMOOTH",
"75 107 OFFCURVE",
"199 273 OFFCURVE",
"213 291 CURVE SMOOTH",
"256 345 OFFCURVE",
"352 439 OFFCURVE",
"381 486 CURVE SMOOTH"
);
},
{
closed = 1;
nodes = (
"277.01 214.937 OFFCURVE",
"273.075 230.574 OFFCURVE",
"258.935 230.853 CURVE SMOOTH",
"231.649 231.532 OFFCURVE",
"163.686 235.278 OFFCURVE",
"15.64 201.987 CURVE SMOOTH",
"1.866 199.288 OFFCURVE",
"0.628 143.723 OFFCURVE",
"14.28 147.415 CURVE SMOOTH",
"105.752 173.759 OFFCURVE",
"160.255 197.578 OFFCURVE",
"263.114 213.23 CURVE SMOOTH"
);
}
);
width = 294;
}
);
unicode = 0142;
},
{
glyphname = m;
lastChange = "2021-11-16 05:34:27 +0000";
layers = (
{
background = {
paths = (
{
closed = 0;
nodes = (
"326 -6 LINE SMOOTH",
"342 -6 OFFCURVE",
"362 -1 OFFCURVE",
"383 9 CURVE SMOOTH",
"434 33 OFFCURVE",
"490 84 OFFCURVE",
"530 121 CURVE SMOOTH",
"533 124 OFFCURVE",
"535 128 OFFCURVE",
"535 132 CURVE SMOOTH",
"535 135 OFFCURVE",
"533 137 OFFCURVE",
"531 137 CURVE SMOOTH",
"529 137 OFFCURVE",
"527 136 OFFCURVE",
"524 133 CURVE SMOOTH",
"499 111 OFFCURVE",
"448 67 OFFCURVE",
"419 49 CURVE SMOOTH",
"404 40 OFFCURVE",
"389 34 OFFCURVE",
"380 34 CURVE SMOOTH",
"373 34 OFFCURVE",
"369 37 OFFCURVE",
"369 44 CURVE SMOOTH",
"369 53 OFFCURVE",
"375 68 OFFCURVE",
"392 90 CURVE SMOOTH"
);
}
);
};
hints = (
{
horizontal = 1;
place = "{-6, 32}";
type = Stem;
},
{
horizontal = 1;
place = "{292, -20}";
target = down;
type = TopGhost;
},
{
place = "{259, 22}";
type = Stem;
},
{
place = "{283, 83}";
type = Stem;
},
{
place = "{415, 51}";
type = Stem;
}
);
layerId = "F2190ACF-0345-4BD7-9FAD-2D95E96981D2";
paths = (
{
closed = 1;
nodes = (
"533 124 OFFCURVE",
"535 128 OFFCURVE",
"535 132 CURVE SMOOTH",
"535 135 OFFCURVE",
"533 137 OFFCURVE",
"531 137 CURVE SMOOTH",
"529 137 OFFCURVE",
"527 136 OFFCURVE",
"524 133 CURVE SMOOTH",
"499 111 OFFCURVE",
"454 73 OFFCURVE",
"419 49 CURVE SMOOTH",
"404 39 OFFCURVE",
"389 34 OFFCURVE",
"380 34 CURVE SMOOTH",
"373 34 OFFCURVE",
"369 37 OFFCURVE",
"369 44 CURVE SMOOTH",
"369 65 OFFCURVE",
"441 152 OFFCURVE",
"457 184 CURVE SMOOTH",
"463 198 OFFCURVE",
"466 211 OFFCURVE",
"466 223 CURVE SMOOTH",
"466 256 OFFCURVE",
"443 277 OFFCURVE",
"409 277 CURVE SMOOTH",
"380 277 OFFCURVE",
"343 261 OFFCURVE",
"305 222 CURVE SMOOTH",
"287 203 OFFCURVE",
"263 173 OFFCURVE",
"240 143 CURVE",
"252 165 OFFCURVE",
"263 187 OFFCURVE",
"270 203 CURVE SMOOTH",
"278 222 OFFCURVE",
"282 238 OFFCURVE",
"282 250 CURVE SMOOTH",
"282 272 OFFCURVE",
"271 282 OFFCURVE",
"254 282 CURVE SMOOTH",
"231 282 OFFCURVE",
"199 263 OFFCURVE",
"172 229 CURVE SMOOTH",
"158 211 OFFCURVE",
"143 190 OFFCURVE",
"129 168 CURVE",
"136 189 OFFCURVE",
"140 209 OFFCURVE",
"140 228 CURVE SMOOTH",
"140 266 OFFCURVE",
"124 283 OFFCURVE",
"109 290 CURVE SMOOTH",
"106 292 OFFCURVE",
"103 292 OFFCURVE",
"101 292 CURVE SMOOTH",
"96 292 OFFCURVE",
"92 288 OFFCURVE",
"92 283 CURVE SMOOTH",
"92 281 OFFCURVE",
"93 277 OFFCURVE",
"96 275 CURVE SMOOTH",
"99 273 OFFCURVE",
"101 267 OFFCURVE",
"101 259 CURVE SMOOTH",
"101 252 OFFCURVE",
"99 244 OFFCURVE",
"96 237 CURVE SMOOTH",
"74 192 OFFCURVE",
"22 149 OFFCURVE",
"-15 116 CURVE SMOOTH",
"-22 110 OFFCURVE",
"-24 105 OFFCURVE",
"-24 102 CURVE SMOOTH",
"-24 100 OFFCURVE",
"-23 98 OFFCURVE",
"-20 98 CURVE SMOOTH",
"-18 98 OFFCURVE",
"-15 99 OFFCURVE",
"-12 101 CURVE SMOOTH",
"13 121 OFFCURVE",
"40 147 OFFCURVE",
"61 168 CURVE",
"21 106 OFFCURVE",
"-35 39 OFFCURVE",
"-57 9 CURVE",
"-39 -7 OFFCURVE",
"-19 -12 OFFCURVE",
"-5 -12 CURVE SMOOTH",
"11 -12 OFFCURVE",
"23 -4 OFFCURVE",
"38 13 CURVE SMOOTH",
"61 37 OFFCURVE",
"78 64 OFFCURVE",
"96 92 CURVE SMOOTH",
"117 129 OFFCURVE",
"148 179 OFFCURVE",
"180 217 CURVE SMOOTH",
"200 241 OFFCURVE",
"232 264 OFFCURVE",
"248 264 CURVE SMOOTH",
"255 264 OFFCURVE",
"260 260 OFFCURVE",
"260 250 CURVE SMOOTH",
"260 240 OFFCURVE",
"256 225 OFFCURVE",
"246 203 CURVE SMOOTH",
"219 140 OFFCURVE",
"185 85 OFFCURVE",
"152 26 CURVE SMOOTH",
"147 17 OFFCURVE",
"161 7 OFFCURVE",
"175 7 CURVE SMOOTH",
"186 7 OFFCURVE",
"196 12 OFFCURVE",
"201 25 CURVE SMOOTH",
"218 75 OFFCURVE",
"262 157 OFFCURVE",
"303 200 CURVE SMOOTH",
"344 244 OFFCURVE",
"384 263 OFFCURVE",
"403 263 CURVE SMOOTH",
"411 263 OFFCURVE",
"415 260 OFFCURVE",
"415 254 CURVE SMOOTH",
"415 249 OFFCURVE",
"411 242 OFFCURVE",
"403 233 CURVE SMOOTH",
"371 197 OFFCURVE",
"304 123 OFFCURVE",
"290 82 CURVE SMOOTH",
"285 67 OFFCURVE",
"283 55 OFFCURVE",
"283 44 CURVE SMOOTH",
"283 9 OFFCURVE",
"307 -6 OFFCURVE",
"342 -6 CURVE SMOOTH",
"396 -6 OFFCURVE",
"490 84 OFFCURVE",
"530 121 CURVE SMOOTH"
);
}
);
width = 518;
}
);
note = m;
unicode = 006D;
},
{
glyphname = n;
lastChange = "2021-11-16 05:33:10 +0000";
layers = (
{
hints = (
{
horizontal = 1;
place = "{-12, 20}";
type = Stem;
},
{
horizontal = 1;
place = "{292, -20}";
target = down;
type = TopGhost;
},
{
place = "{156, 87}";
type = Stem;
},
{
place = "{281, 61}";
type = Stem;
}
);
layerId = "F2190ACF-0345-4BD7-9FAD-2D95E96981D2";
paths = (
{
closed = 1;
nodes = (
"412 124 OFFCURVE",
"414 128 OFFCURVE",
"414 132 CURVE SMOOTH",
"414 135 OFFCURVE",
"412 137 OFFCURVE",
"410 137 CURVE SMOOTH",
"408 137 OFFCURVE",
"406 136 OFFCURVE",
"403 133 CURVE SMOOTH",
"378 111 OFFCURVE",
"327 67 OFFCURVE",
"298 49 CURVE SMOOTH",
"283 40 OFFCURVE",
"268 34 OFFCURVE",
"259 34 CURVE SMOOTH",
"252 34 OFFCURVE",
"248 37 OFFCURVE",
"248 44 CURVE SMOOTH",
"248 53 OFFCURVE",
"254 68 OFFCURVE",
"271 90 CURVE SMOOTH",
"293 120 OFFCURVE",
"326 168 OFFCURVE",
"333 184 CURVE SMOOTH",
"340 198 OFFCURVE",
"343 211 OFFCURVE",
"343 223 CURVE SMOOTH",
"343 255 OFFCURVE",
"319 277 OFFCURVE",
"285 277 CURVE SMOOTH",
"255 277 OFFCURVE",
"217 260 OFFCURVE",
"181 219 CURVE SMOOTH",
"163 199 OFFCURVE",
"142 172 OFFCURVE",
"122 146 CURVE",
"135 180 OFFCURVE",
"140 207 OFFCURVE",
"140 229 CURVE SMOOTH",
"140 266 OFFCURVE",
"124 283 OFFCURVE",
"109 290 CURVE SMOOTH",
"106 292 OFFCURVE",
"103 292 OFFCURVE",
"101 292 CURVE SMOOTH",
"96 292 OFFCURVE",
"92 288 OFFCURVE",
"92 283 CURVE SMOOTH",
"92 281 OFFCURVE",
"93 277 OFFCURVE",
"96 275 CURVE SMOOTH",
"99 273 OFFCURVE",
"101 267 OFFCURVE",
"101 259 CURVE SMOOTH",
"101 252 OFFCURVE",
"99 244 OFFCURVE",
"96 237 CURVE SMOOTH",
"74 192 OFFCURVE",
"20 146 OFFCURVE",
"-17 113 CURVE SMOOTH",
"-23 108 OFFCURVE",
"-25 103 OFFCURVE",
"-25 101 CURVE SMOOTH",
"-25 98 OFFCURVE",
"-24 97 OFFCURVE",
"-21 97 CURVE SMOOTH",
"-19 97 OFFCURVE",
"-15 98 OFFCURVE",
"-12 101 CURVE SMOOTH",
"13 121 OFFCURVE",
"40 147 OFFCURVE",
"61 168 CURVE",
"21 106 OFFCURVE",
"-35 39 OFFCURVE",
"-57 9 CURVE",
"-39 -7 OFFCURVE",
"-19 -12 OFFCURVE",
"-5 -12 CURVE SMOOTH",
"11 -12 OFFCURVE",
"23 -4 OFFCURVE",
"38 13 CURVE SMOOTH",
"91 71 OFFCURVE",
"126 142 OFFCURVE",
"181 200 CURVE SMOOTH",
"219 240 OFFCURVE",
"253 257 OFFCURVE",
"269 257 CURVE SMOOTH",
"277 257 OFFCURVE",
"281 254 OFFCURVE",
"281 248 CURVE SMOOTH",
"281 243 OFFCURVE",
"277 234 OFFCURVE",
"268 224 CURVE SMOOTH",
"237 189 OFFCURVE",
"184 131 OFFCURVE",
"165 77 CURVE SMOOTH",
"160 63 OFFCURVE",
"157 50 OFFCURVE",
"157 39 CURVE SMOOTH",
"157 9 OFFCURVE",
"176 -6 OFFCURVE",
"205 -6 CURVE SMOOTH",
"221 -6 OFFCURVE",
"241 -1 OFFCURVE",
"262 9 CURVE SMOOTH",
"313 33 OFFCURVE",
"369 84 OFFCURVE",
"409 121 CURVE SMOOTH"
);
}
);
width = 397;
}
);
note = n;
unicode = 006E;
},
{
glyphname = eng;
lastChange = "2021-11-16 05:21:10 +0000";
layers = (
{
hints = (
{
horizontal = 1;
place = "{-12, 20}";
type = Stem;
},
{
horizontal = 1;
place = "{292, -20}";
target = down;
type = TopGhost;
},
{
place = "{156, 87}";
type = Stem;
},
{
place = "{281, 61}";
type = Stem;
}
);
layerId = "F2190ACF-0345-4BD7-9FAD-2D95E96981D2";
paths = (
{
closed = 1;
nodes = (
"163 199 OFFCURVE",
"142 172 OFFCURVE",
"122 146 CURVE",
"135 180 OFFCURVE",
"140 207 OFFCURVE",
"140 229 CURVE SMOOTH",
"140 266 OFFCURVE",
"124 283 OFFCURVE",
"109 290 CURVE SMOOTH",
"106 292 OFFCURVE",
"103 292 OFFCURVE",
"101 292 CURVE SMOOTH",
"96 292 OFFCURVE",
"92 288 OFFCURVE",
"92 283 CURVE SMOOTH",
"92 281 OFFCURVE",
"93 277 OFFCURVE",
"96 275 CURVE SMOOTH",
"99 273 OFFCURVE",
"101 267 OFFCURVE",
"101 259 CURVE SMOOTH",
"101 252 OFFCURVE",
"99 244 OFFCURVE",
"96 237 CURVE SMOOTH",
"74 192 OFFCURVE",
"22 149 OFFCURVE",
"-15 116 CURVE SMOOTH",
"-22 110 OFFCURVE",
"-24 105 OFFCURVE",
"-24 102 CURVE SMOOTH",
"-24 100 OFFCURVE",
"-23 98 OFFCURVE",
"-20 98 CURVE SMOOTH",
"-18 98 OFFCURVE",
"-15 99 OFFCURVE",
"-12 101 CURVE SMOOTH",
"13 121 OFFCURVE",
"40 147 OFFCURVE",
"61 168 CURVE",
"21 106 OFFCURVE",
"-35 39 OFFCURVE",
"-57 9 CURVE",
"-39 -7 OFFCURVE",
"-19 -12 OFFCURVE",
"-5 -12 CURVE SMOOTH",
"11 -12 OFFCURVE",
"23 -4 OFFCURVE",
"38 13 CURVE SMOOTH",
"91 71 OFFCURVE",
"126 142 OFFCURVE",
"181 200 CURVE SMOOTH",
"217 238 OFFCURVE",
"246 257 OFFCURVE",
"261 257 CURVE SMOOTH",
"267 257 OFFCURVE",
"271 253 OFFCURVE",
"271 245 CURVE SMOOTH",
"271 235 OFFCURVE",
"267 221 OFFCURVE",
"257 202 CURVE SMOOTH",
"186 62 OFFCURVE",
"17 -224 OFFCURVE",
"-94 -294 CURVE SMOOTH",
"-113 -306 OFFCURVE",
"-140 -315 OFFCURVE",
"-165 -315 CURVE SMOOTH",
"-197 -315 OFFCURVE",
"-226 -301 OFFCURVE",
"-236 -265 CURVE SMOOTH",
"-238 -258 OFFCURVE",
"-244 -259 OFFCURVE",
"-243 -265 CURVE SMOOTH",
"-232 -328 OFFCURVE",
"-182 -361 OFFCURVE",
"-124 -361 CURVE SMOOTH",
"-93 -361 OFFCURVE",
"-59 -351 OFFCURVE",
"-29 -331 CURVE SMOOTH",
"72 -263 OFFCURVE",
"310 131 OFFCURVE",
"333 184 CURVE SMOOTH",
"340 198 OFFCURVE",
"343 211 OFFCURVE",
"343 223 CURVE SMOOTH",
"343 255 OFFCURVE",
"319 277 OFFCURVE",
"285 277 CURVE SMOOTH",
"255 277 OFFCURVE",
"217 260 OFFCURVE",
"181 219 CURVE SMOOTH"
);
}
);
width = 354;
}
);
unicode = 014B;
},
{
glyphname = o;
lastChange = "2021-11-16 05:32:14 +0000";
layers = (
{
hints = (
{
horizontal = 1;
place = "{-17, 29}";
type = Stem;
},
{
horizontal = 1;
place = "{237, 43}";
type = Stem;
},
{
place = "{-6, 63}";
type = Stem;
},
{
place = "{297, 26}";
type = Stem;
}
);
layerId = "F2190ACF-0345-4BD7-9FAD-2D95E96981D2";
paths = (
{
closed = 1;
nodes = (
"392 124 OFFCURVE",
"394 127 OFFCURVE",
"394 130 CURVE SMOOTH",
"394 133 OFFCURVE",
"392 135 OFFCURVE",
"389 135 CURVE SMOOTH",
"387 135 OFFCURVE",
"385 134 OFFCURVE",
"382 132 CURVE SMOOTH",
"336 93 OFFCURVE",
"278 45 OFFCURVE",
"213 39 CURVE",
"227 47 OFFCURVE",
"250 65 OFFCURVE",
"266 83 CURVE SMOOTH",
"305 125 OFFCURVE",
"323 167 OFFCURVE",
"323 201 CURVE SMOOTH",
"323 232 OFFCURVE",
"309 257 OFFCURVE",
"282 270 CURVE SMOOTH",
"267 277 OFFCURVE",
"250 281 OFFCURVE",
"233 281 CURVE SMOOTH",
"186 281 OFFCURVE",
"137 256 OFFCURVE",
"103 227 CURVE SMOOTH",
"65 196 OFFCURVE",
"37 161 OFFCURVE",
"-12 120 CURVE SMOOTH",
"-19 114 OFFCURVE",
"-22 107 OFFCURVE",
"-22 104 CURVE SMOOTH",
"-22 101 OFFCURVE",
"-20 99 OFFCURVE",
"-18 99 CURVE SMOOTH",
"-16 99 OFFCURVE",
"-14 100 OFFCURVE",
"-12 102 CURVE",
"-6 106 OFFCURVE",
"3 113 OFFCURVE",
"13 123 CURVE",
"6 108 OFFCURVE",
"1 94 OFFCURVE",
"-2 79 CURVE SMOOTH",
"-4 67 OFFCURVE",
"-6 57 OFFCURVE",
"-6 47 CURVE SMOOTH",
"-6 2 OFFCURVE",
"21 -16 OFFCURVE",
"59 -16 CURVE SMOOTH",
"95 -16 OFFCURVE",
"141 0 OFFCURVE",
"187 25 CURVE",
"267 23 OFFCURVE",
"331 66 OFFCURVE",
"389 121 CURVE SMOOTH"
);
},
{
closed = 1;
nodes = (
"289 218 OFFCURVE",
"297 204 OFFCURVE",
"297 186 CURVE SMOOTH",
"297 168 OFFCURVE",
"290 147 OFFCURVE",
"273 122 CURVE",
"272 129 OFFCURVE",
"268 135 OFFCURVE",
"261 139 CURVE SMOOTH",
"255 142 OFFCURVE",
"248 144 OFFCURVE",
"240 144 CURVE SMOOTH",
"223 144 OFFCURVE",
"203 137 OFFCURVE",
"183 119 CURVE SMOOTH",
"161 99 OFFCURVE",
"145 71 OFFCURVE",
"145 52 CURVE SMOOTH",
"145 43 OFFCURVE",
"148 36 OFFCURVE",
"156 32 CURVE SMOOTH",
"158 31 OFFCURVE",
"160 30 OFFCURVE",
"162 30 CURVE",
"140 19 OFFCURVE",
"118 12 OFFCURVE",
"100 12 CURVE SMOOTH",
"92 12 OFFCURVE",
"84 13 OFFCURVE",
"78 16 CURVE SMOOTH",
"64 23 OFFCURVE",
"57 37 OFFCURVE",
"57 55 CURVE SMOOTH",
"57 92 OFFCURVE",
"87 147 OFFCURVE",
"129 187 CURVE SMOOTH",
"166 222 OFFCURVE",
"205 237 OFFCURVE",
"237 237 CURVE SMOOTH",
"252 237 OFFCURVE",
"265 233 OFFCURVE",
"275 227 CURVE SMOOTH"
);
}
);
width = 377;
}
);
note = o;
unicode = 006F;
},
{
glyphname = oslash;
layers = (
{
hints = (
{
place = "{-6, 14}";
type = Stem;
},
{
place = "{247, 76}";
type = Stem;
}
);
layerId = "F2190ACF-0345-4BD7-9FAD-2D95E96981D2";
paths = (
{
closed = 1;
nodes = (
"394 129 OFFCURVE",
"386 139 OFFCURVE",
"376 130 CURVE SMOOTH",
"327 84 OFFCURVE",
"267 41 OFFCURVE",
"202 31 CURVE",
"227 47 OFFCURVE",
"250 65 OFFCURVE",
"266 83 CURVE SMOOTH",
"340 162 OFFCURVE",
"339 242 OFFCURVE",
"282 270 CURVE SMOOTH",
"270 276 OFFCURVE",
"257 279 OFFCURVE",
"243 280 CURVE",
"265 309 OFFCURVE",
"285 336 OFFCURVE",
"302 359 CURVE SMOOTH",
"318 380 OFFCURVE",
"280 368 OFFCURVE",
"275 368 CURVE SMOOTH",
"270 368 OFFCURVE",
"242 331 OFFCURVE",
"205 278 CURVE",
"167 271 OFFCURVE",
"130 250 OFFCURVE",
"103 227 CURVE SMOOTH",
"65 196 OFFCURVE",
"37 161 OFFCURVE",
"-12 120 CURVE SMOOTH",
"-28 106 OFFCURVE",
"-22 93 OFFCURVE",
"-12 102 CURVE",
"-6 106 OFFCURVE",
"3 113 OFFCURVE",
"13 123 CURVE",
"6 108 OFFCURVE",
"1 94 OFFCURVE",
"-2 79 CURVE SMOOTH",
"-12 30 OFFCURVE",
"0 3 OFFCURVE",
"23 -10 CURVE",
"10 -34 OFFCURVE",
"0 -55 OFFCURVE",
"-5 -68 CURVE SMOOTH",
"-13 -93 OFFCURVE",
"2 -99 OFFCURVE",
"8 -85 CURVE SMOOTH",
"16 -67 OFFCURVE",
"29 -43 OFFCURVE",
"44 -16 CURVE",
"80 -22 OFFCURVE",
"131 -7 OFFCURVE",
"176 17 CURVE",
"256 15 OFFCURVE",
"327 66 OFFCURVE",
"385 121 CURVE SMOOTH"
);
},
{
closed = 1;
nodes = (
"204 225 LINE",
"204 225 LINE",
"206 225 LINE"
);
},
{
closed = 1;
nodes = (
"255 194 OFFCURVE",
"256 143 OFFCURVE",
"200 82 CURVE SMOOTH",
"182 63 OFFCURVE",
"163 47 OFFCURVE",
"144 35 CURVE",
"124 43 OFFCURVE",
"111 60 OFFCURVE",
"112 92 CURVE",
"137 129 OFFCURVE",
"163 168 OFFCURVE",
"190 205 CURVE",
"207 215 OFFCURVE",
"224 218 OFFCURVE",
"235 212 CURVE"
);
},
{
closed = 1;
nodes = (
"154 202 LINE",
"121 180 OFFCURVE",
"95 144 OFFCURVE",
"89 106 CURVE SMOOTH",
"89 104 OFFCURVE",
"88 102 OFFCURVE",
"88 100 CURVE",
"67 66 OFFCURVE",
"47 33 OFFCURVE",
"31 5 CURVE",
"29 6 LINE SMOOTH",
"-37 35 OFFCURVE",
"63 210 OFFCURVE",
"170 226 CURVE"
);
},
{
closed = 1;
nodes = (
"102 11 OFFCURVE",
"75 3 OFFCURVE",
"55 2 CURVE",
"66 20 OFFCURVE",
"79 41 OFFCURVE",
"93 62 CURVE",
"99 44 OFFCURVE",
"113 33 OFFCURVE",
"129 26 CURVE"
);
}
);
width = 373;
}
);
note = oslash;
unicode = 00F8;
},
{
glyphname = oe;
layers = (
{
hints = (
{
horizontal = 1;
place = "{-17, 26}";
type = Stem;
},
{
horizontal = 1;
place = "{244, 32}";
type = Stem;
},
{
place = "{-6, 14}";
type = Stem;
},
{
place = "{88, 24}";
type = Stem;
},
{
place = "{492, 28}";
type = Stem;
}
);
layerId = "F2190ACF-0345-4BD7-9FAD-2D95E96981D2";
paths = (
{
closed = 1;
nodes = (
"598 157 OFFCURVE",
"597 175 OFFCURVE",
"582 161 CURVE SMOOTH",
"534 113 OFFCURVE",
"412 11 OFFCURVE",
"342 10 CURVE SMOOTH",
"302 9 OFFCURVE",
"285 39 OFFCURVE",
"292 78 CURVE SMOOTH",
"303 139 OFFCURVE",
"366 211 OFFCURVE",
"421 236 CURVE SMOOTH",
"491 268 OFFCURVE",
"531 206 OFFCURVE",
"439 156 CURVE SMOOTH",
"404 138 OFFCURVE",
"363 128 OFFCURVE",
"346 128 CURVE SMOOTH",
"325 128 OFFCURVE",
"327 120 OFFCURVE",
"345 119 CURVE SMOOTH",
"372 118 OFFCURVE",
"418 130 OFFCURVE",
"447 144 CURVE SMOOTH",
"542 189 OFFCURVE",
"548 273 OFFCURVE",
"446 276 CURVE SMOOTH",
"402 278 OFFCURVE",
"355 264 OFFCURVE",
"314 240 CURVE",
"307 252 OFFCURVE",
"296 263 OFFCURVE",
"282 270 CURVE SMOOTH",
"224 298 OFFCURVE",
"149 266 OFFCURVE",
"103 227 CURVE SMOOTH",
"65 196 OFFCURVE",
"37 161 OFFCURVE",
"-12 120 CURVE SMOOTH",
"-28 106 OFFCURVE",
"-22 93 OFFCURVE",
"-12 102 CURVE",
"-6 106 OFFCURVE",
"3 113 OFFCURVE",
"13 123 CURVE",
"6 108 OFFCURVE",
"1 94 OFFCURVE",
"-2 79 CURVE SMOOTH",
"-27 -43 OFFCURVE",
"85 -31 OFFCURVE",
"179 17 CURVE SMOOTH",
"187 21 OFFCURVE",
"197 27 OFFCURVE",
"208 35 CURVE",
"222 1 OFFCURVE",
"259 -17 OFFCURVE",
"305 -17 CURVE SMOOTH",
"416 -16 OFFCURVE",
"512 78 OFFCURVE",
"588 148 CURVE SMOOTH"
);
},
{
closed = 1;
nodes = (
"224 155 OFFCURVE",
"208 122 OFFCURVE",
"204 86 CURVE",
"200 82 LINE SMOOTH",
"182 63 OFFCURVE",
"163 47 OFFCURVE",
"144 35 CURVE",
"121 44 OFFCURVE",
"107 66 OFFCURVE",
"114 108 CURVE SMOOTH",
"123 166 OFFCURVE",
"203 230 OFFCURVE",
"235 212 CURVE",
"242 206 OFFCURVE",
"247 196 OFFCURVE",
"248 183 CURVE"
);
},
{
closed = 1;
nodes = (
"150 213 OFFCURVE",
"97 162 OFFCURVE",
"89 106 CURVE SMOOTH",
"82 62 OFFCURVE",
"101 38 OFFCURVE",
"129 26 CURVE",
"88 3 OFFCURVE",
"49 -4 OFFCURVE",
"29 6 CURVE SMOOTH",
"-43 41 OFFCURVE",
"87 250 OFFCURVE",
"206 225 CURVE"
);
}
);
width = 547;
}
);
note = oe;
unicode = 0153;
},
{
glyphname = p;
lastChange = "2021-11-16 05:32:14 +0000";
layers = (
{
hints = (
{
horizontal = 1;
place = "{-285, 20}";
type = Stem;
},
{
horizontal = 1;
place = "{-19, 20}";
type = Stem;
},
{
horizontal = 1;
place = "{268, 21}";
target = up;
type = BottomGhost;
},
{
place = "{-152, 35}";
type = Stem;
},
{
place = "{88, 15}";
type = Stem;
},
{
place = "{346, 33}";
type = Stem;
}
);
layerId = "F2190ACF-0345-4BD7-9FAD-2D95E96981D2";
paths = (
{
closed = 1;
nodes = (
"348 286 OFFCURVE",
"336 289 OFFCURVE",
"323 289 CURVE SMOOTH",
"283 289 OFFCURVE",
"230 262 OFFCURVE",
"183 217 CURVE",
"216 262 OFFCURVE",
"243 298 OFFCURVE",
"258 316 CURVE",
"240 335 OFFCURVE",
"219 341 OFFCURVE",
"205 341 CURVE SMOOTH",
"190 341 OFFCURVE",
"178 333 OFFCURVE",
"163 318 CURVE SMOOTH",
"149 304 OFFCURVE",
"126 273 OFFCURVE",
"96 234 CURVE SMOOTH",
"56 183 OFFCURVE",
"16 142 OFFCURVE",
"-10 120 CURVE SMOOTH",
"-18 113 OFFCURVE",
"-21 106 OFFCURVE",
"-21 103 CURVE SMOOTH",
"-21 100 OFFCURVE",
"-20 99 OFFCURVE",
"-18 99 CURVE SMOOTH",
"-17 99 OFFCURVE",
"-15 100 OFFCURVE",
"-12 102 CURVE SMOOTH",
"0 111 OFFCURVE",
"14 123 OFFCURVE",
"27 136 CURVE",
"-59 7 OFFCURVE",
"-151 -151 OFFCURVE",
"-151 -219 CURVE SMOOTH",
"-151 -254 OFFCURVE",
"-134 -272 OFFCURVE",
"-119 -285 CURVE",
"-117 -288 OFFCURVE",
"-111 -286 OFFCURVE",
"-115 -280 CURVE SMOOTH",
"-117 -278 OFFCURVE",
"-117 -274 OFFCURVE",
"-117 -270 CURVE SMOOTH",
"-117 -218 OFFCURVE",
"-1 -41 OFFCURVE",
"104 108 CURVE",
"94 84 OFFCURVE",
"88 61 OFFCURVE",
"88 41 CURVE SMOOTH",
"88 19 OFFCURVE",
"96 1 OFFCURVE",
"111 -10 CURVE SMOOTH",
"120 -16 OFFCURVE",
"132 -19 OFFCURVE",
"145 -19 CURVE SMOOTH",
"192 -19 OFFCURVE",
"259 20 OFFCURVE",
"312 83 CURVE SMOOTH",
"356 134 OFFCURVE",
"380 189 OFFCURVE",
"380 229 CURVE SMOOTH",
"380 252 OFFCURVE",
"372 270 OFFCURVE",
"357 280 CURVE SMOOTH"
);
},
{
closed = 1;
nodes = (
"343 258 OFFCURVE",
"347 247 OFFCURVE",
"347 231 CURVE SMOOTH",
"347 198 OFFCURVE",
"329 147 OFFCURVE",
"284 94 CURVE SMOOTH",
"231 32 OFFCURVE",
"171 1 OFFCURVE",
"137 1 CURVE SMOOTH",
"129 1 OFFCURVE",
"122 3 OFFCURVE",
"117 6 CURVE SMOOTH",
"108 12 OFFCURVE",
"103 25 OFFCURVE",
"103 45 CURVE SMOOTH",
"103 77 OFFCURVE",
"118 123 OFFCURVE",
"160 172 CURVE SMOOTH",
"213 235 OFFCURVE",
"279 268 OFFCURVE",
"316 268 CURVE SMOOTH",
"324 268 OFFCURVE",
"330 266 OFFCURVE",
"335 263 CURVE SMOOTH"
);
}
);
width = 373;
}
);
note = p;
unicode = 0070;
},
{
color = 0;
glyphname = thorn;
lastChange = "2022-01-10 16:54:34 +0000";
layers = (
{
hints = (
{
horizontal = 1;
place = "{-19, 20}";
type = Stem;
},
{
horizontal = 1;
place = "{268, 21}";
target = up;
type = BottomGhost;
},
{
place = "{48, 15}";
type = Stem;
},
{
place = "{307, 33}";
type = Stem;
}
);
layerId = "F2190ACF-0345-4BD7-9FAD-2D95E96981D2";
paths = (
{
closed = 1;
nodes = (
"375 541 OFFCURVE",
"351 538 OFFCURVE",
"337 524 CURVE SMOOTH",
"323 510 OFFCURVE",
"126 273 OFFCURVE",
"96 234 CURVE SMOOTH",
"56 183 OFFCURVE",
"16 142 OFFCURVE",
"-10 120 CURVE SMOOTH",
"-26 106 OFFCURVE",
"-23 93 OFFCURVE",
"-12 102 CURVE SMOOTH",
"0 111 OFFCURVE",
"14 123 OFFCURVE",
"27 136 CURVE",
"-22 64 OFFCURVE",
"-72 -18 OFFCURVE",
"-107 -88 CURVE SMOOTH",
"-135 -146 OFFCURVE",
"-161 -214 OFFCURVE",
"-156 -243 CURVE SMOOTH",
"-152 -272 OFFCURVE",
"-138 -255 OFFCURVE",
"-139 -253 CURVE SMOOTH",
"-161 -220 OFFCURVE",
"-49 -53 OFFCURVE",
"65 108 CURVE",
"42 56 OFFCURVE",
"42 10 OFFCURVE",
"71 -10 CURVE SMOOTH",
"114 -39 OFFCURVE",
"204 3 OFFCURVE",
"272 83 CURVE SMOOTH",
"340 162 OFFCURVE",
"360 251 OFFCURVE",
"317 280 CURVE SMOOTH",
"279 305 OFFCURVE",
"206 277 OFFCURVE",
"143 217 CURVE",
"177 262 OFFCURVE",
"378 504 OFFCURVE",
"393 523 CURVE"
);
},
{
closed = 1;
nodes = (
"318 248 OFFCURVE",
"311 173 OFFCURVE",
"245 94 CURVE SMOOTH",
"179 18 OFFCURVE",
"103 -12 OFFCURVE",
"77 6 CURVE SMOOTH",
"54 21 OFFCURVE",
"54 94 OFFCURVE",
"120 172 CURVE SMOOTH",
"185 249 OFFCURVE",
"269 281 OFFCURVE",
"296 263 CURVE SMOOTH"
);
}
);
width = 373;
}
);
note = thorn;
unicode = 00FE;
},
{
glyphname = q;
lastChange = "2021-11-16 05:32:14 +0000";
layers = (
{
hints = (
{
horizontal = 1;
place = "{-8, 22}";
type = Stem;
},
{
horizontal = 1;
place = "{251, 31}";
type = Stem;
},
{
place = "{-9, 76}";
type = Stem;
}
);
layerId = "F2190ACF-0345-4BD7-9FAD-2D95E96981D2";
paths = (
{
closed = 1;
nodes = (
"380 213 OFFCURVE",
"364 219 OFFCURVE",
"351 221 CURVE",
"350 223 OFFCURVE",
"348 224 OFFCURVE",
"343 224 CURVE",
"337 241 OFFCURVE",
"328 252 OFFCURVE",
"304 267 CURVE SMOOTH",
"286 278 OFFCURVE",
"265 282 OFFCURVE",
"242 282 CURVE SMOOTH",
"179 282 OFFCURVE",
"103 247 OFFCURVE",
"56 197 CURVE SMOOTH",
"11 149 OFFCURVE",
"-9 100 OFFCURVE",
"-9 62 CURVE SMOOTH",
"-9 20 OFFCURVE",
"15 -8 OFFCURVE",
"56 -8 CURVE SMOOTH",
"77 -8 OFFCURVE",
"103 -1 OFFCURVE",
"133 17 CURVE SMOOTH",
"157 32 OFFCURVE",
"183 52 OFFCURVE",
"207 78 CURVE",
"177 31 OFFCURVE",
"145 -22 OFFCURVE",
"119 -72 CURVE SMOOTH",
"95 -119 OFFCURVE",
"66 -174 OFFCURVE",
"66 -229 CURVE SMOOTH",
"66 -267 OFFCURVE",
"81 -305 OFFCURVE",
"120 -311 CURVE SMOOTH",
"121 -311 OFFCURVE",
"128 -307 OFFCURVE",
"124 -305 CURVE SMOOTH",
"115 -300 OFFCURVE",
"107 -292 OFFCURVE",
"107 -275 CURVE SMOOTH",
"107 -266 OFFCURVE",
"109 -254 OFFCURVE",
"115 -238 CURVE SMOOTH",
"158 -122 OFFCURVE",
"349 143 OFFCURVE",
"395 202 CURVE"
);
},
{
closed = 1;
nodes = (
"313 242 OFFCURVE",
"315 237 OFFCURVE",
"315 232 CURVE SMOOTH",
"315 225 OFFCURVE",
"311 215 OFFCURVE",
"303 205 CURVE SMOOTH",
"301 203 LINE SMOOTH",
"296 199 OFFCURVE",
"291 192 OFFCURVE",
"283 184 CURVE SMOOTH",
"263 161 OFFCURVE",
"242 133 OFFCURVE",
"209 100 CURVE SMOOTH",
"151 41 OFFCURVE",
"107 14 OFFCURVE",
"84 14 CURVE SMOOTH",
"72 14 OFFCURVE",
"66 21 OFFCURVE",
"66 33 CURVE SMOOTH",
"66 56 OFFCURVE",
"89 102 OFFCURVE",
"142 164 CURVE SMOOTH",
"191 222 OFFCURVE",
"245 252 OFFCURVE",
"282 252 CURVE SMOOTH",
"292 252 OFFCURVE",
"301 250 OFFCURVE",
"308 245 CURVE SMOOTH"
);
}
);
width = 367;
}
);
note = q;
unicode = 0071;
},
{
glyphname = r;
lastChange = "2021-11-16 05:28:12 +0000";
layers = (
{
hints = (
{
horizontal = 1;
place = "{-8, 39}";
type = Stem;
},
{
place = "{85, 91}";
type = Stem;
},
{
place = "{181, 107}";
type = Stem;
}
);
layerId = "F2190ACF-0345-4BD7-9FAD-2D95E96981D2";
paths = (
{
closed = 1;
nodes = (
"408 154 OFFCURVE",
"409 158 OFFCURVE",
"409 161 CURVE SMOOTH",
"409 164 OFFCURVE",
"408 166 OFFCURVE",
"405 166 CURVE SMOOTH",
"403 166 OFFCURVE",
"401 165 OFFCURVE",
"398 162 CURVE SMOOTH",
"329 93 OFFCURVE",
"233 25 OFFCURVE",
"192 25 CURVE SMOOTH",
"186 25 OFFCURVE",
"180 27 OFFCURVE",
"177 31 CURVE SMOOTH",
"175 33 OFFCURVE",
"174 37 OFFCURVE",
"174 41 CURVE SMOOTH",
"174 55 OFFCURVE",
"185 77 OFFCURVE",
"202 103 CURVE SMOOTH",
"228 145 OFFCURVE",
"268 192 OFFCURVE",
"275 200 CURVE SMOOTH",
"284 211 OFFCURVE",
"287 220 OFFCURVE",
"287 228 CURVE SMOOTH",
"287 253 OFFCURVE",
"253 262 OFFCURVE",
"236 262 CURVE SMOOTH",
"206 262 OFFCURVE",
"156 259 OFFCURVE",
"128 250 CURVE",
"147 261 OFFCURVE",
"169 291 OFFCURVE",
"176 307 CURVE SMOOTH",
"184 323 OFFCURVE",
"187 336 OFFCURVE",
"187 347 CURVE SMOOTH",
"187 363 OFFCURVE",
"179 372 OFFCURVE",
"167 372 CURVE SMOOTH",
"152 372 OFFCURVE",
"131 358 OFFCURVE",
"115 330 CURVE SMOOTH",
"104 310 OFFCURVE",
"98 288 OFFCURVE",
"98 272 CURVE SMOOTH",
"98 260 OFFCURVE",
"101 252 OFFCURVE",
"107 248 CURVE",
"75 200 OFFCURVE",
"33 156 OFFCURVE",
"-8 121 CURVE SMOOTH",
"-16 114 OFFCURVE",
"-20 107 OFFCURVE",
"-20 103 CURVE SMOOTH",
"-20 100 OFFCURVE",
"-18 99 OFFCURVE",
"-16 99 CURVE SMOOTH",
"-15 99 OFFCURVE",
"-13 100 OFFCURVE",
"-10 102 CURVE SMOOTH",
"40 142 OFFCURVE",
"82 190 OFFCURVE",
"120 240 CURVE SMOOTH",
"123 244 LINE",
"124 243 OFFCURVE",
"127 243 OFFCURVE",
"132 243 CURVE SMOOTH",
"134 243 OFFCURVE",
"136 243 OFFCURVE",
"139 243 CURVE SMOOTH",
"157 245 OFFCURVE",
"180 240 OFFCURVE",
"180 227 CURVE SMOOTH",
"180 224 OFFCURVE",
"179 221 OFFCURVE",
"177 218 CURVE SMOOTH",
"159 188 OFFCURVE",
"121 134 OFFCURVE",
"91 91 CURVE SMOOTH",
"84 81 OFFCURVE",
"77 63 OFFCURVE",
"77 45 CURVE SMOOTH",
"77 18 OFFCURVE",
"93 -8 OFFCURVE",
"150 -8 CURVE SMOOTH",
"236 -8 OFFCURVE",
"334 80 OFFCURVE",
"404 150 CURVE SMOOTH"
);
}
);
width = 361;
}
);
note = r;
unicode = 0072;
},
{
glyphname = s;
lastChange = "2021-11-16 05:29:15 +0000";
layers = (
{
hints = (
{
horizontal = 1;
place = "{-18, 34}";
type = Stem;
},
{
horizontal = 1;
place = "{303, 11}";
type = Stem;
}
);
layerId = "F2190ACF-0345-4BD7-9FAD-2D95E96981D2";
paths = (
{
closed = 1;
nodes = (
"355 155 OFFCURVE",
"356 158 OFFCURVE",
"356 160 CURVE SMOOTH",
"356 163 OFFCURVE",
"354 165 OFFCURVE",
"351 165 CURVE SMOOTH",
"349 165 OFFCURVE",
"346 164 OFFCURVE",
"343 161 CURVE SMOOTH",
"280 97 OFFCURVE",
"193 45 OFFCURVE",
"166 35 CURVE",
"242 120 OFFCURVE",
"235 272 OFFCURVE",
"297 299 CURVE SMOOTH",
"302 301 OFFCURVE",
"285 310 OFFCURVE",
"271 312 CURVE SMOOTH",
"266 313 OFFCURVE",
"261 313 OFFCURVE",
"256 313 CURVE SMOOTH",
"163 313 OFFCURVE",
"74 190 OFFCURVE",
"-7 121 CURVE SMOOTH",
"-10 118 OFFCURVE",
"-12 113 OFFCURVE",
"-12 110 CURVE SMOOTH",
"-12 108 OFFCURVE",
"-11 106 OFFCURVE",
"-8 106 CURVE SMOOTH",
"-6 106 OFFCURVE",
"-2 108 OFFCURVE",
"4 113 CURVE SMOOTH",
"52 155 OFFCURVE",
"184 302 OFFCURVE",
"268 302 CURVE SMOOTH",
"273 302 OFFCURVE",
"279 301 OFFCURVE",
"283 299 CURVE",
"249 289 OFFCURVE",
"204 244 OFFCURVE",
"175 195 CURVE SMOOTH",
"138 135 OFFCURVE",
"95 16 OFFCURVE",
"10 16 CURVE SMOOTH",
"-15 16 OFFCURVE",
"-38 27 OFFCURVE",
"-51 56 CURVE SMOOTH",
"-53 62 OFFCURVE",
"-60 60 OFFCURVE",
"-58 55 CURVE SMOOTH",
"-40 -1 OFFCURVE",
"4 -18 OFFCURVE",
"57 -18 CURVE SMOOTH",
"171 -18 OFFCURVE",
"281 83 OFFCURVE",
"352 152 CURVE SMOOTH"
);
}
);
width = 307;
}
);
note = s;
unicode = 0073;
},
{
glyphname = germandbls;
lastChange = "2021-11-16 05:16:22 +0000";
layers = (
{
hints = (
{
horizontal = 1;
place = "{-58, 52}";
type = Stem;
},
{
horizontal = 1;
place = "{631, 41}";
type = Stem;
},
{
place = "{556, 92}";
type = Stem;
},
{
place = "{648, 56}";
type = Stem;
},
{
horizontal = 1;
place = "{-166, 47}";
type = Stem;
},
{
horizontal = 1;
place = "{460, 47}";
type = Stem;
},
{
horizontal = 1;
place = "{-18, 34}";
type = Stem;
},
{
horizontal = 1;
place = "{303, 11}";
type = Stem;
}
);
layerId = "F2190ACF-0345-4BD7-9FAD-2D95E96981D2";
paths = (
{
closed = 1;
nodes = (
"722 165 OFFCURVE",
"719 164 OFFCURVE",
"716 161 CURVE SMOOTH",
"711 156 OFFCURVE",
"685 132 OFFCURVE",
"680 128 CURVE SMOOTH",
"624 80 OFFCURVE",
"561 43 OFFCURVE",
"539 35 CURVE",
"611 115 OFFCURVE",
"590 254 OFFCURVE",
"636 298 CURVE",
"640 299 OFFCURVE",
"643 302 OFFCURVE",
"648 307 CURVE SMOOTH",
"783 439 OFFCURVE",
"657 582 OFFCURVE",
"502 477 CURVE SMOOTH",
"453 444 OFFCURVE",
"402 373 OFFCURVE",
"359 293 CURVE",
"238 273 OFFCURVE",
"208 205 OFFCURVE",
"246 205 CURVE SMOOTH",
"316 205 LINE",
"281 143 OFFCURVE",
"259 91 OFFCURVE",
"226 45 CURVE SMOOTH",
"189 -9 OFFCURVE",
"138 -68 OFFCURVE",
"89 -99 CURVE SMOOTH",
"45 -127 OFFCURVE",
"-36 -134 OFFCURVE",
"-53 -70 CURVE SMOOTH",
"-55 -63 OFFCURVE",
"-61 -64 OFFCURVE",
"-60 -70 CURVE SMOOTH",
"-43 -167 OFFCURVE",
"79 -194 OFFCURVE",
"165 -136 CURVE SMOOTH",
"292 -50 OFFCURVE",
"366 173 OFFCURVE",
"400 237 CURVE SMOOTH",
"453 335 OFFCURVE",
"520 403 OFFCURVE",
"577 440 CURVE SMOOTH",
"640 480 OFFCURVE",
"704 475 OFFCURVE",
"679 398 CURVE SMOOTH",
"671 374 OFFCURVE",
"654 344 OFFCURVE",
"626 311 CURVE",
"576 305 OFFCURVE",
"533 276 OFFCURVE",
"510 157 CURVE SMOOTH",
"501 112 OFFCURVE",
"468 16 OFFCURVE",
"383 16 CURVE SMOOTH",
"358 16 OFFCURVE",
"340 27 OFFCURVE",
"334 39 CURVE SMOOTH",
"331 45 OFFCURVE",
"322 43 OFFCURVE",
"324 38 CURVE SMOOTH",
"336 0 OFFCURVE",
"369 -18 OFFCURVE",
"430 -18 CURVE SMOOTH",
"522 -18 OFFCURVE",
"612 48 OFFCURVE",
"680 110 CURVE SMOOTH",
"694 122 OFFCURVE",
"710 137 OFFCURVE",
"725 152 CURVE SMOOTH",
"728 155 OFFCURVE",
"729 158 OFFCURVE",
"729 160 CURVE SMOOTH",
"729 163 OFFCURVE",
"727 165 OFFCURVE",
"724 165 CURVE SMOOTH"
);
}
);
width = 680;
}
);
note = germandbls;
rightMetricsKey = s;
unicode = 00DF;
},
{
glyphname = t;
lastChange = "2021-11-16 05:32:14 +0000";
layers = (
{
hints = (
{
horizontal = 1;
place = "{-24, 31}";
type = Stem;
},
{
place = "{-1, 68}";
type = Stem;
}
);
layerId = "F2190ACF-0345-4BD7-9FAD-2D95E96981D2";
paths = (
{
closed = 1;
nodes = (
"345 430 OFFCURVE",
"351 436 OFFCURVE",
"351 440 CURVE SMOOTH",
"351 444 OFFCURVE",
"342 446 OFFCURVE",
"318 446 CURVE SMOOTH",
"298 446 OFFCURVE",
"247 437 OFFCURVE",
"236 423 CURVE",
"217 405 OFFCURVE",
"184 348 OFFCURVE",
"142 288 CURVE",
"132 287 OFFCURVE",
"122 285 OFFCURVE",
"113 283 CURVE SMOOTH",
"69 271 OFFCURVE",
"59 253 OFFCURVE",
"59 239 CURVE SMOOTH",
"59 230 OFFCURVE",
"63 223 OFFCURVE",
"66 221 CURVE SMOOTH",
"69 218 OFFCURVE",
"73 217 OFFCURVE",
"78 217 CURVE SMOOTH",
"82 217 OFFCURVE",
"88 218 OFFCURVE",
"93 220 CURVE",
"67 189 OFFCURVE",
"28 154 OFFCURVE",
"-7 123 CURVE SMOOTH",
"-12 118 OFFCURVE",
"-14 114 OFFCURVE",
"-14 111 CURVE SMOOTH",
"-14 109 OFFCURVE",
"-12 107 OFFCURVE",
"-9 107 CURVE SMOOTH",
"-6 107 OFFCURVE",
"-3 108 OFFCURVE",
"0 111 CURVE SMOOTH",
"6 117 OFFCURVE",
"12 122 OFFCURVE",
"18 128 CURVE",
"17 126 OFFCURVE",
"17 125 OFFCURVE",
"16 123 CURVE SMOOTH",
"5 95 OFFCURVE",
"-1 69 OFFCURVE",
"-1 48 CURVE SMOOTH",
"-1 3 OFFCURVE",
"22 -24 OFFCURVE",
"65 -24 CURVE SMOOTH",
"158 -24 OFFCURVE",
"283 115 OFFCURVE",
"318 148 CURVE SMOOTH",
"322 152 OFFCURVE",
"324 157 OFFCURVE",
"324 161 CURVE SMOOTH",
"324 164 OFFCURVE",
"322 167 OFFCURVE",
"320 167 CURVE SMOOTH",
"319 167 OFFCURVE",
"317 166 OFFCURVE",
"315 164 CURVE SMOOTH",
"308 157 OFFCURVE",
"181 35 OFFCURVE",
"118 12 CURVE SMOOTH",
"110 9 OFFCURVE",
"102 7 OFFCURVE",
"96 7 CURVE SMOOTH",
"77 7 OFFCURVE",
"68 21 OFFCURVE",
"68 41 CURVE SMOOTH",
"68 50 OFFCURVE",
"70 62 OFFCURVE",
"74 74 CURVE SMOOTH",
"90 124 OFFCURVE",
"130 185 OFFCURVE",
"176 244 CURVE",
"191 246 OFFCURVE",
"205 248 OFFCURVE",
"218 248 CURVE SMOOTH",
"249 248 OFFCURVE",
"274 241 OFFCURVE",
"288 227 CURVE SMOOTH",
"292 223 OFFCURVE",
"295 222 OFFCURVE",
"297 222 CURVE SMOOTH",
"300 222 OFFCURVE",
"302 225 OFFCURVE",
"302 230 CURVE SMOOTH",
"302 233 OFFCURVE",
"301 238 OFFCURVE",
"298 242 CURVE SMOOTH",
"283 265 OFFCURVE",
"247 279 OFFCURVE",
"209 285 CURVE",
"255 340 OFFCURVE",
"303 389 OFFCURVE",
"336 421 CURVE SMOOTH"
);
}
);
width = 277;
}
);
note = t;
unicode = 0074;
},
{
glyphname = u;
lastChange = "2021-11-16 05:32:14 +0000";
layers = (
{
hints = (
{
horizontal = 1;
place = "{-6, 36}";
type = Stem;
},
{
horizontal = 1;
place = "{277, -20}";
target = down;
type = TopGhost;
},
{
place = "{68, 84}";
type = Stem;
},
{
place = "{188, 64}";
type = Stem;
},
{
place = "{262, 36}";
type = Stem;
}
);
layerId = "F2190ACF-0345-4BD7-9FAD-2D95E96981D2";
paths = (
{
closed = 1;
nodes = (
"439 255 OFFCURVE",
"418 260 OFFCURVE",
"404 260 CURVE SMOOTH",
"390 259 OFFCURVE",
"380 253 OFFCURVE",
"368 240 CURVE SMOOTH",
"367 239 OFFCURVE",
"366 238 OFFCURVE",
"363 235 CURVE SMOOTH",
"353 223 OFFCURVE",
"342 209 OFFCURVE",
"331 195 CURVE SMOOTH",
"308 164 OFFCURVE",
"275 125 OFFCURVE",
"245 93 CURVE SMOOTH",
"240 88 OFFCURVE",
"227 75 OFFCURVE",
"213 62 CURVE SMOOTH",
"191 43 OFFCURVE",
"170 30 OFFCURVE",
"159 30 CURVE SMOOTH",
"154 30 OFFCURVE",
"151 32 OFFCURVE",
"151 38 CURVE SMOOTH",
"151 46 OFFCURVE",
"158 62 OFFCURVE",
"176 87 CURVE SMOOTH",
"198 118 OFFCURVE",
"226 151 OFFCURVE",
"241 184 CURVE SMOOTH",
"248 199 OFFCURVE",
"251 213 OFFCURVE",
"251 224 CURVE SMOOTH",
"251 257 OFFCURVE",
"227 277 OFFCURVE",
"195 277 CURVE SMOOTH",
"176 277 OFFCURVE",
"154 270 OFFCURVE",
"134 254 CURVE SMOOTH",
"96 225 OFFCURVE",
"79 197 OFFCURVE",
"18 145 CURVE SMOOTH",
"13 141 OFFCURVE",
"11 137 OFFCURVE",
"11 134 CURVE SMOOTH",
"11 130 OFFCURVE",
"13 128 OFFCURVE",
"16 128 CURVE SMOOTH",
"17 128 OFFCURVE",
"20 129 OFFCURVE",
"22 131 CURVE SMOOTH",
"53 157 OFFCURVE",
"96 204 OFFCURVE",
"143 239 CURVE SMOOTH",
"158 250 OFFCURVE",
"170 255 OFFCURVE",
"177 255 CURVE SMOOTH",
"184 255 OFFCURVE",
"188 251 OFFCURVE",
"188 245 CURVE SMOOTH",
"188 240 OFFCURVE",
"184 232 OFFCURVE",
"177 224 CURVE SMOOTH",
"144 187 OFFCURVE",
"89 123 OFFCURVE",
"75 82 CURVE SMOOTH",
"70 67 OFFCURVE",
"68 54 OFFCURVE",
"68 43 CURVE SMOOTH",
"68 9 OFFCURVE",
"89 -6 OFFCURVE",
"119 -6 CURVE SMOOTH",
"171 -6 OFFCURVE",
"241 65 OFFCURVE",
"293 132 CURVE",
"274 93 OFFCURVE",
"261 53 OFFCURVE",
"261 17 CURVE SMOOTH",
"261 -26 OFFCURVE",
"282 -40 OFFCURVE",
"299 -46 CURVE SMOOTH",
"302 -47 OFFCURVE",
"310 -47 OFFCURVE",
"305 -42 CURVE SMOOTH",
"300 -37 OFFCURVE",
"297 -29 OFFCURVE",
"297 -20 CURVE SMOOTH",
"297 45 OFFCURVE",
"424 190 OFFCURVE",
"458 238 CURVE"
);
}
);
width = 458;
}
);
note = u;
unicode = 0075;
},
{
glyphname = v;
lastChange = "2021-11-16 05:32:14 +0000";
layers = (
{
hints = (
{
horizontal = 1;
place = "{-8, 20}";
type = Stem;
},
{
horizontal = 1;
place = "{310, 17}";
type = Stem;
}
);
layerId = "F2190ACF-0345-4BD7-9FAD-2D95E96981D2";
paths = (
{
closed = 1;
nodes = (
"373 317 OFFCURVE",
"353 327 OFFCURVE",
"334 327 CURVE SMOOTH",
"320 327 OFFCURVE",
"307 322 OFFCURVE",
"297 312 CURVE SMOOTH",
"228 245 OFFCURVE",
"199 113 OFFCURVE",
"119 33 CURVE SMOOTH",
"116 30 OFFCURVE",
"110 25 OFFCURVE",
"102 20 CURVE",
"104 23 LINE SMOOTH",
"134 68 OFFCURVE",
"150 152 OFFCURVE",
"150 209 CURVE SMOOTH",
"150 222 OFFCURVE",
"149 234 OFFCURVE",
"147 244 CURVE SMOOTH",
"144 271 OFFCURVE",
"122 284 OFFCURVE",
"109 290 CURVE SMOOTH",
"106 292 OFFCURVE",
"103 292 OFFCURVE",
"101 292 CURVE SMOOTH",
"96 292 OFFCURVE",
"92 288 OFFCURVE",
"92 283 CURVE SMOOTH",
"92 281 OFFCURVE",
"93 277 OFFCURVE",
"96 275 CURVE SMOOTH",
"99 273 OFFCURVE",
"101 267 OFFCURVE",
"101 259 CURVE SMOOTH",
"101 252 OFFCURVE",
"99 244 OFFCURVE",
"96 237 CURVE SMOOTH",
"74 192 OFFCURVE",
"22 149 OFFCURVE",
"-15 116 CURVE SMOOTH",
"-22 110 OFFCURVE",
"-24 105 OFFCURVE",
"-24 102 CURVE SMOOTH",
"-24 100 OFFCURVE",
"-23 98 OFFCURVE",
"-20 98 CURVE SMOOTH",
"-18 98 OFFCURVE",
"-15 99 OFFCURVE",
"-12 101 CURVE SMOOTH",
"9 118 OFFCURVE",
"33 140 OFFCURVE",
"52 159 CURVE SMOOTH",
"56 163 OFFCURVE",
"91 198 OFFCURVE",
"94 201 CURVE",
"95 201 OFFCURVE",
"61 48 OFFCURVE",
"24 -4 CURVE",
"28 -6 OFFCURVE",
"34 -7 OFFCURVE",
"41 -7 CURVE SMOOTH",
"68 -7 OFFCURVE",
"108 8 OFFCURVE",
"129 29 CURVE SMOOTH",
"206 107 OFFCURVE",
"249 220 OFFCURVE",
"321 291 CURVE SMOOTH",
"334 303 OFFCURVE",
"346 310 OFFCURVE",
"355 310 CURVE SMOOTH",
"363 310 OFFCURVE",
"370 305 OFFCURVE",
"374 295 CURVE SMOOTH",
"376 289 OFFCURVE",
"383 291 OFFCURVE",
"381 297 CURVE SMOOTH"
);
}
);
width = 306;
}
);
note = v;
unicode = 0076;
},
{
glyphname = w;
lastChange = "2021-11-16 05:32:14 +0000";
layers = (
{
hints = (
{
horizontal = 1;
place = "{-8, 40}";
type = Stem;
},
{
horizontal = 1;
place = "{70, 21}";
type = Stem;
},
{
horizontal = 1;
place = "{278, -20}";
target = down;
type = TopGhost;
},
{
place = "{-3, 96}";
type = Stem;
},
{
place = "{191, 96}";
type = Stem;
}
);
layerId = "F2190ACF-0345-4BD7-9FAD-2D95E96981D2";
paths = (
{
closed = 1;
nodes = (
"545 136 OFFCURVE",
"546 140 OFFCURVE",
"546 143 CURVE SMOOTH",
"546 146 OFFCURVE",
"545 148 OFFCURVE",
"543 148 CURVE SMOOTH",
"541 148 OFFCURVE",
"538 146 OFFCURVE",
"535 143 CURVE SMOOTH",
"527 135 OFFCURVE",
"498 111 OFFCURVE",
"492 106 CURVE SMOOTH",
"479 96 OFFCURVE",
"468 91 OFFCURVE",
"461 91 CURVE SMOOTH",
"453 91 OFFCURVE",
"448 97 OFFCURVE",
"448 110 CURVE SMOOTH",
"448 118 OFFCURVE",
"449 127 OFFCURVE",
"452 139 CURVE SMOOTH",
"461 172 OFFCURVE",
"503 230 OFFCURVE",
"525 257 CURVE SMOOTH",
"529 262 OFFCURVE",
"531 266 OFFCURVE",
"531 269 CURVE SMOOTH",
"531 276 OFFCURVE",
"523 279 OFFCURVE",
"512 279 CURVE SMOOTH",
"491 279 OFFCURVE",
"459 269 OFFCURVE",
"451 259 CURVE SMOOTH",
"430 236 OFFCURVE",
"412 192 OFFCURVE",
"410 123 CURVE",
"393 102 OFFCURVE",
"375 82 OFFCURVE",
"355 64 CURVE SMOOTH",
"336 48 OFFCURVE",
"315 32 OFFCURVE",
"301 32 CURVE SMOOTH",
"293 32 OFFCURVE",
"287 38 OFFCURVE",
"287 54 CURVE SMOOTH",
"287 60 OFFCURVE",
"288 67 OFFCURVE",
"290 76 CURVE SMOOTH",
"301 128 OFFCURVE",
"321 175 OFFCURVE",
"359 215 CURVE SMOOTH",
"364 220 OFFCURVE",
"354 231 OFFCURVE",
"335 231 CURVE SMOOTH",
"327 231 OFFCURVE",
"316 229 OFFCURVE",
"305 223 CURVE SMOOTH",
"261 200 OFFCURVE",
"203 101 OFFCURVE",
"160 64 CURVE SMOOTH",
"142 48 OFFCURVE",
"121 32 OFFCURVE",
"107 32 CURVE SMOOTH",
"98 32 OFFCURVE",
"93 38 OFFCURVE",
"93 53 CURVE SMOOTH",
"93 99 OFFCURVE",
"143 205 OFFCURVE",
"189 252 CURVE SMOOTH",
"193 257 OFFCURVE",
"185 263 OFFCURVE",
"171 263 CURVE SMOOTH",
"161 263 OFFCURVE",
"148 260 OFFCURVE",
"133 252 CURVE SMOOTH",
"101 235 OFFCURVE",
"39 159 OFFCURVE",
"-11 121 CURVE SMOOTH",
"-19 114 OFFCURVE",
"-23 107 OFFCURVE",
"-23 103 CURVE SMOOTH",
"-23 101 OFFCURVE",
"-21 99 OFFCURVE",
"-19 99 CURVE SMOOTH",
"-17 99 OFFCURVE",
"-15 100 OFFCURVE",
"-13 102 CURVE SMOOTH",
"1 113 OFFCURVE",
"26 135 OFFCURVE",
"53 158 CURVE",
"36 138 OFFCURVE",
"21 120 OFFCURVE",
"13 107 CURVE SMOOTH",
"7 97 OFFCURVE",
"-3 73 OFFCURVE",
"-3 49 CURVE SMOOTH",
"-3 20 OFFCURVE",
"12 -8 OFFCURVE",
"65 -8 CURVE SMOOTH",
"103 -8 OFFCURVE",
"152 32 OFFCURVE",
"196 80 CURVE",
"193 70 OFFCURVE",
"191 59 OFFCURVE",
"191 48 CURVE SMOOTH",
"191 20 OFFCURVE",
"205 -8 OFFCURVE",
"258 -8 CURVE SMOOTH",
"304 -8 OFFCURVE",
"362 46 OFFCURVE",
"412 105 CURVE",
"415 79 OFFCURVE",
"429 70 OFFCURVE",
"445 70 CURVE SMOOTH",
"463 70 OFFCURVE",
"484 81 OFFCURVE",
"496 91 CURVE SMOOTH",
"507 99 OFFCURVE",
"531 122 OFFCURVE",
"543 134 CURVE SMOOTH"
);
}
);
width = 518;
}
);
note = w;
unicode = 0077;
},
{
glyphname = x;
lastChange = "2021-11-16 05:32:14 +0000";
layers = (
{
hints = (
{
horizontal = 1;
place = "{-5, 11}";
type = Stem;
}
);
layerId = "F2190ACF-0345-4BD7-9FAD-2D95E96981D2";
paths = (
{
closed = 1;
nodes = (
"351 342 OFFCURVE",
"244 273 OFFCURVE",
"146 186 CURVE",
"144 200 OFFCURVE",
"143 214 OFFCURVE",
"143 227 CURVE SMOOTH",
"143 256 OFFCURVE",
"148 281 OFFCURVE",
"159 299 CURVE SMOOTH",
"175 323 OFFCURVE",
"94 283 OFFCURVE",
"83 268 CURVE SMOOTH",
"73 254 OFFCURVE",
"67 231 OFFCURVE",
"67 204 CURVE SMOOTH",
"67 180 OFFCURVE",
"72 153 OFFCURVE",
"82 127 CURVE",
"83 127 LINE",
"2 47 OFFCURVE",
"-67 -38 OFFCURVE",
"-108 -93 CURVE SMOOTH",
"-113 -99 OFFCURVE",
"-110 -103 OFFCURVE",
"-105 -103 CURVE SMOOTH",
"-101 -103 OFFCURVE",
"-95 -100 OFFCURVE",
"-91 -94 CURVE SMOOTH",
"-61 -54 OFFCURVE",
"10 25 OFFCURVE",
"93 104 CURVE",
"118 53 OFFCURVE",
"166 -5 OFFCURVE",
"245 -5 CURVE SMOOTH",
"260 -5 OFFCURVE",
"276 1 OFFCURVE",
"286 15 CURVE SMOOTH",
"288 18 OFFCURVE",
"284 21 OFFCURVE",
"282 18 CURVE SMOOTH",
"276 10 OFFCURVE",
"265 6 OFFCURVE",
"254 6 CURVE SMOOTH",
"244 6 OFFCURVE",
"235 9 OFFCURVE",
"226 13 CURVE SMOOTH",
"194 31 OFFCURVE",
"165 94 OFFCURVE",
"151 158 CURVE",
"177 181 OFFCURVE",
"203 204 OFFCURVE",
"229 225 CURVE SMOOTH",
"310 289 OFFCURVE",
"388 335 OFFCURVE",
"436 335 CURVE SMOOTH",
"441 335 OFFCURVE",
"442 339 OFFCURVE",
"439 339 CURVE SMOOTH"
);
}
);
width = 310;
}
);
note = x;
unicode = 0078;
},
{
glyphname = y;
lastChange = "2021-11-16 05:32:14 +0000";
layers = (
{
hints = (
{
horizontal = 1;
place = "{-276, 17}";
type = Stem;
},
{
horizontal = 1;
place = "{-6, 36}";
type = Stem;
},
{
place = "{66, 84}";
type = Stem;
},
{
place = "{186, 64}";
type = Stem;
}
);
layerId = "F2190ACF-0345-4BD7-9FAD-2D95E96981D2";
paths = (
{
closed = 1;
nodes = (
"484 316 OFFCURVE",
"492 324 OFFCURVE",
"492 333 CURVE SMOOTH",
"492 344 OFFCURVE",
"480 357 OFFCURVE",
"461 357 CURVE SMOOTH",
"456 357 OFFCURVE",
"451 357 OFFCURVE",
"446 355 CURVE SMOOTH",
"425 349 OFFCURVE",
"405 309 OFFCURVE",
"390 274 CURVE",
"344 205 OFFCURVE",
"267 111 OFFCURVE",
"213 62 CURVE SMOOTH",
"191 43 OFFCURVE",
"169 30 OFFCURVE",
"158 30 CURVE SMOOTH",
"153 30 OFFCURVE",
"150 32 OFFCURVE",
"150 38 CURVE SMOOTH",
"150 46 OFFCURVE",
"157 62 OFFCURVE",
"175 87 CURVE SMOOTH",
"197 118 OFFCURVE",
"225 151 OFFCURVE",
"241 184 CURVE SMOOTH",
"248 199 OFFCURVE",
"251 212 OFFCURVE",
"251 224 CURVE SMOOTH",
"251 257 OFFCURVE",
"226 277 OFFCURVE",
"194 277 CURVE SMOOTH",
"175 277 OFFCURVE",
"153 270 OFFCURVE",
"133 254 CURVE SMOOTH",
"95 225 OFFCURVE",
"44 165 OFFCURVE",
"4 132 CURVE SMOOTH",
"-1 128 OFFCURVE",
"-3 123 OFFCURVE",
"-3 120 CURVE SMOOTH",
"-3 118 OFFCURVE",
"-2 116 OFFCURVE",
"1 116 CURVE SMOOTH",
"2 116 OFFCURVE",
"4 117 OFFCURVE",
"7 119 CURVE SMOOTH",
"39 145 OFFCURVE",
"95 204 OFFCURVE",
"143 239 CURVE SMOOTH",
"157 250 OFFCURVE",
"169 255 OFFCURVE",
"176 255 CURVE SMOOTH",
"183 255 OFFCURVE",
"187 251 OFFCURVE",
"187 245 CURVE SMOOTH",
"187 240 OFFCURVE",
"183 232 OFFCURVE",
"176 224 CURVE SMOOTH",
"144 187 OFFCURVE",
"88 123 OFFCURVE",
"74 82 CURVE SMOOTH",
"69 67 OFFCURVE",
"67 54 OFFCURVE",
"67 43 CURVE SMOOTH",
"67 9 OFFCURVE",
"88 -6 OFFCURVE",
"118 -6 CURVE SMOOTH",
"173 -6 OFFCURVE",
"255 80 OFFCURVE",
"310 148 CURVE SMOOTH",
"328 171 OFFCURVE",
"348 198 OFFCURVE",
"365 224 CURVE",
"317 131 OFFCURVE",
"267 37 OFFCURVE",
"205 -48 CURVE SMOOTH",
"117 -168 OFFCURVE",
"7 -258 OFFCURVE",
"-97 -258 CURVE SMOOTH",
"-172 -258 OFFCURVE",
"-237 -207 OFFCURVE",
"-251 -132 CURVE SMOOTH",
"-252 -128 OFFCURVE",
"-254 -125 OFFCURVE",
"-257 -125 CURVE SMOOTH",
"-259 -125 OFFCURVE",
"-261 -127 OFFCURVE",
"-261 -132 CURVE SMOOTH",
"-261 -132 OFFCURVE",
"-261 -132 OFFCURVE",
"-261 -133 CURVE SMOOTH",
"-244 -236 OFFCURVE",
"-165 -276 OFFCURVE",
"-69 -276 CURVE SMOOTH",
"36 -276 OFFCURVE",
"137 -215 OFFCURVE",
"208 -140 CURVE SMOOTH",
"351 11 OFFCURVE",
"368 181 OFFCURVE",
"412 276 CURVE SMOOTH",
"432 318 OFFCURVE",
"451 320 OFFCURVE",
"466 318 CURVE SMOOTH"
);
}
);
width = 417;
}
);
note = y;
unicode = 0079;
},
{
glyphname = z;
lastChange = "2021-11-16 05:32:14 +0000";
layers = (
{
hints = (
{
horizontal = 1;
place = "{-305, 19}";
type = Stem;
},
{
horizontal = 1;
place = "{-96, 33}";
type = Stem;
},
{
horizontal = 1;
place = "{65, 54}";
type = Stem;
},
{
horizontal = 1;
place = "{205, 72}";
type = Stem;
},
{
place = "{-286, 83}";
type = Stem;
},
{
place = "{282, 68}";
type = Stem;
}
);
layerId = "F2190ACF-0345-4BD7-9FAD-2D95E96981D2";
paths = (
{
closed = 1;
nodes = (
"299 183 OFFCURVE",
"315 205 OFFCURVE",
"315 225 CURVE SMOOTH",
"315 253 OFFCURVE",
"284 276 OFFCURVE",
"217 277 CURVE SMOOTH",
"165 278 OFFCURVE",
"62 273 OFFCURVE",
"43 203 CURVE SMOOTH",
"41 193 OFFCURVE",
"45 176 OFFCURVE",
"58 167 CURVE",
"69 200 OFFCURVE",
"137 206 OFFCURVE",
"186 206 CURVE SMOOTH",
"201 206 OFFCURVE",
"214 205 OFFCURVE",
"223 205 CURVE SMOOTH",
"251 203 OFFCURVE",
"262 199 OFFCURVE",
"262 192 CURVE SMOOTH",
"262 179 OFFCURVE",
"218 159 OFFCURVE",
"174 140 CURVE SMOOTH",
"101 110 OFFCURVE",
"60 105 OFFCURVE",
"28 94 CURVE SMOOTH",
"13 89 OFFCURVE",
"-7 67 OFFCURVE",
"-7 54 CURVE SMOOTH",
"-7 48 OFFCURVE",
"-2 44 OFFCURVE",
"11 47 CURVE SMOOTH",
"52 56 OFFCURVE",
"107 65 OFFCURVE",
"154 65 CURVE SMOOTH",
"245 65 OFFCURVE",
"281 34 OFFCURVE",
"281 -8 CURVE SMOOTH",
"281 -78 OFFCURVE",
"182 -181 OFFCURVE",
"64 -230 CURVE SMOOTH",
"14 -252 OFFCURVE",
"-33 -267 OFFCURVE",
"-64 -274 CURVE SMOOTH",
"-100 -283 OFFCURVE",
"-128 -287 OFFCURVE",
"-150 -287 CURVE SMOOTH",
"-187 -287 OFFCURVE",
"-203 -275 OFFCURVE",
"-203 -259 CURVE SMOOTH",
"-203 -229 OFFCURVE",
"-151 -181 OFFCURVE",
"-71 -151 CURVE SMOOTH",
"5 -122 OFFCURVE",
"100 -96 OFFCURVE",
"162 -96 CURVE SMOOTH",
"175 -96 OFFCURVE",
"187 -98 OFFCURVE",
"196 -100 CURVE SMOOTH",
"201 -101 OFFCURVE",
"204 -99 OFFCURVE",
"204 -96 CURVE SMOOTH",
"204 -87 OFFCURVE",
"184 -73 OFFCURVE",
"160 -68 CURVE SMOOTH",
"141 -65 OFFCURVE",
"121 -63 OFFCURVE",
"101 -63 CURVE SMOOTH",
"35 -63 OFFCURVE",
"-34 -80 OFFCURVE",
"-98 -105 CURVE SMOOTH",
"-223 -152 OFFCURVE",
"-287 -212 OFFCURVE",
"-287 -254 CURVE SMOOTH",
"-287 -285 OFFCURVE",
"-253 -306 OFFCURVE",
"-185 -306 CURVE SMOOTH",
"-150 -306 OFFCURVE",
"-107 -300 OFFCURVE",
"-55 -288 CURVE SMOOTH",
"-21 -280 OFFCURVE",
"25 -265 OFFCURVE",
"73 -244 CURVE SMOOTH",
"111 -228 OFFCURVE",
"179 -192 OFFCURVE",
"236 -147 CURVE SMOOTH",
"314 -86 OFFCURVE",
"350 -26 OFFCURVE",
"350 20 CURVE SMOOTH",
"350 80 OFFCURVE",
"293 119 OFFCURVE",
"194 119 CURVE SMOOTH",
"182 119 OFFCURVE",
"169 118 OFFCURVE",
"156 117 CURVE",
"203 132 OFFCURVE",
"243 146 OFFCURVE",
"270 164 CURVE SMOOTH"
);
}
);
width = 419;
}
);
note = z;
unicode = 007A;
},
{
glyphname = fi;
layers = (
{
hints = (
{
horizontal = 1;
place = "{-8, 38}";
type = Stem;
},
{
horizontal = 1;
place = "{460, 47}";
type = Stem;
},
{
place = "{-3, 30}";
type = Stem;
},
{
place = "{222, 97}";
type = Stem;
}
);
layerId = "F2190ACF-0345-4BD7-9FAD-2D95E96981D2";
paths = (
{
closed = 1;
nodes = (
"531 141 OFFCURVE",
"526 154 OFFCURVE",
"515 144 CURVE SMOOTH",
"447 82 OFFCURVE",
"349 9 OFFCURVE",
"324 35 CURVE SMOOTH",
"300 61 OFFCURVE",
"362 198 OFFCURVE",
"414 252 CURVE SMOOTH",
"421 260 OFFCURVE",
"395 271 OFFCURVE",
"358 252 CURVE SMOOTH",
"326 235 OFFCURVE",
"263 159 OFFCURVE",
"213 120 CURVE SMOOTH",
"196 107 OFFCURVE",
"202 92 OFFCURVE",
"213 101 CURVE SMOOTH",
"226 112 OFFCURVE",
"251 135 OFFCURVE",
"279 158 CURVE",
"261 138 OFFCURVE",
"246 120 OFFCURVE",
"238 107 CURVE SMOOTH",
"225 86 OFFCURVE",
"192 -3 OFFCURVE",
"287 -8 CURVE SMOOTH",
"355 -12 OFFCURVE",
"454 73 OFFCURVE",
"526 137 CURVE SMOOTH"
);
},
{
closed = 1;
nodes = (
"452 508 OFFCURVE",
"330 535 OFFCURVE",
"244 477 CURVE SMOOTH",
"195 444 OFFCURVE",
"144 373 OFFCURVE",
"101 293 CURVE",
"95 292 OFFCURVE",
"90 291 OFFCURVE",
"85 289 CURVE",
"13 270 OFFCURVE",
"43 210 OFFCURVE",
"51 205 CURVE SMOOTH",
"52 204 OFFCURVE",
"55 204 OFFCURVE",
"58 205 CURVE",
"17 111 OFFCURVE",
"-8 19 OFFCURVE",
"-2 -27 CURVE SMOOTH",
"3 -67 OFFCURVE",
"20 -85 OFFCURVE",
"34 -96 CURVE SMOOTH",
"37 -99 OFFCURVE",
"43 -96 OFFCURVE",
"39 -91 CURVE SMOOTH",
"4 -49 OFFCURVE",
"51 92 OFFCURVE",
"129 218 CURVE SMOOTH",
"133 224 OFFCURVE",
"137 230 OFFCURVE",
"142 237 CURVE",
"203 254 OFFCURVE",
"251 250 OFFCURVE",
"273 236 CURVE SMOOTH",
"288 227 OFFCURVE",
"290 238 OFFCURVE",
"283 251 CURVE SMOOTH",
"278 258 OFFCURVE",
"271 265 OFFCURVE",
"262 272 CURVE SMOOTH",
"248 283 OFFCURVE",
"218 293 OFFCURVE",
"182 296 CURVE",
"221 349 OFFCURVE",
"271 409 OFFCURVE",
"319 440 CURVE SMOOTH",
"359 465 OFFCURVE",
"428 473 OFFCURVE",
"454 428 CURVE",
"439 435 OFFCURVE",
"416 428 OFFCURVE",
"399 409 CURVE SMOOTH",
"381 389 OFFCURVE",
"378 362 OFFCURVE",
"393 350 CURVE SMOOTH",
"408 338 OFFCURVE",
"435 345 OFFCURVE",
"453 366 CURVE SMOOTH",
"465 380 OFFCURVE",
"471 396 OFFCURVE",
"469 409 CURVE",
"469 409 OFFCURVE",
"469 410 OFFCURVE",
"469 411 CURVE SMOOTH"
);
}
);
width = 497;
}
);
note = fi;
unicode = FB01;
},
{
glyphname = fl;
layers = (
{
hints = (
{
horizontal = 1;
place = "{-12, 26}";
type = Stem;
},
{
horizontal = 1;
place = "{460, 47}";
type = Stem;
},
{
place = "{-3, 30}";
type = Stem;
},
{
place = "{259, 55}";
type = Stem;
}
);
layerId = "F2190ACF-0345-4BD7-9FAD-2D95E96981D2";
paths = (
{
closed = 1;
nodes = (
"642 522 OFFCURVE",
"640 550 OFFCURVE",
"592 550 CURVE SMOOTH",
"555 549 OFFCURVE",
"488 523 OFFCURVE",
"457 499 CURVE",
"450 492 OFFCURVE",
"453 488 OFFCURVE",
"462 492 CURVE SMOOTH",
"468 494 OFFCURVE",
"475 498 OFFCURVE",
"482 501 CURVE SMOOTH",
"517 520 OFFCURVE",
"503 480 OFFCURVE",
"495 465 CURVE SMOOTH",
"487 451 OFFCURVE",
"477 435 OFFCURVE",
"467 419 CURVE",
"445 510 OFFCURVE",
"327 533 OFFCURVE",
"244 477 CURVE SMOOTH",
"195 444 OFFCURVE",
"144 373 OFFCURVE",
"101 293 CURVE",
"95 292 OFFCURVE",
"90 291 OFFCURVE",
"85 289 CURVE",
"13 270 OFFCURVE",
"43 210 OFFCURVE",
"51 205 CURVE SMOOTH",
"52 204 OFFCURVE",
"55 204 OFFCURVE",
"58 205 CURVE",
"17 111 OFFCURVE",
"-8 19 OFFCURVE",
"-2 -27 CURVE SMOOTH",
"3 -67 OFFCURVE",
"20 -85 OFFCURVE",
"34 -96 CURVE SMOOTH",
"37 -99 OFFCURVE",
"43 -96 OFFCURVE",
"39 -91 CURVE SMOOTH",
"4 -49 OFFCURVE",
"51 92 OFFCURVE",
"129 218 CURVE SMOOTH",
"133 224 OFFCURVE",
"137 230 OFFCURVE",
"142 237 CURVE",
"203 254 OFFCURVE",
"251 250 OFFCURVE",
"273 236 CURVE SMOOTH",
"288 227 OFFCURVE",
"290 238 OFFCURVE",
"283 251 CURVE SMOOTH",
"278 258 OFFCURVE",
"271 265 OFFCURVE",
"262 272 CURVE SMOOTH",
"248 283 OFFCURVE",
"218 293 OFFCURVE",
"182 296 CURVE",
"221 349 OFFCURVE",
"271 409 OFFCURVE",
"319 440 CURVE SMOOTH",
"363 468 OFFCURVE",
"443 474 OFFCURVE",
"461 411 CURVE",
"461 410 LINE",
"421 347 OFFCURVE",
"370 277 OFFCURVE",
"340 238 CURVE SMOOTH",
"308 195 OFFCURVE",
"269 152 OFFCURVE",
"239 128 CURVE SMOOTH",
"227 118 OFFCURVE",
"234 109 OFFCURVE",
"246 117 CURVE SMOOTH",
"257 124 OFFCURVE",
"273 140 OFFCURVE",
"291 159 CURVE",
"258 93 OFFCURVE",
"231 0 OFFCURVE",
"318 -11 CURVE SMOOTH",
"413 -24 OFFCURVE",
"531 104 OFFCURVE",
"577 151 CURVE SMOOTH",
"586 160 OFFCURVE",
"583 175 OFFCURVE",
"568 160 CURVE SMOOTH",
"541 132 OFFCURVE",
"450 49 OFFCURVE",
"384 24 CURVE SMOOTH",
"202 -44 OFFCURVE",
"434 266 OFFCURVE",
"453 291 CURVE SMOOTH",
"496 345 OFFCURVE",
"592 439 OFFCURVE",
"621 486 CURVE SMOOTH"
);
}
);
width = 534;
}
);
note = fl;
unicode = FB02;
},
{
glyphname = ordfeminine;
layers = (
{
hints = (
{
horizontal = 1;
place = "{328, 21}";
type = Stem;
},
{
horizontal = 1;
place = "{527, 18}";
type = Stem;
},
{
place = "{-3, 47}";
type = Stem;
},
{
place = "{134, 44}";
type = Stem;
},
{
place = "{196, 39}";
type = Stem;
}
);
layerId = "F2190ACF-0345-4BD7-9FAD-2D95E96981D2";
paths = (
{
closed = 1;
nodes = (
"322 474 OFFCURVE",
"319 480 OFFCURVE",
"311 473 CURVE SMOOTH",
"290 453 OFFCURVE",
"248 418 OFFCURVE",
"218 401 CURVE SMOOTH",
"169 373 OFFCURVE",
"171 400 OFFCURVE",
"194 435 CURVE SMOOTH",
"206 453 OFFCURVE",
"222 470 OFFCURVE",
"229 478 CURVE SMOOTH",
"248 502 OFFCURVE",
"220 510 OFFCURVE",
"209 510 CURVE",
"205 520 OFFCURVE",
"200 527 OFFCURVE",
"186 536 CURVE SMOOTH",
"147 560 OFFCURVE",
"76 535 OFFCURVE",
"37 494 CURVE SMOOTH",
"-36 416 OFFCURVE",
"0 337 OFFCURVE",
"83 386 CURVE SMOOTH",
"104 399 OFFCURVE",
"124 415 OFFCURVE",
"145 441 CURVE",
"141 430 LINE SMOOTH",
"123 389 OFFCURVE",
"146 355 OFFCURVE",
"201 379 CURVE SMOOTH",
"239 397 OFFCURVE",
"285 438 OFFCURVE",
"317 468 CURVE"
);
},
{
closed = 1;
nodes = (
"181 328 OFFCURVE",
"180 342 OFFCURVE",
"170 343 CURVE SMOOTH",
"152 346 OFFCURVE",
"106 355 OFFCURVE",
"3 341 CURVE SMOOTH",
"-6 340 OFFCURVE",
"-13 293 OFFCURVE",
"-3 295 CURVE SMOOTH",
"62 309 OFFCURVE",
"100 324 OFFCURVE",
"171 328 CURVE SMOOTH"
);
},
{
closed = 1;
nodes = (
"213 509 OFFCURVE",
"144 450 OFFCURVE",
"134 440 CURVE SMOOTH",
"49 353 OFFCURVE",
"7 378 OFFCURVE",
"88 474 CURVE SMOOTH",
"126 518 OFFCURVE",
"173 536 OFFCURVE",
"192 523 CURVE SMOOTH"
);
}
);
width = 289;
}
);
note = ordfeminine;
unicode = 00AA;
},
{
glyphname = ordmasculine;
layers = (
{
hints = (
{
horizontal = 1;
place = "{328, 21}";
type = Stem;
},
{
horizontal = 1;
place = "{505, 39}";
type = Stem;
},
{
place = "{52, 15}";
type = Stem;
},
{
place = "{149, 45}";
type = Stem;
}
);
layerId = "F2190ACF-0345-4BD7-9FAD-2D95E96981D2";
paths = (
{
closed = 1;
nodes = (
"236 453 OFFCURVE",
"231 459 OFFCURVE",
"225 454 CURVE SMOOTH",
"196 426 OFFCURVE",
"160 400 OFFCURVE",
"121 395 CURVE",
"136 404 OFFCURVE",
"150 415 OFFCURVE",
"160 425 CURVE SMOOTH",
"204 473 OFFCURVE",
"204 521 OFFCURVE",
"169 538 CURVE SMOOTH",
"134 555 OFFCURVE",
"90 535 OFFCURVE",
"62 512 CURVE SMOOTH",
"39 493 OFFCURVE",
"22 472 OFFCURVE",
"-7 448 CURVE SMOOTH",
"-17 440 OFFCURVE",
"-13 431 OFFCURVE",
"-7 437 CURVE",
"-4 439 OFFCURVE",
"2 444 OFFCURVE",
"8 449 CURVE",
"3 441 OFFCURVE",
"1 432 OFFCURVE",
"-1 423 CURVE SMOOTH",
"-16 350 OFFCURVE",
"50 357 OFFCURVE",
"106 386 CURVE",
"153 385 OFFCURVE",
"196 415 OFFCURVE",
"231 449 CURVE SMOOTH"
);
},
{
closed = 1;
nodes = (
"181 328 OFFCURVE",
"180 342 OFFCURVE",
"170 343 CURVE SMOOTH",
"152 346 OFFCURVE",
"106 355 OFFCURVE",
"3 341 CURVE SMOOTH",
"-6 340 OFFCURVE",
"-13 293 OFFCURVE",
"-3 295 CURVE SMOOTH",
"62 309 OFFCURVE",
"100 324 OFFCURVE",
"171 328 CURVE SMOOTH"
);
},
{
closed = 1;
nodes = (
"153 492 OFFCURVE",
"153 461 OFFCURVE",
"120 425 CURVE SMOOTH",
"109 414 OFFCURVE",
"98 404 OFFCURVE",
"86 397 CURVE",
"72 402 OFFCURVE",
"64 415 OFFCURVE",
"68 441 CURVE SMOOTH",
"74 475 OFFCURVE",
"122 514 OFFCURVE",
"141 503 CURVE"
);
},
{
closed = 1;
nodes = (
"90 503 OFFCURVE",
"58 473 OFFCURVE",
"53 439 CURVE SMOOTH",
"49 413 OFFCURVE",
"61 398 OFFCURVE",
"77 391 CURVE",
"53 378 OFFCURVE",
"29 373 OFFCURVE",
"18 379 CURVE SMOOTH",
"-26 400 OFFCURVE",
"52 526 OFFCURVE",
"123 511 CURVE"
);
}
);
width = 224;
}
);
note = ordmasculine;
unicode = 00BA;
},
{
color = 3;
glyphname = pi;
lastChange = "2021-11-16 06:01:33 +0000";
layers = (
{
hints = (
{
horizontal = 1;
place = "{-15, 11}";
type = Stem;
},
{
horizontal = 1;
place = "{193, 26}";
type = Stem;
},
{
place = "{161, 19}";
type = Stem;
}
);
layerId = "F2190ACF-0345-4BD7-9FAD-2D95E96981D2";
paths = (
{
closed = 1;
nodes = (
"506 292 OFFCURVE",
"467 263 OFFCURVE",
"420 263 CURVE SMOOTH",
"327 263 OFFCURVE",
"282 296 OFFCURVE",
"217 296 CURVE SMOOTH",
"171 296 OFFCURVE",
"125 279 OFFCURVE",
"83 249 CURVE",
"76 245 OFFCURVE",
"70 239 OFFCURVE",
"67 219 CURVE",
"67 218 OFFCURVE",
"67 216 OFFCURVE",
"69 216 CURVE SMOOTH",
"73 216 OFFCURVE",
"75 218 OFFCURVE",
"78 218 CURVE",
"122 245 OFFCURVE",
"143 252 OFFCURVE",
"194 252 CURVE SMOOTH",
"197 252 LINE",
"177 207 OFFCURVE",
"157 161 OFFCURVE",
"123 105 CURVE SMOOTH",
"115 91 OFFCURVE",
"68 16 OFFCURVE",
"65 4 CURVE",
"64 3 OFFCURVE",
"72 1 OFFCURVE",
"73 1 CURVE SMOOTH",
"76 1 OFFCURVE",
"79 3 OFFCURVE",
"81 5 CURVE SMOOTH",
"133 56 OFFCURVE",
"209 202 OFFCURVE",
"231 250 CURVE",
"259 246 OFFCURVE",
"287 237 OFFCURVE",
"314 231 CURVE",
"282 198 OFFCURVE",
"233 112 OFFCURVE",
"215 64 CURVE SMOOTH",
"207 36 OFFCURVE",
"207 5 OFFCURVE",
"279 5 CURVE SMOOTH",
"286 5 OFFCURVE",
"294 6 OFFCURVE",
"304 9 CURVE SMOOTH",
"333 16 OFFCURVE",
"433 86 OFFCURVE",
"470 122 CURVE SMOOTH",
"483 135 OFFCURVE",
"480 147 OFFCURVE",
"462 131 CURVE SMOOTH",
"437 109 OFFCURVE",
"316 19 OFFCURVE",
"292 19 CURVE SMOOTH",
"267 19 OFFCURVE",
"277 52 OFFCURVE",
"282 67 CURVE SMOOTH",
"302 126 OFFCURVE",
"346 182 OFFCURVE",
"381 226 CURVE",
"423 236 OFFCURVE",
"457 243 OFFCURVE",
"492 265 CURVE SMOOTH",
"505 274 OFFCURVE",
"512 280 OFFCURVE",
"514 286 CURVE",
"514 289 OFFCURVE",
"514 292 OFFCURVE",
"511 292 CURVE SMOOTH"
);
}
);
width = 457;
}
);
note = pi;
unicode = 03C0;
},
{
glyphname = zero;
layers = (
{
hints = (
{
horizontal = 1;
place = "{-26, 30}";
type = Stem;
},
{
horizontal = 1;
place = "{341, 80}";
type = Stem;
},
{
place = "{28, 33}";
type = Stem;
},
{
place = "{409, 113}";
type = Stem;
}
);
layerId = "F2190ACF-0345-4BD7-9FAD-2D95E96981D2";
paths = (
{
closed = 1;
nodes = (
"372 447 OFFCURVE",
"261 399 OFFCURVE",
"191 341 CURVE SMOOTH",
"83 250 OFFCURVE",
"44 169 OFFCURVE",
"34 119 CURVE SMOOTH",
"-18 -134 OFFCURVE",
"316 -6 OFFCURVE",
"436 124 CURVE SMOOTH",
"547 244 OFFCURVE",
"546 363 OFFCURVE",
"460 404 CURVE SMOOTH"
);
},
{
closed = 1;
nodes = (
"419 307 OFFCURVE",
"429 223 OFFCURVE",
"337 123 CURVE SMOOTH",
"246 25 OFFCURVE",
"140 -12 OFFCURVE",
"94 10 CURVE SMOOTH",
"-21 66 OFFCURVE",
"193 417 OFFCURVE",
"379 326 CURVE SMOOTH"
);
}
);
width = 540;
}
);
note = zero;
unicode = 0030;
},
{
glyphname = one;
layers = (
{
hints = (
{
horizontal = 1;
place = "{-13, 20}";
type = Stem;
}
);
layerId = "F2190ACF-0345-4BD7-9FAD-2D95E96981D2";
paths = (
{
closed = 1;
nodes = (
"305 495 OFFCURVE",
"102 303 OFFCURVE",
"28 262 CURVE SMOOTH",
"8 251 OFFCURVE",
"7 230 OFFCURVE",
"27 242 CURVE SMOOTH",
"66 263 OFFCURVE",
"136 303 OFFCURVE",
"175 329 CURVE",
"119 256 OFFCURVE",
"73 168 OFFCURVE",
"48 99 CURVE SMOOTH",
"37 67 OFFCURVE",
"33 47 OFFCURVE",
"43 28 CURVE SMOOTH",
"52 12 OFFCURVE",
"74 -8 OFFCURVE",
"111 -13 CURVE",
"159 84 OFFCURVE",
"284 444 OFFCURVE",
"377 435 CURVE SMOOTH",
"387 434 OFFCURVE",
"382 443 OFFCURVE",
"378 446 CURVE SMOOTH"
);
}
);
width = 310;
}
);
note = one;
unicode = 0031;
},
{
glyphname = two;
layers = (
{
hints = (
{
horizontal = 1;
place = "{274, 39}";
type = Stem;
},
{
horizontal = 1;
place = "{418, 36}";
type = Stem;
},
{
place = "{500, 102}";
type = Stem;
}
);
layerId = "F2190ACF-0345-4BD7-9FAD-2D95E96981D2";
paths = (
{
closed = 1;
nodes = (
"520 515 OFFCURVE",
"212 431 OFFCURVE",
"130 355 CURVE SMOOTH",
"72 301 OFFCURVE",
"103 248 OFFCURVE",
"264 288 CURVE SMOOTH",
"292 295 OFFCURVE",
"392 339 OFFCURVE",
"378 380 CURVE SMOOTH",
"376 385 OFFCURVE",
"376 384 OFFCURVE",
"372 380 CURVE SMOOTH",
"347 354 OFFCURVE",
"308 336 OFFCURVE",
"256 323 CURVE SMOOTH",
"48 271 OFFCURVE",
"205 445 OFFCURVE",
"418 414 CURVE SMOOTH",
"501 402 OFFCURVE",
"549 301 OFFCURVE",
"421 229 CURVE SMOOTH",
"346 187 OFFCURVE",
"266 154 OFFCURVE",
"187 120 CURVE SMOOTH",
"164 109 OFFCURVE",
"158 109 OFFCURVE",
"133 104 CURVE SMOOTH",
"-41 71 OFFCURVE",
"-34 -5 OFFCURVE",
"-19 -14 CURVE SMOOTH",
"9 -30 OFFCURVE",
"86 7 OFFCURVE",
"144 20 CURVE SMOOTH",
"294 52 OFFCURVE",
"539 28 OFFCURVE",
"523 -30 CURVE SMOOTH",
"520 -39 OFFCURVE",
"530 -42 OFFCURVE",
"532 -29 CURVE SMOOTH",
"549 72 OFFCURVE",
"372 109 OFFCURVE",
"237 111 CURVE",
"326 141 OFFCURVE",
"431 175 OFFCURVE",
"505 222 CURVE SMOOTH",
"596 279 OFFCURVE",
"618 344 OFFCURVE",
"591 391 CURVE SMOOTH"
);
}
);
width = 583;
}
);
note = two;
unicode = 0032;
},
{
glyphname = three;
layers = (
{
hints = (
{
horizontal = 1;
place = "{-94, 32}";
type = Stem;
},
{
horizontal = 1;
place = "{231, 37}";
type = Stem;
},
{
horizontal = 1;
place = "{427, 26}";
type = Stem;
},
{
place = "{-5, 23}";
type = Stem;
},
{
place = "{190, 51}";
type = Stem;
},
{
place = "{497, 93}";
type = Stem;
}
);
layerId = "F2190ACF-0345-4BD7-9FAD-2D95E96981D2";
paths = (
{
closed = 1;
nodes = (
"585 486 OFFCURVE",
"370 450 OFFCURVE",
"307 436 CURVE SMOOTH",
"259 426 OFFCURVE",
"209 402 OFFCURVE",
"194 374 CURVE SMOOTH",
"186 359 OFFCURVE",
"188 339 OFFCURVE",
"212 329 CURVE SMOOTH",
"230 321 OFFCURVE",
"274 311 OFFCURVE",
"312 313 CURVE SMOOTH",
"324 313 OFFCURVE",
"322 323 OFFCURVE",
"315 324 CURVE SMOOTH",
"290 327 OFFCURVE",
"274 335 OFFCURVE",
"257 343 CURVE SMOOTH",
"221 359 OFFCURVE",
"250 400 OFFCURVE",
"314 416 CURVE SMOOTH",
"430 446 OFFCURVE",
"492 407 OFFCURVE",
"496 361 CURVE SMOOTH",
"503 293 OFFCURVE",
"419 271 OFFCURVE",
"368 268 CURVE SMOOTH",
"300 264 OFFCURVE",
"306 234 OFFCURVE",
"346 231 CURVE SMOOTH",
"382 228 OFFCURVE",
"417 216 OFFCURVE",
"445 193 CURVE SMOOTH",
"596 69 OFFCURVE",
"227 -63 OFFCURVE",
"127 -62 CURVE SMOOTH",
"16 -61 OFFCURVE",
"-41 -4 OFFCURVE",
"105 57 CURVE SMOOTH",
"199 96 OFFCURVE",
"340 122 OFFCURVE",
"369 120 CURVE SMOOTH",
"394 118 OFFCURVE",
"385 132 OFFCURVE",
"370 136 CURVE SMOOTH",
"325 147 OFFCURVE",
"192 144 OFFCURVE",
"124 117 CURVE SMOOTH",
"56 89 OFFCURVE",
"-14 46 OFFCURVE",
"-4 -16 CURVE SMOOTH",
"16 -143 OFFCURVE",
"288 -89 OFFCURVE",
"415 -29 CURVE SMOOTH",
"555 37 OFFCURVE",
"610 172 OFFCURVE",
"530 237 CURVE SMOOTH",
"508 254 OFFCURVE",
"471 260 OFFCURVE",
"459 261 CURVE",
"518 281 OFFCURVE",
"591 336 OFFCURVE",
"589 380 CURVE SMOOTH"
);
}
);
width = 601;
}
);
note = three;
unicode = 0033;
},
{
glyphname = four;
layers = (
{
hints = (
{
horizontal = 1;
place = "{-24, 20}";
type = Stem;
}
);
layerId = "F2190ACF-0345-4BD7-9FAD-2D95E96981D2";
paths = (
{
closed = 1;
nodes = (
"431 510 OFFCURVE",
"188 298 OFFCURVE",
"77 217 CURVE SMOOTH",
"54 200 OFFCURVE",
"31 184 OFFCURVE",
"11 164 CURVE SMOOTH",
"1 154 OFFCURVE",
"-2 141 OFFCURVE",
"2 139 CURVE",
"4 133 OFFCURVE",
"13 129 OFFCURVE",
"31 129 CURVE SMOOTH",
"57 129 OFFCURVE",
"91 144 OFFCURVE",
"131 151 CURVE SMOOTH",
"150 154 OFFCURVE",
"169 156 OFFCURVE",
"188 158 CURVE",
"166 110 OFFCURVE",
"153 59 OFFCURVE",
"170 21 CURVE SMOOTH",
"185 -14 OFFCURVE",
"222 -28 OFFCURVE",
"267 -23 CURVE",
"269 -22 OFFCURVE",
"276 -18 OFFCURVE",
"271 -16 CURVE SMOOTH",
"244 -3 OFFCURVE",
"238 26 OFFCURVE",
"243 58 CURVE SMOOTH",
"246 78 OFFCURVE",
"259 117 OFFCURVE",
"277 162 CURVE",
"367 162 OFFCURVE",
"438 145 OFFCURVE",
"427 116 CURVE SMOOTH",
"424 109 OFFCURVE",
"434 107 OFFCURVE",
"436 117 CURVE SMOOTH",
"449 173 OFFCURVE",
"380 198 OFFCURVE",
"295 204 CURVE",
"347 322 OFFCURVE",
"430 463 OFFCURVE",
"491 457 CURVE SMOOTH",
"501 456 OFFCURVE",
"496 465 OFFCURVE",
"492 468 CURVE SMOOTH"
);
},
{
closed = 1;
nodes = (
"284 333 OFFCURVE",
"270 307 OFFCURVE",
"254 280 CURVE SMOOTH",
"242 260 OFFCURVE",
"226 234 OFFCURVE",
"210 205 CURVE",
"161 202 OFFCURVE",
"112 196 OFFCURVE",
"77 187 CURVE",
"156 246 OFFCURVE",
"275 338 OFFCURVE",
"303 357 CURVE"
);
}
);
width = 426;
}
);
note = four;
unicode = 0034;
},
{
glyphname = five;
layers = (
{
hints = (
{
horizontal = 1;
place = "{-41, 18}";
type = Stem;
},
{
horizontal = 1;
place = "{140, 143}";
type = Stem;
},
{
horizontal = 1;
place = "{343, 69}";
type = Stem;
},
{
place = "{3, 20}";
type = Stem;
},
{
place = "{425, 84}";
type = Stem;
}
);
layerId = "F2190ACF-0345-4BD7-9FAD-2D95E96981D2";
paths = (
{
closed = 1;
nodes = (
"659 485 OFFCURVE",
"652 482 OFFCURVE",
"652 475 CURVE SMOOTH",
"656 425 OFFCURVE",
"485 397 OFFCURVE",
"389 420 CURVE SMOOTH",
"351 429 OFFCURVE",
"303 458 OFFCURVE",
"282 443 CURVE SMOOTH",
"274 438 OFFCURVE",
"265 405 OFFCURVE",
"297 377 CURVE",
"250 326 OFFCURVE",
"188 270 OFFCURVE",
"151 238 CURVE SMOOTH",
"127 217 OFFCURVE",
"162 205 OFFCURVE",
"176 221 CURVE SMOOTH",
"182 228 OFFCURVE",
"189 236 OFFCURVE",
"196 243 CURVE",
"289 244 OFFCURVE",
"361 223 OFFCURVE",
"389 200 CURVE SMOOTH",
"450 150 OFFCURVE",
"440 84 OFFCURVE",
"311 17 CURVE SMOOTH",
"142 -70 OFFCURVE",
"-101 1 OFFCURVE",
"99 85 CURVE SMOOTH",
"180 119 OFFCURVE",
"303 141 OFFCURVE",
"328 140 CURVE SMOOTH",
"350 138 OFFCURVE",
"342 150 OFFCURVE",
"328 154 CURVE SMOOTH",
"290 163 OFFCURVE",
"174 160 OFFCURVE",
"115 137 CURVE SMOOTH",
"56 113 OFFCURVE",
"-5 75 OFFCURVE",
"4 21 CURVE SMOOTH",
"21 -88 OFFCURVE",
"290 -27 OFFCURVE",
"367 10 CURVE SMOOTH",
"489 68 OFFCURVE",
"554 180 OFFCURVE",
"473 245 CURVE SMOOTH",
"414 292 OFFCURVE",
"297 286 OFFCURVE",
"223 271 CURVE",
"255 305 OFFCURVE",
"288 335 OFFCURVE",
"315 365 CURVE",
"329 357 OFFCURVE",
"346 351 OFFCURVE",
"369 347 CURVE SMOOTH",
"443 332 OFFCURVE",
"655 362 OFFCURVE",
"659 474 CURVE SMOOTH"
);
}
);
width = 612;
}
);
note = five;
unicode = 0035;
},
{
glyphname = six;
layers = (
{
hints = (
{
horizontal = 1;
place = "{-13, 29}";
type = Stem;
},
{
place = "{23, 59}";
type = Stem;
},
{
place = "{378, 92}";
type = Stem;
}
);
layerId = "F2190ACF-0345-4BD7-9FAD-2D95E96981D2";
paths = (
{
closed = 1;
nodes = (
"504 517 OFFCURVE",
"493 531 OFFCURVE",
"468 527 CURVE SMOOTH",
"290 497 OFFCURVE",
"112 359 OFFCURVE",
"47 198 CURVE SMOOTH",
"-17 39 OFFCURVE",
"54 -48 OFFCURVE",
"216 0 CURVE SMOOTH",
"273 17 OFFCURVE",
"331 49 OFFCURVE",
"374 90 CURVE SMOOTH",
"538 245 OFFCURVE",
"478 373 OFFCURVE",
"300 274 CURVE SMOOTH",
"254 249 OFFCURVE",
"203 210 OFFCURVE",
"156 156 CURVE SMOOTH",
"133 130 OFFCURVE",
"146 116 OFFCURVE",
"165 140 CURVE SMOOTH",
"207 196 OFFCURVE",
"394 336 OFFCURVE",
"377 252 CURVE SMOOTH",
"371 223 OFFCURVE",
"337 170 OFFCURVE",
"267 98 CURVE SMOOTH",
"249 79 OFFCURVE",
"223 59 OFFCURVE",
"196 43 CURVE SMOOTH",
"124 1 OFFCURVE",
"47 -8 OFFCURVE",
"100 136 CURVE SMOOTH",
"164 306 OFFCURVE",
"361 484 OFFCURVE",
"479 511 CURVE SMOOTH"
);
}
);
width = 485;
}
);
note = six;
unicode = 0036;
},
{
glyphname = seven;
layers = (
{
hints = (
{
horizontal = 1;
place = "{-28, 20}";
type = Stem;
},
{
horizontal = 1;
place = "{342, 62}";
type = Stem;
},
{
place = "{51, 68}";
type = Stem;
}
);
layerId = "F2190ACF-0345-4BD7-9FAD-2D95E96981D2";
paths = (
{
closed = 1;
nodes = (
"441 422 OFFCURVE",
"429 424 OFFCURVE",
"414 424 CURVE SMOOTH",
"363 423 OFFCURVE",
"166 388 OFFCURVE",
"107 413 CURVE",
"108 422 OFFCURVE",
"111 426 OFFCURVE",
"111 437 CURVE SMOOTH",
"110 446 OFFCURVE",
"76 479 OFFCURVE",
"77 412 CURVE SMOOTH",
"77 381 OFFCURVE",
"56 330 OFFCURVE",
"33 310 CURVE SMOOTH",
"23 300 OFFCURVE",
"35 293 OFFCURVE",
"46 302 CURVE SMOOTH",
"63 318 OFFCURVE",
"91 363 OFFCURVE",
"99 384 CURVE",
"127 356 OFFCURVE",
"182 342 OFFCURVE",
"230 342 CURVE SMOOTH",
"271 342 OFFCURVE",
"300 343 OFFCURVE",
"319 354 CURVE",
"260 293 OFFCURVE",
"86 142 OFFCURVE",
"57 64 CURVE SMOOTH",
"39 18 OFFCURVE",
"63 -35 OFFCURVE",
"133 -27 CURVE SMOOTH",
"135 -27 OFFCURVE",
"143 -23 OFFCURVE",
"138 -20 CURVE SMOOTH",
"114 -7 OFFCURVE",
"115 21 OFFCURVE",
"128 54 CURVE SMOOTH",
"154 122 OFFCURVE",
"283 282 OFFCURVE",
"335 338 CURVE SMOOTH",
"358 364 OFFCURVE",
"408 416 OFFCURVE",
"445 413 CURVE"
);
}
);
width = 362;
}
);
note = seven;
unicode = 0037;
},
{
glyphname = eight;
layers = (
{
hints = (
{
horizontal = 1;
place = "{-15, 19}";
type = Stem;
},
{
horizontal = 1;
place = "{430, 42}";
type = Stem;
},
{
place = "{4, 103}";
type = Stem;
},
{
place = "{370, 32}";
type = Stem;
},
{
place = "{514, 54}";
type = Stem;
}
);
layerId = "F2190ACF-0345-4BD7-9FAD-2D95E96981D2";
paths = (
{
closed = 1;
nodes = (
"568 520 OFFCURVE",
"550 523 OFFCURVE",
"549 504 CURVE SMOOTH",
"544 404 OFFCURVE",
"279 268 OFFCURVE",
"144 195 CURVE SMOOTH",
"99 171 OFFCURVE",
"-5 108 OFFCURVE",
"4 49 CURVE SMOOTH",
"12 3 OFFCURVE",
"84 -15 OFFCURVE",
"166 -15 CURVE SMOOTH",
"242 -16 OFFCURVE",
"400 35 OFFCURVE",
"402 125 CURVE SMOOTH",
"403 166 OFFCURVE",
"363 204 OFFCURVE",
"296 226 CURVE SMOOTH",
"212 254 OFFCURVE",
"210 299 OFFCURVE",
"242 339 CURVE SMOOTH",
"289 398 OFFCURVE",
"424 454 OFFCURVE",
"491 420 CURVE SMOOTH",
"506 413 OFFCURVE",
"515 399 OFFCURVE",
"513 376 CURVE SMOOTH",
"512 362 OFFCURVE",
"521 367 OFFCURVE",
"525 375 CURVE SMOOTH",
"539 408 OFFCURVE",
"530 430 OFFCURVE",
"510 445 CURVE SMOOTH",
"413 516 OFFCURVE",
"143 440 OFFCURVE",
"129 311 CURVE SMOOTH",
"124 263 OFFCURVE",
"208 239 OFFCURVE",
"251 224 CURVE SMOOTH",
"479 148 OFFCURVE",
"337 1 OFFCURVE",
"170 4 CURVE SMOOTH",
"92 5 OFFCURVE",
"69 62 OFFCURVE",
"202 158 CURVE SMOOTH",
"296 226 OFFCURVE",
"561 384 OFFCURVE",
"567 502 CURVE SMOOTH"
);
}
);
width = 456;
}
);
note = eight;
unicode = 0038;
},
{
glyphname = nine;
layers = (
{
hints = (
{
horizontal = 1;
place = "{104, 28}";
type = Stem;
},
{
place = "{102, 47}";
type = Stem;
}
);
layerId = "F2190ACF-0345-4BD7-9FAD-2D95E96981D2";
paths = (
{
closed = 1;
nodes = (
"448 287 OFFCURVE",
"484 377 OFFCURVE",
"392 434 CURVE SMOOTH",
"314 481 OFFCURVE",
"172 433 OFFCURVE",
"94 350 CURVE SMOOTH",
"-52 195 OFFCURVE",
"19 35 OFFCURVE",
"186 134 CURVE SMOOTH",
"215 152 OFFCURVE",
"245 176 OFFCURVE",
"275 207 CURVE",
"239 151 OFFCURVE",
"200 88 OFFCURVE",
"169 27 CURVE SMOOTH",
"140 -30 OFFCURVE",
"38 -188 OFFCURVE",
"163 -205 CURVE SMOOTH",
"165 -205 OFFCURVE",
"173 -200 OFFCURVE",
"168 -198 CURVE SMOOTH",
"72 -148 OFFCURVE",
"361 162 OFFCURVE",
"397 214 CURVE SMOOTH"
);
},
{
closed = 1;
nodes = (
"358 309 OFFCURVE",
"320 276 OFFCURVE",
"277 234 CURVE SMOOTH",
"106 62 OFFCURVE",
"34 119 OFFCURVE",
"197 310 CURVE SMOOTH",
"245 367 OFFCURVE",
"298 402 OFFCURVE",
"339 413 CURVE SMOOTH",
"377 422 OFFCURVE",
"409 412 OFFCURVE",
"386 366 CURVE SMOOTH"
);
}
);
width = 441;
}
);
note = nine;
unicode = 0039;
},
{
glyphname = onesuperior;
lastChange = "2021-11-16 05:05:28 +0000";
layers = (
{
hints = (
{
horizontal = 1;
place = "{528, -20}";
target = down;
type = TopGhost;
},
{
horizontal = 1;
place = "{271, -68}";
type = Stem;
}
);
layerId = "F2190ACF-0345-4BD7-9FAD-2D95E96981D2";
paths = (
{
closed = 1;
nodes = (
"245 676 OFFCURVE",
"164 615 OFFCURVE",
"105 570 CURVE SMOOTH",
"83 553 OFFCURVE",
"64 539 OFFCURVE",
"51 532 CURVE SMOOTH",
"36 524 OFFCURVE",
"37 506 OFFCURVE",
"53 515 CURVE SMOOTH",
"75 527 OFFCURVE",
"112 549 OFFCURVE",
"139 566 CURVE",
"105 520 OFFCURVE",
"78 467 OFFCURVE",
"63 425 CURVE SMOOTH",
"56 405 OFFCURVE",
"53 391 OFFCURVE",
"60 377 CURVE SMOOTH",
"69 362 OFFCURVE",
"86 352 OFFCURVE",
"106 350 CURVE",
"108 351 LINE",
"114 364 OFFCURVE",
"123 385 OFFCURVE",
"133 410 CURVE SMOOTH",
"172 502 OFFCURVE",
"233 646 OFFCURVE",
"279 641 CURVE SMOOTH",
"286 640 OFFCURVE",
"287 646 OFFCURVE",
"281 652 CURVE"
);
}
);
width = 325;
}
);
note = onesuperior;
unicode = 00B9;
},
{
glyphname = twosuperior;
lastChange = "2021-11-16 05:05:23 +0000";
layers = (
{
hints = (
{
horizontal = 1;
place = "{419, -27}";
type = Stem;
},
{
horizontal = 1;
place = "{519, -29}";
type = Stem;
},
{
place = "{329, 17}";
type = Stem;
},
{
horizontal = 1;
place = "{483, -29}";
type = Stem;
},
{
horizontal = 1;
place = "{577, -31}";
type = Stem;
},
{
place = "{343, 12}";
type = Stem;
}
);
layerId = "F2190ACF-0345-4BD7-9FAD-2D95E96981D2";
paths = (
{
closed = 1;
nodes = (
"393 332 OFFCURVE",
"403 328 OFFCURVE",
"406 340 CURVE",
"417 408 OFFCURVE",
"300 432 OFFCURVE",
"212 433 CURVE",
"213 429 LINE",
"271 449 OFFCURVE",
"339 471 OFFCURVE",
"387 501 CURVE SMOOTH",
"442 536 OFFCURVE",
"464 580 OFFCURVE",
"444 614 CURVE SMOOTH",
"397 696 OFFCURVE",
"195 641 OFFCURVE",
"141 591 CURVE SMOOTH",
"102 555 OFFCURVE",
"124 518 OFFCURVE",
"231 544 CURVE SMOOTH",
"249 549 OFFCURVE",
"315 578 OFFCURVE",
"306 607 CURVE",
"303 611 OFFCURVE",
"301 611 OFFCURVE",
"298 607 CURVE SMOOTH",
"284 592 OFFCURVE",
"259 579 OFFCURVE",
"224 571 CURVE SMOOTH",
"95 538 OFFCURVE",
"193 646 OFFCURVE",
"330 626 CURVE SMOOTH",
"383 618 OFFCURVE",
"412 556 OFFCURVE",
"331 510 CURVE SMOOTH",
"282 483 OFFCURVE",
"230 461 OFFCURVE",
"179 439 CURVE SMOOTH",
"165 432 OFFCURVE",
"161 432 OFFCURVE",
"144 429 CURVE SMOOTH",
"29 407 OFFCURVE",
"34 355 OFFCURVE",
"45 348 CURVE SMOOTH",
"58 341 OFFCURVE",
"84 350 OFFCURVE",
"112 358 CURVE SMOOTH",
"126 363 OFFCURVE",
"140 367 OFFCURVE",
"152 370 CURVE SMOOTH",
"253 392 OFFCURVE",
"405 373 OFFCURVE",
"396 341 CURVE SMOOTH"
);
}
);
width = 491;
}
);
note = twosuperior;
unicode = 00B2;
},
{
glyphname = threesuperior;
lastChange = "2021-11-16 05:05:19 +0000";
layers = (
{
hints = (
{
horizontal = 1;
place = "{259, 26}";
type = Stem;
},
{
horizontal = 1;
place = "{467, 30}";
type = Stem;
},
{
horizontal = 1;
place = "{593, 23}";
type = Stem;
},
{
place = "{18, 20}";
type = Stem;
},
{
place = "{340, 66}";
type = Stem;
},
{
horizontal = 1;
place = "{-55, 27}";
type = Stem;
},
{
horizontal = 1;
place = "{156, 30}";
type = Stem;
},
{
horizontal = 1;
place = "{284, 23}";
type = Stem;
},
{
place = "{3, 21}";
type = Stem;
},
{
place = "{129, 39}";
type = Stem;
},
{
place = "{329, 66}";
type = Stem;
}
);
layerId = "F2190ACF-0345-4BD7-9FAD-2D95E96981D2";
paths = (
{
closed = 1;
nodes = (
"428 686 OFFCURVE",
"286 662 OFFCURVE",
"246 653 CURVE SMOOTH",
"212 647 OFFCURVE",
"180 630 OFFCURVE",
"170 612 CURVE SMOOTH",
"164 599 OFFCURVE",
"168 586 OFFCURVE",
"183 580 CURVE SMOOTH",
"194 574 OFFCURVE",
"224 568 OFFCURVE",
"249 569 CURVE SMOOTH",
"260 569 OFFCURVE",
"258 580 OFFCURVE",
"251 580 CURVE SMOOTH",
"235 582 OFFCURVE",
"225 587 OFFCURVE",
"214 593 CURVE",
"192 602 OFFCURVE",
"213 627 OFFCURVE",
"250 636 CURVE SMOOTH",
"325 656 OFFCURVE",
"364 631 OFFCURVE",
"366 602 CURVE SMOOTH",
"371 560 OFFCURVE",
"318 546 OFFCURVE",
"285 544 CURVE SMOOTH",
"239 541 OFFCURVE",
"243 518 OFFCURVE",
"271 516 CURVE SMOOTH",
"296 514 OFFCURVE",
"318 505 OFFCURVE",
"334 491 CURVE SMOOTH",
"429 414 OFFCURVE",
"194 329 OFFCURVE",
"129 329 CURVE SMOOTH",
"57 330 OFFCURVE",
"23 364 OFFCURVE",
"115 403 CURVE SMOOTH",
"176 428 OFFCURVE",
"267 445 OFFCURVE",
"286 444 CURVE SMOOTH",
"302 442 OFFCURVE",
"301 453 OFFCURVE",
"287 458 CURVE",
"257 465 OFFCURVE",
"171 463 OFFCURVE",
"126 446 CURVE SMOOTH",
"81 428 OFFCURVE",
"35 399 OFFCURVE",
"41 357 CURVE SMOOTH",
"54 273 OFFCURVE",
"234 308 OFFCURVE",
"317 347 CURVE SMOOTH",
"408 390 OFFCURVE",
"445 479 OFFCURVE",
"391 524 CURVE SMOOTH",
"377 535 OFFCURVE",
"352 539 OFFCURVE",
"344 539 CURVE",
"345 535 LINE",
"384 548 OFFCURVE",
"432 585 OFFCURVE",
"431 615 CURVE SMOOTH"
);
}
);
width = 471;
}
);
note = threesuperior;
unicode = 00B3;
},
{
glyphname = foursuperior;
lastChange = "2021-11-16 05:05:14 +0000";
layers = (
{
hints = (
{
horizontal = 1;
place = "{313, -25}";
type = Stem;
}
);
layerId = "F2190ACF-0345-4BD7-9FAD-2D95E96981D2";
paths = (
{
closed = 1;
nodes = (
"330 695 OFFCURVE",
"219 609 OFFCURVE",
"140 547 CURVE SMOOTH",
"121 533 OFFCURVE",
"104 520 OFFCURVE",
"91 510 CURVE SMOOTH",
"88 508 OFFCURVE",
"85 506 OFFCURVE",
"83 504 CURVE",
"70 495 OFFCURVE",
"58 486 OFFCURVE",
"48 475 CURVE SMOOTH",
"42 469 OFFCURVE",
"38 459 OFFCURVE",
"41 456 CURVE",
"44 451 OFFCURVE",
"51 449 OFFCURVE",
"62 449 CURVE SMOOTH",
"72 449 OFFCURVE",
"83 452 OFFCURVE",
"95 455 CURVE SMOOTH",
"105 458 OFFCURVE",
"116 461 OFFCURVE",
"127 463 CURVE SMOOTH",
"133 464 OFFCURVE",
"139 465 OFFCURVE",
"146 466 CURVE SMOOTH",
"151 466 OFFCURVE",
"156 467 OFFCURVE",
"161 467 CURVE",
"144 429 OFFCURVE",
"141 401 OFFCURVE",
"150 380 CURVE SMOOTH",
"160 358 OFFCURVE",
"183 347 OFFCURVE",
"216 350 CURVE",
"217 351 LINE",
"218 351 OFFCURVE",
"218 351 OFFCURVE",
"218 351 CURVE",
"222 354 OFFCURVE",
"222 356 OFFCURVE",
"219 359 CURVE",
"205 365 OFFCURVE",
"199 381 OFFCURVE",
"202 405 CURVE SMOOTH",
"204 417 OFFCURVE",
"212 442 OFFCURVE",
"223 470 CURVE",
"285 470 OFFCURVE",
"324 458 OFFCURVE",
"318 443 CURVE SMOOTH",
"315 437 OFFCURVE",
"325 433 OFFCURVE",
"327 443 CURVE SMOOTH",
"335 475 OFFCURVE",
"302 497 OFFCURVE",
"237 502 CURVE",
"283 603 OFFCURVE",
"330 665 OFFCURVE",
"361 662 CURVE SMOOTH",
"368 661 OFFCURVE",
"369 667 OFFCURVE",
"363 673 CURVE"
);
},
{
closed = 1;
nodes = (
"237 600 LINE",
"226 585 OFFCURVE",
"216 569 OFFCURVE",
"205 550 CURVE SMOOTH",
"197 537 OFFCURVE",
"188 521 OFFCURVE",
"177 502 CURVE",
"146 500 OFFCURVE",
"114 496 OFFCURVE",
"92 491 CURVE",
"93 487 LINE",
"112 502 OFFCURVE",
"135 519 OFFCURVE",
"158 536 CURVE SMOOTH",
"194 564 OFFCURVE",
"229 590 OFFCURVE",
"240 597 CURVE"
);
}
);
width = 407;
}
);
unicode = 2074;
},
{
glyphname = fraction;
lastChange = "2021-11-16 05:00:34 +0000";
layers = (
{
hints = (
{
horizontal = 1;
place = "{-129, 718}";
type = Stem;
},
{
place = "{11, 486}";
type = Stem;
}
);
layerId = "F2190ACF-0345-4BD7-9FAD-2D95E96981D2";
paths = (
{
closed = 1;
nodes = (
"516 602 OFFCURVE",
"458 587 OFFCURVE",
"451 587 CURVE SMOOTH",
"429 587 OFFCURVE",
"74 149 OFFCURVE",
"29 38 CURVE SMOOTH",
"16 8 OFFCURVE",
"39 0 OFFCURVE",
"49 17 CURVE SMOOTH",
"111 137 OFFCURVE",
"354 426 OFFCURVE",
"493 576 CURVE SMOOTH"
);
}
);
width = 523;
}
);
note = fraction;
unicode = 2044;
},
{
glyphname = period;
layers = (
{
hints = (
{
horizontal = 1;
place = "{-7, 20}";
type = Stem;
}
);
layerId = "F2190ACF-0345-4BD7-9FAD-2D95E96981D2";
paths = (
{
closed = 1;
nodes = (
"116 98 OFFCURVE",
"86 90 OFFCURVE",
"65 67 CURVE SMOOTH",
"44 44 OFFCURVE",
"41 14 OFFCURVE",
"58 0 CURVE SMOOTH",
"74 -14 OFFCURVE",
"105 -6 OFFCURVE",
"126 18 CURVE SMOOTH",
"147 41 OFFCURVE",
"150 71 OFFCURVE",
"133 85 CURVE SMOOTH"
);
}
);
width = 202;
}
);
note = period;
unicode = 002E;
},
{
glyphname = comma;
lastChange = "2021-11-23 23:50:14 +0000";
layers = (
{
hints = (
{
place = "{33, 115}";
type = Stem;
}
);
layerId = "F2190ACF-0345-4BD7-9FAD-2D95E96981D2";
paths = (
{
closed = 1;
nodes = (
"138 86 OFFCURVE",
"125 91 OFFCURVE",
"112 91 CURVE SMOOTH",
"93 91 OFFCURVE",
"73 82 OFFCURVE",
"59 67 CURVE SMOOTH",
"43 53 OFFCURVE",
"35 35 OFFCURVE",
"35 21 CURVE SMOOTH",
"35 13 OFFCURVE",
"37 6 OFFCURVE",
"43 1 CURVE SMOOTH",
"49 -5 OFFCURVE",
"57 -8 OFFCURVE",
"66 -8 CURVE SMOOTH",
"82 -8 OFFCURVE",
"101 3 OFFCURVE",
"110 16 CURVE",
"110 -22 OFFCURVE",
"56 -87 OFFCURVE",
"-4 -93 CURVE SMOOTH",
"-10 -94 OFFCURVE",
"-8 -107 OFFCURVE",
"-2 -107 CURVE SMOOTH",
"78 -102 OFFCURVE",
"150 -4 OFFCURVE",
"150 52 CURVE SMOOTH",
"150 60 OFFCURVE",
"149 67 OFFCURVE",
"145 73 CURVE SMOOTH"
);
}
);
width = 229;
}
);
note = comma;
unicode = 002C;
},
{
glyphname = colon;
layers = (
{
hints = (
{
horizontal = 1;
place = "{-7, 20}";
type = Stem;
}
);
layerId = "F2190ACF-0345-4BD7-9FAD-2D95E96981D2";
paths = (
{
closed = 1;
nodes = (
"207 265 OFFCURVE",
"176 257 OFFCURVE",
"156 234 CURVE SMOOTH",
"135 211 OFFCURVE",
"131 181 OFFCURVE",
"148 167 CURVE SMOOTH",
"165 153 OFFCURVE",
"195 161 OFFCURVE",
"216 185 CURVE SMOOTH",
"237 208 OFFCURVE",
"240 238 OFFCURVE",
"224 252 CURVE SMOOTH"
);
},
{
closed = 1;
nodes = (
"115 98 OFFCURVE",
"85 90 OFFCURVE",
"64 67 CURVE SMOOTH",
"43 44 OFFCURVE",
"40 14 OFFCURVE",
"57 0 CURVE SMOOTH",
"74 -14 OFFCURVE",
"104 -6 OFFCURVE",
"125 18 CURVE SMOOTH",
"146 41 OFFCURVE",
"149 71 OFFCURVE",
"132 85 CURVE SMOOTH"
);
}
);
width = 255;
}
);
note = colon;
unicode = 003A;
},
{
glyphname = semicolon;
layers = (
{
hints = (
{
place = "{47, 115}";
type = Stem;
}
);
layerId = "F2190ACF-0345-4BD7-9FAD-2D95E96981D2";
paths = (
{
closed = 1;
nodes = (
"140 102 OFFCURVE",
"95 91 OFFCURVE",
"71 67 CURVE SMOOTH",
"47 44 OFFCURVE",
"39 14 OFFCURVE",
"54 0 CURVE SMOOTH",
"69 -14 OFFCURVE",
"101 -6 OFFCURVE",
"125 18 CURVE SMOOTH",
"126 19 OFFCURVE",
"128 21 OFFCURVE",
"129 22 CURVE",
"121 -35 OFFCURVE",
"67 -95 OFFCURVE",
"8 -101 CURVE SMOOTH",
"2 -102 OFFCURVE",
"3 -108 OFFCURVE",
"10 -108 CURVE SMOOTH",
"102 -102 OFFCURVE",
"183 26 OFFCURVE",
"157 72 CURVE SMOOTH"
);
}
);
width = 255;
}
);
note = semicolon;
unicode = 003B;
},
{
glyphname = ellipsis;
layers = (
{
hints = (
{
horizontal = 1;
place = "{-7, 20}";
type = Stem;
}
);
layerId = "F2190ACF-0345-4BD7-9FAD-2D95E96981D2";
paths = (
{
closed = 1;
nodes = (
"468 98 OFFCURVE",
"438 90 OFFCURVE",
"417 67 CURVE SMOOTH",
"396 44 OFFCURVE",
"393 14 OFFCURVE",
"410 0 CURVE SMOOTH",
"427 -14 OFFCURVE",
"457 -6 OFFCURVE",
"478 18 CURVE SMOOTH",
"499 41 OFFCURVE",
"502 71 OFFCURVE",
"485 85 CURVE SMOOTH"
);
},
{
closed = 1;
nodes = (
"289 98 OFFCURVE",
"258 90 OFFCURVE",
"238 67 CURVE SMOOTH",
"217 44 OFFCURVE",
"213 14 OFFCURVE",
"230 0 CURVE SMOOTH",
"247 -14 OFFCURVE",
"278 -6 OFFCURVE",
"298 18 CURVE SMOOTH",
"319 41 OFFCURVE",
"323 71 OFFCURVE",
"306 85 CURVE SMOOTH"
);
},
{
closed = 1;
nodes = (
"116 98 OFFCURVE",
"86 90 OFFCURVE",
"65 67 CURVE SMOOTH",
"44 44 OFFCURVE",
"41 14 OFFCURVE",
"58 0 CURVE SMOOTH",
"74 -14 OFFCURVE",
"105 -6 OFFCURVE",
"126 18 CURVE SMOOTH",
"147 41 OFFCURVE",
"150 71 OFFCURVE",
"133 85 CURVE SMOOTH"
);
}
);
width = 548;
}
);
note = ellipsis;
unicode = 2026;
},
{
glyphname = exclam;
layers = (
{
hints = (
{
horizontal = 1;
place = "{-7, 20}";
type = Stem;
},
{
place = "{128, 28}";
type = Stem;
}
);
layerId = "F2190ACF-0345-4BD7-9FAD-2D95E96981D2";
paths = (
{
closed = 1;
nodes = (
"398 538 OFFCURVE",
"347 576 OFFCURVE",
"246 467 CURVE SMOOTH",
"181 396 OFFCURVE",
"72 168 OFFCURVE",
"162 131 CURVE SMOOTH",
"171 127 OFFCURVE",
"173 135 OFFCURVE",
"166 137 CURVE SMOOTH",
"124 149 OFFCURVE",
"212 330 OFFCURVE",
"301 422 CURVE SMOOTH",
"336 458 OFFCURVE",
"397 496 OFFCURVE",
"397 523 CURVE SMOOTH"
);
},
{
closed = 1;
nodes = (
"116 98 OFFCURVE",
"86 90 OFFCURVE",
"65 67 CURVE SMOOTH",
"44 44 OFFCURVE",
"41 14 OFFCURVE",
"58 0 CURVE SMOOTH",
"74 -14 OFFCURVE",
"105 -6 OFFCURVE",
"126 18 CURVE SMOOTH",
"147 41 OFFCURVE",
"150 71 OFFCURVE",
"133 85 CURVE SMOOTH"
);
}
);
width = 389;
}
);
note = exclam;
unicode = 0021;
},
{
glyphname = exclamdown;
layers = (
{
hints = (
{
place = "{171, 28}";
type = Stem;
}
);
layerId = "F2190ACF-0345-4BD7-9FAD-2D95E96981D2";
paths = (
{
closed = 1;
nodes = (
"252 341 OFFCURVE",
"221 333 OFFCURVE",
"201 309 CURVE SMOOTH",
"180 286 OFFCURVE",
"176 256 OFFCURVE",
"193 242 CURVE SMOOTH",
"210 229 OFFCURVE",
"241 237 OFFCURVE",
"261 260 CURVE SMOOTH",
"282 283 OFFCURVE",
"285 313 OFFCURVE",
"269 327 CURVE SMOOTH"
);
},
{
closed = 1;
nodes = (
"156 200 OFFCURVE",
"154 192 OFFCURVE",
"160 190 CURVE SMOOTH",
"203 178 OFFCURVE",
"114 -3 OFFCURVE",
"25 -95 CURVE SMOOTH",
"-10 -131 OFFCURVE",
"-70 -169 OFFCURVE",
"-71 -196 CURVE SMOOTH",
"-72 -211 OFFCURVE",
"-20 -249 OFFCURVE",
"80 -140 CURVE SMOOTH",
"146 -69 OFFCURVE",
"254 159 OFFCURVE",
"164 196 CURVE SMOOTH"
);
}
);
width = 262;
}
);
note = exclamdown;
unicode = 00A1;
},
{
glyphname = question;
layers = (
{
hints = (
{
horizontal = 1;
place = "{-7, 20}";
type = Stem;
},
{
horizontal = 1;
place = "{351, 47}";
type = Stem;
},
{
horizontal = 1;
place = "{592, 46}";
type = Stem;
},
{
place = "{26, 22}";
type = Stem;
},
{
place = "{173, 18}";
type = Stem;
},
{
place = "{524, 62}";
type = Stem;
}
);
layerId = "F2190ACF-0345-4BD7-9FAD-2D95E96981D2";
paths = (
{
closed = 1;
nodes = (
"526 697 OFFCURVE",
"312 609 OFFCURVE",
"243 582 CURVE SMOOTH",
"205 567 OFFCURVE",
"171 549 OFFCURVE",
"147 535 CURVE SMOOTH",
"-59 408 OFFCURVE",
"20 293 OFFCURVE",
"224 385 CURVE SMOOTH",
"288 413 OFFCURVE",
"336 464 OFFCURVE",
"373 518 CURVE SMOOTH",
"384 534 OFFCURVE",
"389 549 OFFCURVE",
"383 558 CURVE SMOOTH",
"379 564 OFFCURVE",
"379 562 OFFCURVE",
"376 556 CURVE SMOOTH",
"353 517 OFFCURVE",
"268 466 OFFCURVE",
"197 434 CURVE SMOOTH",
"12 351 OFFCURVE",
"3 425 OFFCURVE",
"150 514 CURVE SMOOTH",
"171 526 OFFCURVE",
"206 544 OFFCURVE",
"246 561 CURVE SMOOTH",
"402 624 OFFCURVE",
"647 601 OFFCURVE",
"454 421 CURVE",
"394 375 OFFCURVE",
"333 329 OFFCURVE",
"271 285 CURVE SMOOTH",
"246 268 OFFCURVE",
"137 195 OFFCURVE",
"185 152 CURVE SMOOTH",
"194 144 OFFCURVE",
"206 158 OFFCURVE",
"197 166 CURVE SMOOTH",
"189 174 OFFCURVE",
"188 185 OFFCURVE",
"205 205 CURVE SMOOTH",
"277 293 OFFCURVE",
"652 404 OFFCURVE",
"577 578 CURVE SMOOTH"
);
},
{
closed = 1;
nodes = (
"140 98 OFFCURVE",
"109 90 OFFCURVE",
"89 67 CURVE SMOOTH",
"68 44 OFFCURVE",
"64 14 OFFCURVE",
"81 0 CURVE SMOOTH",
"98 -14 OFFCURVE",
"128 -6 OFFCURVE",
"149 18 CURVE SMOOTH",
"170 41 OFFCURVE",
"173 71 OFFCURVE",
"157 85 CURVE SMOOTH"
);
}
);
width = 559;
}
);
note = question;
unicode = 003F;
},
{
glyphname = questiondown;
layers = (
{
hints = (
{
horizontal = 1;
place = "{-311, 46}";
type = Stem;
},
{
horizontal = 1;
place = "{-71, 47}";
type = Stem;
},
{
place = "{-237, 62}";
type = Stem;
},
{
place = "{159, 18}";
type = Stem;
},
{
place = "{301, 22}";
type = Stem;
}
);
layerId = "F2190ACF-0345-4BD7-9FAD-2D95E96981D2";
paths = (
{
closed = 1;
nodes = (
"252 341 OFFCURVE",
"221 333 OFFCURVE",
"201 309 CURVE SMOOTH",
"180 286 OFFCURVE",
"176 256 OFFCURVE",
"193 242 CURVE SMOOTH",
"210 229 OFFCURVE",
"241 237 OFFCURVE",
"261 260 CURVE SMOOTH",
"282 283 OFFCURVE",
"285 313 OFFCURVE",
"269 327 CURVE SMOOTH"
);
},
{
closed = 1;
nodes = (
"409 -81 OFFCURVE",
"330 34 OFFCURVE",
"126 -58 CURVE SMOOTH",
"62 -86 OFFCURVE",
"14 -137 OFFCURVE",
"-23 -191 CURVE SMOOTH",
"-34 -207 OFFCURVE",
"-39 -222 OFFCURVE",
"-33 -231 CURVE SMOOTH",
"-29 -237 OFFCURVE",
"-29 -235 OFFCURVE",
"-26 -229 CURVE SMOOTH",
"-3 -190 OFFCURVE",
"82 -139 OFFCURVE",
"153 -107 CURVE SMOOTH",
"338 -24 OFFCURVE",
"347 -98 OFFCURVE",
"200 -187 CURVE SMOOTH",
"179 -199 OFFCURVE",
"144 -217 OFFCURVE",
"104 -234 CURVE SMOOTH",
"-52 -297 OFFCURVE",
"-297 -274 OFFCURVE",
"-104 -94 CURVE",
"-44 -48 OFFCURVE",
"17 -2 OFFCURVE",
"79 42 CURVE SMOOTH",
"104 59 OFFCURVE",
"213 132 OFFCURVE",
"165 175 CURVE SMOOTH",
"156 183 OFFCURVE",
"144 169 OFFCURVE",
"153 161 CURVE SMOOTH",
"161 153 OFFCURVE",
"162 142 OFFCURVE",
"145 122 CURVE SMOOTH",
"73 34 OFFCURVE",
"-302 -77 OFFCURVE",
"-227 -250 CURVE SMOOTH",
"-176 -370 OFFCURVE",
"38 -282 OFFCURVE",
"107 -255 CURVE SMOOTH",
"145 -240 OFFCURVE",
"179 -222 OFFCURVE",
"203 -208 CURVE SMOOTH"
);
}
);
width = 262;
}
);
note = questiondown;
unicode = 00BF;
},
{
glyphname = periodcentered;
layers = (
{
hints = (
{
horizontal = 1;
place = "{120, 98}";
type = Stem;
},
{
place = "{96, 97}";
type = Stem;
}
);
layerId = "F2190ACF-0345-4BD7-9FAD-2D95E96981D2";
paths = (
{
closed = 1;
nodes = (
"165 225 OFFCURVE",
"135 217 OFFCURVE",
"114 193 CURVE SMOOTH",
"93 170 OFFCURVE",
"90 140 OFFCURVE",
"107 126 CURVE SMOOTH",
"123 113 OFFCURVE",
"154 121 OFFCURVE",
"175 144 CURVE SMOOTH",
"196 168 OFFCURVE",
"199 198 OFFCURVE",
"182 211 CURVE SMOOTH"
);
}
);
width = 232;
}
);
note = periodcentered;
unicode = 00B7;
},
{
glyphname = bullet;
layers = (
{
hints = (
{
horizontal = 1;
place = "{6, 398}";
type = Stem;
},
{
place = "{61, 397}";
type = Stem;
}
);
layerId = "F2190ACF-0345-4BD7-9FAD-2D95E96981D2";
paths = (
{
closed = 1;
nodes = (
"458 315 OFFCURVE",
"369 404 OFFCURVE",
"259 404 CURVE SMOOTH",
"150 404 OFFCURVE",
"61 315 OFFCURVE",
"61 205 CURVE SMOOTH",
"61 95 OFFCURVE",
"150 6 OFFCURVE",
"259 6 CURVE SMOOTH",
"369 6 OFFCURVE",
"458 95 OFFCURVE",
"458 205 CURVE SMOOTH"
);
}
);
width = 501;
}
);
note = bullet;
unicode = 2022;
},
{
glyphname = asterisk;
layers = (
{
hints = (
{
horizontal = 1;
place = "{-22, 20}";
type = Stem;
},
{
horizontal = 1;
place = "{228, 18}";
type = Stem;
}
);
layerId = "F2190ACF-0345-4BD7-9FAD-2D95E96981D2";
paths = (
{
closed = 1;
nodes = (
"504 229 OFFCURVE",
"501 245 OFFCURVE",
"489 246 CURVE SMOOTH",
"465 248 OFFCURVE",
"431 258 OFFCURVE",
"292 236 CURVE",
"312 298 OFFCURVE",
"340 346 OFFCURVE",
"384 413 CURVE SMOOTH",
"391 425 OFFCURVE",
"377 433 OFFCURVE",
"368 422 CURVE SMOOTH",
"351 403 OFFCURVE",
"309 360 OFFCURVE",
"245 248 CURVE",
"197 284 OFFCURVE",
"155 314 OFFCURVE",
"102 369 CURVE SMOOTH",
"93 379 OFFCURVE",
"82 367 OFFCURVE",
"90 355 CURVE SMOOTH",
"104 336 OFFCURVE",
"132 292 OFFCURVE",
"210 217 CURVE",
"154 198 OFFCURVE",
"105 180 OFFCURVE",
"31 166 CURVE SMOOTH",
"17 164 OFFCURVE",
"21 148 OFFCURVE",
"35 148 CURVE SMOOTH",
"59 149 OFFCURVE",
"113 148 OFFCURVE",
"220 172 CURVE",
"207 113 OFFCURVE",
"196 62 OFFCURVE",
"168 -9 CURVE SMOOTH",
"162 -22 OFFCURVE",
"178 -27 OFFCURVE",
"185 -15 CURVE SMOOTH",
"198 6 OFFCURVE",
"228 53 OFFCURVE",
"267 164 CURVE",
"322 138 OFFCURVE",
"369 116 OFFCURVE",
"433 72 CURVE SMOOTH",
"444 64 OFFCURVE",
"452 78 OFFCURVE",
"442 88 CURVE SMOOTH",
"426 103 OFFCURVE",
"359 163 OFFCURVE",
"303 197 CURVE",
"371 214 OFFCURVE",
"416 221 OFFCURVE",
"491 228 CURVE SMOOTH"
);
}
);
width = 534;
}
);
note = asterisk;
unicode = 002A;
},
